<svg width="24" height="24" viewBox="0 0 24 24" fill="none" xmlns="http://www.w3.org/2000/svg">
  <path d="M22 16.92V19.92C22.0011 20.1985 21.9441 20.4742 21.8325 20.7293C21.7209 20.9845 21.5573 21.2136 21.3521 21.4019C21.1468 21.5901 20.9046 21.7335 20.6407 21.8227C20.3769 21.9119 20.0974 21.9451 19.82 21.92C16.7428 21.5856 13.787 20.5341 11.19 18.85C8.77382 17.3147 6.72533 15.2662 5.18999 12.85C3.49997 10.2412 2.44824 7.271 2.11999 4.18C2.095 3.90347 2.12787 3.62476 2.21649 3.36162C2.30512 3.09849 2.44756 2.85669 2.63476 2.65162C2.82196 2.44655 3.0498 2.28271 3.30379 2.17052C3.55777 2.05833 3.83233 2.00026 4.10999 2H7.10999C7.59531 1.99522 8.06679 2.16708 8.43376 2.48353C8.80073 2.79999 9.04207 3.23945 9.11999 3.72C9.23662 4.68007 9.47144 5.62273 9.81999 6.53C9.94454 6.88792 9.97366 7.27691 9.90391 7.65088C9.83415 8.02485 9.6682 8.36811 9.42499 8.64L8.08999 9.97C9.51355 12.4584 11.5216 14.4664 14.01 15.89L15.34 14.56C15.6119 14.3168 15.9551 14.1508 16.3291 14.0811C16.7031 14.0113 17.0921 14.0404 17.45 14.165C18.3573 14.5136 19.2999 14.7484 20.26 14.865C20.7468 14.9446 21.1234 15.1922 21.4424 15.5682C21.7615 15.9442 21.9319 16.4204 21.92 16.92Z" stroke="#0B0D12" stroke-width="2" fill="none"/>
  <circle cx="12" cy="12" r="1" fill="#B7F000"/>
  <path d="M8 8L16 16" stroke="#B7F000" stroke-width="1.5"/>
</svg>