<svg width="24" height="24" viewBox="0 0 24 24" fill="none" xmlns="http://www.w3.org/2000/svg">
  <rect x="3" y="4" width="18" height="16" stroke="#0B0D12" stroke-width="1.5"/>
  <rect x="5" y="6" width="2" height="2" fill="#B7F000"/>
  <rect x="9" y="6" width="2" height="2" fill="#0B0D12"/>
  <rect x="13" y="6" width="2" height="2" fill="#0B0D12"/>
  <rect x="17" y="6" width="2" height="2" fill="#0B0D12"/>
  <rect x="5" y="10" width="2" height="2" fill="#0B0D12"/>
  <rect x="9" y="10" width="2" height="2" fill="#0B0D12"/>
  <rect x="13" y="10" width="2" height="2" fill="#0B0D12"/>
  <rect x="17" y="10" width="2" height="2" fill="#0B0D12"/>
  <rect x="5" y="14" width="2" height="2" fill="#0B0D12"/>
  <rect x="9" y="14" width="2" height="2" fill="#0B0D12"/>
  <rect x="13" y="14" width="2" height="2" fill="#0B0D12"/>
  <rect x="17" y="14" width="2" height="2" fill="#0B0D12"/>
  <path d="M3 4L12 1L21 4" stroke="#B7F000" stroke-width="1.5"/>
</svg>
