<svg width="24" height="24" viewBox="0 0 24 24" fill="none" xmlns="http://www.w3.org/2000/svg">
  <path d="M21 15C21 15.5304 20.7893 16.0391 20.4142 16.4142C20.0391 16.7893 19.5304 17 19 17H7L3 21V5C3 4.46957 3.21071 3.96086 3.58579 3.58579C3.96086 3.21071 4.46957 3 5 3H19C19.5304 3 20.0391 3.21071 20.4142 3.58579C20.7893 3.96086 21 4.46957 21 5V15Z" stroke="#0B0D12" stroke-width="1.5"/>
  <rect x="6" y="7" width="8" height="6" rx="1" fill="#B7F000" opacity="0.3"/>
  <path d="M8 9L12 9" stroke="#0B0D12" stroke-width="1"/>
  <path d="M8 11L10 11" stroke="#0B0D12" stroke-width="1"/>
  <circle cx="16" cy="10" r="1" fill="#B7F000"/>
</svg>
