<svg width="24" height="24" viewBox="0 0 24 24" fill="none" xmlns="http://www.w3.org/2000/svg">
  <path d="M10.29 3.86L1.82 18C1.64547 18.3024 1.5729 18.6453 1.61286 18.9873C1.65282 19.3293 1.80334 19.6507 2.04251 19.8999C2.28168 20.1491 2.59642 20.3123 2.93809 20.3655C3.27976 20.4188 3.63059 20.3594 3.94 20.195L12 16.77L20.06 20.195C20.3694 20.3594 20.7202 20.4188 21.0619 20.3655C21.4036 20.3123 21.7183 20.1491 21.9575 19.8999C22.1967 19.6507 22.3472 19.3293 22.3871 18.9873C22.4271 18.6453 22.3545 18.3024 22.18 18L13.71 3.86C13.5318 3.56631 13.2807 3.32312 12.9812 3.15447C12.6817 2.98582 12.3438 2.89725 12 2.89725C11.6562 2.89725 11.3183 2.98582 11.0188 3.15447C10.7193 3.32312 10.4682 3.56631 10.29 3.86Z" stroke="#0B0D12" stroke-width="2" fill="none"/>
  <path d="M12 9V13" stroke="#0B0D12" stroke-width="2"/>
  <path d="M12 17H12.01" stroke="#0B0D12" stroke-width="2"/>
  <circle cx="12" cy="12" r="1" fill="#B7F000"/>
</svg>