<svg width="24" height="24" viewBox="0 0 24 24" fill="none" xmlns="http://www.w3.org/2000/svg">
  <rect x="4" y="2" width="16" height="20" rx="2" stroke="#0B0D12" stroke-width="2" fill="none"/>
  <rect x="6" y="4" width="12" height="6" rx="1" fill="#B7F000" fill-opacity="0.1"/>
  <rect x="7" y="5" width="2" height="1" fill="#0B0D12"/>
  <rect x="10" y="5" width="2" height="1" fill="#0B0D12"/>
  <rect x="13" y="5" width="2" height="1" fill="#0B0D12"/>
  <rect x="7" y="7" width="2" height="1" fill="#0B0D12"/>
  <rect x="10" y="7" width="2" height="1" fill="#0B0D12"/>
  <rect x="13" y="7" width="2" height="1" fill="#0B0D12"/>
  <rect x="7" y="12" width="2" height="2" rx="1" stroke="#0B0D12" stroke-width="1.5" fill="none"/>
  <rect x="10" y="12" width="2" height="2" rx="1" stroke="#0B0D12" stroke-width="1.5" fill="none"/>
  <rect x="13" y="12" width="2" height="2" rx="1" stroke="#0B0D12" stroke-width="1.5" fill="none"/>
  <rect x="7" y="15" width="2" height="2" rx="1" stroke="#0B0D12" stroke-width="1.5" fill="none"/>
  <rect x="10" y="15" width="2" height="2" rx="1" stroke="#0B0D12" stroke-width="1.5" fill="none"/>
  <rect x="13" y="15" width="2" height="2" rx="1" stroke="#0B0D12" stroke-width="1.5" fill="none"/>
  <rect x="7" y="18" width="2" height="2" rx="1" stroke="#0B0D12" stroke-width="1.5" fill="none"/>
  <rect x="10" y="18" width="2" height="2" rx="1" stroke="#0B0D12" stroke-width="1.5" fill="none"/>
  <rect x="13" y="18" width="2" height="2" rx="1" stroke="#0B0D12" stroke-width="1.5" fill="none"/>
</svg>