<svg xmlns="http://www.w3.org/2000/svg" width="512" height="512" viewBox="0 0 512 512">
  <rect x="32" y="32" width="448" height="448" rx="96" ry="96" fill="#0F2336"/>
  <g transform="translate(96,80) scale(2.1)">
      <path d="M128 16 C110 30, 90 38, 64 42 C38 38, 18 30, 0 16 L0 82 C0 111, 22 141, 64 160 C106 141, 128 111, 128 82 Z"
            fill="none" stroke="#FFFFFF" stroke-width="6" />
    
      <rect x="36" y="40" width="56" height="64" rx="8" ry="8" fill="#0F2336" />
      <path d="M78 40 L92 54 L78 54 Z" fill="#24A7B8" />
      <rect x="48" y="56" width="32" height="6" rx="3" fill="#FFFFFF" opacity="0.9"/>
<rect x="48" y="68" width="32" height="6" rx="3" fill="#FFFFFF" opacity="0.9"/>
<rect x="48" y="80" width="32" height="6" rx="3" fill="#FFFFFF" opacity="0.9"/>
      <circle cx="78" cy="90" r="12" fill="#2ECF9A" stroke="#FFFFFF" stroke-width="3"/>
      <path d="M73 90 L77 94 L84 86" stroke="#FFFFFF" stroke-width="3" fill="none" stroke-linecap="round" stroke-linejoin="round"/>
    </g>
</svg>