<?xml version="1.0" standalone="no"?>
<!DOCTYPE svg PUBLIC "-//W3C//DTD SVG 1.1//EN" "http://www.w3.org/Graphics/SVG/1.1/DTD/svg11.dtd">
<svg xmlns:inkscape="http://www.inkscape.org/namespaces/inkscape" xmlns:sodipodi="http://sodipodi.sourceforge.net/DTD/sodipodi-0.dtd" xmlns="http://www.w3.org/2000/svg" xmlns:svg="http://www.w3.org/2000/svg" width="210" height="248" viewBox="0 0 210 248" version="1.1" id="svg1" xml:space="preserve" inkscape:version="1.4.2 (f4327f4, 2025-05-13)" sodipodi:docname="LOGO2.svg"><sodipodi:namedview id="namedview1" pagecolor="#ffffff" bordercolor="#000000" borderopacity="0.08235294" inkscape:showpageshadow="2" inkscape:pageopacity="0.0" inkscape:pagecheckerboard="0" inkscape:deskcolor="#d1d1d1" inkscape:document-units="mm" inkscape:zoom="0.71891835" inkscape:cx="397.12437" inkscape:cy="561.25984" inkscape:window-width="1920" inkscape:window-height="1009" inkscape:window-x="-8" inkscape:window-y="-8" inkscape:window-maximized="1" inkscape:current-layer="layer1"/><defs id="defs1"/><g inkscape:label="Layer 1" inkscape:groupmode="layer" id="layer1"><path d="M 199.24107,11.796654 C 172.94234,33.476883 143.72153,45.865527 105.73446,52.059916 67.747409,45.865527 38.526592,33.476883 12.227861,11.796654 V 114.00349 c 0,44.90899 32.142894,91.36664 93.506599,120.78975 61.36371,-29.42311 93.50661,-75.88076 93.50661,-120.78975 z" fill="none" stroke="#24a7b8" stroke-width="9.02508" id="path1"/><rect x="32.672985" y="36.278412" width="145.75491" height="174.35826" rx="20.822134" ry="21.794783" fill="#0f2336" id="rect1" style="stroke-width:2.66286"/><path d="m 141.98922,37.014457 36.43871,37.094266 h -36.43871 z" fill="#24a7b8" id="path2" style="stroke-width:2.62607"/><rect x="63.906185" y="83.45623" width="83.288536" height="15.897551" rx="7.8082995" fill="#ffffff" opacity="0.9" id="rect2" style="stroke-width:2.62607"/><rect x="63.906185" y="115.25129" width="83.288536" height="15.897551" rx="7.8082995" fill="#ffffff" opacity="0.9" id="rect3" style="stroke-width:2.62607"/><rect x="63.906185" y="147.04643" width="83.288536" height="15.897551" rx="7.8082995" fill="#ffffff" opacity="0.9" id="rect4" style="display:inline;stroke-width:2.62607"/><ellipse cx="141.98918" cy="173.54237" fill="#2ecf9a" stroke="#ffffff" stroke-width="7.87821" id="circle4" style="display:inline" rx="31.233198" ry="31.795101"/><path d="m 128.97535,173.54235 10.41107,10.59839 18.21939,-21.19676" stroke="#ffffff" stroke-width="7.87821" fill="none" stroke-linecap="round" stroke-linejoin="round" id="path4"/></g></svg>