<?xml version="1.0" standalone="no"?>
<!DOCTYPE svg PUBLIC "-//W3C//DTD SVG 1.1//EN" "http://www.w3.org/Graphics/SVG/1.1/DTD/svg11.dtd">
<svg xmlns="http://www.w3.org/2000/svg" xmlns:xlink="http://www.w3.org/1999/xlink" width="300" zoomAndPan="magnify" viewBox="0 0 300 60" height="60" preserveAspectRatio="xMidYMid meet" version="1.0"><defs><clipPath id="5b796296c2"><path d="M 105.347656 6.875 L 195.078125 6.875 L 195.078125 10.269531 L 105.347656 10.269531 Z M 105.347656 6.875 " clip-rule="nonzero"/></clipPath></defs><path fill="#ffffff" d="M 33.183594 9.441406 L 33.183594 13.589844 C 32.113281 13.113281 31.0625 12.757812 30.035156 12.515625 C 29.015625 12.265625 28.054688 12.140625 27.148438 12.140625 C 25.941406 12.140625 25.046875 12.308594 24.472656 12.648438 C 23.894531 12.976562 23.605469 13.488281 23.605469 14.175781 C 23.605469 14.703125 23.796875 15.113281 24.191406 15.402344 C 24.574219 15.695312 25.28125 15.941406 26.300781 16.15625 L 28.449219 16.589844 C 30.625 17.03125 32.167969 17.695312 33.089844 18.585938 C 34.003906 19.46875 34.464844 20.730469 34.464844 22.378906 C 34.464844 24.539062 33.824219 26.148438 32.542969 27.203125 C 31.269531 28.25 29.316406 28.769531 26.679688 28.769531 C 25.445312 28.769531 24.199219 28.644531 22.945312 28.410156 C 21.699219 28.183594 20.445312 27.839844 19.191406 27.375 L 19.191406 23.113281 C 20.445312 23.78125 21.652344 24.28125 22.8125 24.621094 C 23.980469 24.949219 25.113281 25.109375 26.207031 25.109375 C 27.300781 25.109375 28.136719 24.933594 28.714844 24.5625 C 29.304688 24.203125 29.601562 23.679688 29.601562 23 C 29.601562 22.386719 29.398438 21.914062 28.996094 21.585938 C 28.605469 21.246094 27.8125 20.945312 26.621094 20.679688 L 24.679688 20.265625 C 22.71875 19.839844 21.285156 19.167969 20.382812 18.25 C 19.476562 17.332031 19.023438 16.097656 19.023438 14.550781 C 19.023438 12.605469 19.652344 11.113281 20.910156 10.066406 C 22.164062 9.007812 23.972656 8.480469 26.339844 8.480469 C 27.417969 8.480469 28.527344 8.566406 29.65625 8.726562 C 30.796875 8.890625 31.976562 9.132812 33.183594 9.441406 Z M 33.183594 9.441406 " fill-opacity="1" fill-rule="nonzero"/><path fill="#ffffff" d="M 53.339844 21.019531 L 53.339844 22.359375 L 42.367188 22.359375 C 42.480469 23.453125 42.878906 24.277344 43.554688 24.828125 C 44.234375 25.382812 45.1875 25.65625 46.421875 25.65625 C 47.402344 25.65625 48.40625 25.515625 49.4375 25.222656 C 50.480469 24.921875 51.550781 24.480469 52.644531 23.886719 L 52.644531 27.503906 C 51.535156 27.921875 50.421875 28.234375 49.304688 28.449219 C 48.199219 28.660156 47.089844 28.769531 45.988281 28.769531 C 43.335938 28.769531 41.265625 28.097656 39.785156 26.75 C 38.3125 25.394531 37.578125 23.503906 37.578125 21.078125 C 37.578125 18.675781 38.300781 16.792969 39.746094 15.421875 C 41.191406 14.054688 43.183594 13.363281 45.722656 13.363281 C 48.035156 13.363281 49.882812 14.0625 51.265625 15.457031 C 52.648438 16.84375 53.339844 18.695312 53.339844 21.019531 Z M 48.515625 19.453125 C 48.515625 18.5625 48.25 17.847656 47.722656 17.304688 C 47.203125 16.753906 46.535156 16.476562 45.707031 16.476562 C 44.785156 16.476562 44.046875 16.734375 43.480469 17.25 C 42.914062 17.765625 42.5625 18.503906 42.425781 19.453125 Z M 48.515625 19.453125 " fill-opacity="1" fill-rule="nonzero"/><path fill="#ffffff" d="M 68.753906 14.175781 L 68.753906 18.003906 C 68.109375 17.566406 67.46875 17.242188 66.828125 17.042969 C 66.1875 16.828125 65.519531 16.722656 64.832031 16.722656 C 63.519531 16.722656 62.503906 17.109375 61.777344 17.871094 C 61.046875 18.640625 60.683594 19.710938 60.683594 21.078125 C 60.683594 22.449219 61.046875 23.519531 61.777344 24.28125 C 62.503906 25.035156 63.519531 25.414062 64.832031 25.414062 C 65.554688 25.414062 66.25 25.308594 66.90625 25.09375 C 67.570312 24.878906 68.1875 24.554688 68.753906 24.113281 L 68.753906 27.957031 C 68.007812 28.234375 67.261719 28.433594 66.507812 28.5625 C 65.753906 28.699219 65 28.769531 64.246094 28.769531 C 61.59375 28.769531 59.519531 28.089844 58.023438 26.734375 C 56.523438 25.375 55.78125 23.488281 55.78125 21.078125 C 55.78125 18.652344 56.523438 16.757812 58.023438 15.402344 C 59.519531 14.042969 61.59375 13.363281 64.246094 13.363281 C 65.007812 13.363281 65.765625 13.4375 66.507812 13.574219 C 67.261719 13.714844 68.007812 13.910156 68.753906 14.175781 Z M 68.753906 14.175781 " fill-opacity="1" fill-rule="nonzero"/><path fill="#ffffff" d="M 72.632812 22.679688 L 72.632812 13.722656 L 77.363281 13.722656 L 77.363281 15.195312 C 77.363281 15.984375 77.355469 16.984375 77.34375 18.191406 C 77.332031 19.390625 77.328125 20.183594 77.328125 20.585938 C 77.328125 21.769531 77.355469 22.617188 77.421875 23.132812 C 77.480469 23.648438 77.589844 24.027344 77.742188 24.261719 C 77.929688 24.5625 78.175781 24.804688 78.476562 24.980469 C 78.789062 25.144531 79.144531 25.222656 79.550781 25.222656 C 80.53125 25.222656 81.296875 24.847656 81.851562 24.09375 C 82.417969 23.339844 82.699219 22.296875 82.699219 20.964844 L 82.699219 13.722656 L 87.394531 13.722656 L 87.394531 28.390625 L 82.699219 28.390625 L 82.699219 26.261719 C 81.992188 27.128906 81.25 27.765625 80.457031 28.164062 C 79.664062 28.566406 78.789062 28.769531 77.835938 28.769531 C 76.136719 28.769531 74.84375 28.253906 73.953125 27.222656 C 73.070312 26.179688 72.632812 24.667969 72.632812 22.679688 Z M 72.632812 22.679688 " fill-opacity="1" fill-rule="nonzero"/><path fill="#ffffff" d="M 102.804688 17.71875 C 102.390625 17.523438 101.980469 17.375 101.578125 17.285156 C 101.175781 17.203125 100.769531 17.15625 100.355469 17.15625 C 99.148438 17.15625 98.214844 17.546875 97.5625 18.324219 C 96.921875 19.09375 96.601562 20.191406 96.601562 21.621094 L 96.601562 28.390625 L 91.90625 28.390625 L 91.90625 13.722656 L 96.601562 13.722656 L 96.601562 16.136719 C 97.191406 15.171875 97.875 14.46875 98.65625 14.023438 C 99.449219 13.585938 100.390625 13.363281 101.484375 13.363281 C 101.636719 13.363281 101.804688 13.375 101.992188 13.382812 C 102.183594 13.398438 102.445312 13.429688 102.785156 13.476562 Z M 102.804688 17.71875 " fill-opacity="1" fill-rule="nonzero"/><path fill="#ffffff" d="M 119.792969 21.019531 L 119.792969 22.359375 L 108.820312 22.359375 C 108.933594 23.453125 109.328125 24.277344 110.007812 24.828125 C 110.683594 25.382812 111.636719 25.65625 112.871094 25.65625 C 113.851562 25.65625 114.855469 25.515625 115.890625 25.222656 C 116.929688 24.921875 118 24.480469 119.09375 23.886719 L 119.09375 27.503906 C 117.988281 27.921875 116.875 28.234375 115.757812 28.449219 C 114.648438 28.660156 113.542969 28.769531 112.4375 28.769531 C 109.785156 28.769531 107.714844 28.097656 106.234375 26.75 C 104.765625 25.394531 104.03125 23.503906 104.03125 21.078125 C 104.03125 18.675781 104.75 16.792969 106.199219 15.421875 C 107.640625 14.054688 109.632812 13.363281 112.175781 13.363281 C 114.484375 13.363281 116.332031 14.0625 117.71875 15.457031 C 119.097656 16.84375 119.792969 18.695312 119.792969 21.019531 Z M 114.964844 19.453125 C 114.964844 18.5625 114.703125 17.847656 114.171875 17.304688 C 113.65625 16.753906 112.984375 16.476562 112.15625 16.476562 C 111.238281 16.476562 110.496094 16.734375 109.929688 17.25 C 109.367188 17.765625 109.011719 18.503906 108.875 19.453125 Z M 114.964844 19.453125 " fill-opacity="1" fill-rule="nonzero"/><path fill="#ffffff" d="M 121.214844 8.839844 L 126.285156 8.839844 L 131.46875 23.261719 L 136.65625 8.839844 L 141.726562 8.839844 L 134.488281 28.390625 L 128.453125 28.390625 Z M 121.214844 8.839844 " fill-opacity="1" fill-rule="nonzero"/><path fill="#ffffff" d="M 149.226562 21.792969 C 148.246094 21.792969 147.5 21.960938 147 22.300781 C 146.511719 22.632812 146.265625 23.113281 146.265625 23.753906 C 146.265625 24.347656 146.460938 24.808594 146.851562 25.148438 C 147.25 25.488281 147.8125 25.65625 148.527344 25.65625 C 149.40625 25.65625 150.148438 25.347656 150.753906 24.714844 C 151.355469 24.074219 151.660156 23.277344 151.660156 22.320312 L 151.660156 21.792969 Z M 156.390625 20.019531 L 156.390625 28.390625 L 151.660156 28.390625 L 151.660156 26.222656 C 151.027344 27.117188 150.320312 27.765625 149.527344 28.164062 C 148.746094 28.566406 147.792969 28.769531 146.660156 28.769531 C 145.140625 28.769531 143.898438 28.332031 142.949219 27.449219 C 142.003906 26.558594 141.535156 25.40625 141.535156 24 C 141.535156 22.277344 142.121094 21.015625 143.304688 20.207031 C 144.5 19.40625 146.359375 19.003906 148.886719 19.003906 L 151.660156 19.003906 L 151.660156 18.625 C 151.660156 17.886719 151.363281 17.34375 150.773438 17.003906 C 150.191406 16.65625 149.28125 16.476562 148.039062 16.476562 C 147.03125 16.476562 146.097656 16.578125 145.230469 16.777344 C 144.363281 16.980469 143.554688 17.28125 142.816406 17.683594 L 142.816406 14.117188 C 143.820312 13.871094 144.832031 13.679688 145.851562 13.554688 C 146.871094 13.429688 147.878906 13.363281 148.886719 13.363281 C 151.535156 13.363281 153.449219 13.886719 154.617188 14.929688 C 155.796875 15.976562 156.390625 17.671875 156.390625 20.019531 Z M 156.390625 20.019531 " fill-opacity="1" fill-rule="nonzero"/><path fill="#ffffff" d="M 160.585938 22.679688 L 160.585938 13.722656 L 165.320312 13.722656 L 165.320312 15.195312 C 165.320312 15.984375 165.308594 16.984375 165.300781 18.191406 C 165.285156 19.390625 165.28125 20.183594 165.28125 20.585938 C 165.28125 21.769531 165.308594 22.617188 165.375 23.132812 C 165.4375 23.648438 165.542969 24.027344 165.695312 24.261719 C 165.882812 24.5625 166.128906 24.804688 166.429688 24.980469 C 166.742188 25.144531 167.101562 25.222656 167.503906 25.222656 C 168.484375 25.222656 169.25 24.847656 169.804688 24.09375 C 170.371094 23.339844 170.65625 22.296875 170.65625 20.964844 L 170.65625 13.722656 L 175.347656 13.722656 L 175.347656 28.390625 L 170.65625 28.390625 L 170.65625 26.261719 C 169.949219 27.128906 169.203125 27.765625 168.410156 28.164062 C 167.617188 28.566406 166.742188 28.769531 165.789062 28.769531 C 164.09375 28.769531 162.796875 28.253906 161.90625 27.222656 C 161.023438 26.179688 160.585938 24.667969 160.585938 22.679688 Z M 160.585938 22.679688 " fill-opacity="1" fill-rule="nonzero"/><path fill="#ffffff" d="M 179.863281 8.011719 L 184.554688 8.011719 L 184.554688 28.390625 L 179.863281 28.390625 Z M 179.863281 8.011719 " fill-opacity="1" fill-rule="nonzero"/><path fill="#ffffff" d="M 194.171875 9.554688 L 194.171875 13.722656 L 199.015625 13.722656 L 199.015625 17.078125 L 194.171875 17.078125 L 194.171875 23.300781 C 194.171875 23.980469 194.308594 24.441406 194.585938 24.675781 C 194.859375 24.917969 195.402344 25.035156 196.207031 25.035156 L 198.601562 25.035156 L 198.601562 28.390625 L 194.585938 28.390625 C 192.738281 28.390625 191.421875 28.011719 190.644531 27.242188 C 189.875 26.464844 189.496094 25.148438 189.496094 23.300781 L 189.496094 17.078125 L 187.15625 17.078125 L 187.15625 13.722656 L 189.496094 13.722656 L 189.496094 9.554688 Z M 194.171875 9.554688 " fill-opacity="1" fill-rule="nonzero"/><path fill="#ffffff" d="M 216.472656 12.648438 L 216.472656 24.582031 L 218.285156 24.582031 C 220.34375 24.582031 221.921875 24.074219 223.015625 23.054688 C 224.109375 22.027344 224.65625 20.539062 224.65625 18.585938 C 224.65625 16.65625 224.109375 15.183594 223.015625 14.175781 C 221.933594 13.15625 220.359375 12.648438 218.285156 12.648438 Z M 211.441406 8.839844 L 216.757812 8.839844 C 219.722656 8.839844 221.933594 9.058594 223.394531 9.480469 C 224.851562 9.894531 226.097656 10.613281 227.144531 11.628906 C 228.058594 12.511719 228.738281 13.53125 229.183594 14.683594 C 229.632812 15.828125 229.859375 17.132812 229.859375 18.585938 C 229.859375 20.070312 229.632812 21.390625 229.183594 22.546875 C 228.738281 23.707031 228.058594 24.722656 227.144531 25.601562 C 226.089844 26.621094 224.828125 27.34375 223.355469 27.769531 C 221.894531 28.183594 219.699219 28.390625 216.757812 28.390625 L 211.441406 28.390625 Z M 211.441406 8.839844 " fill-opacity="1" fill-rule="nonzero"/><path fill="#ffffff" d="M 240.484375 16.722656 C 239.4375 16.722656 238.648438 17.097656 238.109375 17.851562 C 237.566406 18.597656 237.300781 19.671875 237.300781 21.078125 C 237.300781 22.472656 237.566406 23.546875 238.109375 24.300781 C 238.648438 25.046875 239.4375 25.414062 240.484375 25.414062 C 241.511719 25.414062 242.300781 25.046875 242.84375 24.300781 C 243.378906 23.546875 243.652344 22.472656 243.652344 21.078125 C 243.652344 19.671875 243.378906 18.597656 242.84375 17.851562 C 242.300781 17.097656 241.511719 16.722656 240.484375 16.722656 Z M 240.484375 13.363281 C 243.011719 13.363281 244.984375 14.054688 246.40625 15.421875 C 247.824219 16.777344 248.535156 18.664062 248.535156 21.078125 C 248.535156 23.480469 247.824219 25.367188 246.40625 26.734375 C 244.984375 28.089844 243.011719 28.769531 240.484375 28.769531 C 237.960938 28.769531 235.980469 28.089844 234.546875 26.734375 C 233.113281 25.367188 232.398438 23.480469 232.398438 21.078125 C 232.398438 18.664062 233.113281 16.777344 234.546875 15.421875 C 235.980469 14.054688 237.960938 13.363281 240.484375 13.363281 Z M 240.484375 13.363281 " fill-opacity="1" fill-rule="nonzero"/><path fill="#ffffff" d="M 263.804688 14.175781 L 263.804688 18.003906 C 263.164062 17.566406 262.523438 17.242188 261.882812 17.042969 C 261.242188 16.828125 260.574219 16.722656 259.882812 16.722656 C 258.574219 16.722656 257.554688 17.109375 256.832031 17.871094 C 256.101562 18.640625 255.738281 19.710938 255.738281 21.078125 C 255.738281 22.449219 256.101562 23.519531 256.832031 24.28125 C 257.554688 25.035156 258.574219 25.414062 259.882812 25.414062 C 260.609375 25.414062 261.304688 25.308594 261.957031 25.09375 C 262.625 24.878906 263.242188 24.554688 263.804688 24.113281 L 263.804688 27.957031 C 263.0625 28.234375 262.316406 28.433594 261.5625 28.5625 C 260.808594 28.699219 260.054688 28.769531 259.300781 28.769531 C 256.648438 28.769531 254.574219 28.089844 253.078125 26.734375 C 251.578125 25.375 250.835938 23.488281 250.835938 21.078125 C 250.835938 18.652344 251.578125 16.757812 253.078125 15.402344 C 254.574219 14.042969 256.648438 13.363281 259.300781 13.363281 C 260.0625 13.363281 260.816406 13.4375 261.5625 13.574219 C 262.316406 13.714844 263.0625 13.910156 263.804688 14.175781 Z M 263.804688 14.175781 " fill-opacity="1" fill-rule="nonzero"/><path fill="#ffffff" d="M 279.320312 14.175781 L 279.320312 17.738281 C 278.308594 17.324219 277.339844 17.011719 276.394531 16.796875 C 275.464844 16.585938 274.585938 16.476562 273.757812 16.476562 C 272.859375 16.476562 272.195312 16.589844 271.757812 16.816406 C 271.328125 17.042969 271.117188 17.390625 271.117188 17.851562 C 271.117188 18.230469 271.277344 18.523438 271.609375 18.71875 C 271.945312 18.921875 272.535156 19.066406 273.378906 19.152344 L 274.210938 19.265625 C 276.609375 19.582031 278.226562 20.089844 279.054688 20.792969 C 279.882812 21.488281 280.300781 22.578125 280.300781 24.074219 C 280.300781 25.632812 279.71875 26.808594 278.566406 27.601562 C 277.417969 28.382812 275.699219 28.769531 273.398438 28.769531 C 272.425781 28.769531 271.421875 28.691406 270.382812 28.542969 C 269.351562 28.390625 268.292969 28.164062 267.214844 27.863281 L 267.214844 24.300781 C 268.144531 24.753906 269.101562 25.09375 270.082031 25.320312 C 271.0625 25.542969 272.058594 25.65625 273.078125 25.65625 C 273.992188 25.65625 274.683594 25.535156 275.152344 25.28125 C 275.613281 25.015625 275.851562 24.640625 275.851562 24.148438 C 275.851562 23.734375 275.683594 23.429688 275.359375 23.226562 C 275.042969 23.011719 274.40625 22.847656 273.457031 22.734375 L 272.625 22.621094 C 270.539062 22.359375 269.070312 21.878906 268.234375 21.171875 C 267.402344 20.46875 266.988281 19.394531 266.988281 17.945312 C 266.988281 16.402344 267.515625 15.25 268.570312 14.496094 C 269.636719 13.742188 271.277344 13.363281 273.492188 13.363281 C 274.347656 13.363281 275.25 13.4375 276.207031 13.574219 C 277.160156 13.699219 278.195312 13.902344 279.320312 14.175781 Z M 279.320312 14.175781 " fill-opacity="1" fill-rule="nonzero"/><path fill="#24a7b8" d="M 68.75 42.023438 L 68.75 43.15625 C 68.382812 42.816406 67.996094 42.566406 67.578125 42.402344 C 67.175781 42.242188 66.75 42.15625 66.296875 42.15625 C 65.378906 42.15625 64.679688 42.433594 64.203125 42.984375 C 63.722656 43.542969 63.488281 44.34375 63.488281 45.398438 C 63.488281 46.445312 63.722656 47.242188 64.203125 47.792969 C 64.679688 48.351562 65.378906 48.625 66.296875 48.625 C 66.75 48.625 67.175781 48.542969 67.578125 48.378906 C 67.996094 48.21875 68.382812 47.964844 68.75 47.625 L 68.75 48.753906 C 68.371094 49.007812 67.964844 49.199219 67.542969 49.320312 C 67.128906 49.441406 66.683594 49.507812 66.222656 49.507812 C 65.023438 49.507812 64.078125 49.144531 63.375 48.414062 C 62.683594 47.675781 62.339844 46.671875 62.339844 45.398438 C 62.339844 44.117188 62.683594 43.113281 63.375 42.382812 C 64.078125 41.640625 65.023438 41.269531 66.222656 41.269531 C 66.699219 41.269531 67.144531 41.335938 67.5625 41.457031 C 67.984375 41.585938 68.382812 41.773438 68.75 42.023438 Z M 68.75 42.023438 " fill-opacity="1" fill-rule="nonzero"/><path fill="#24a7b8" d="M 73.070312 46.359375 C 72.28125 46.359375 71.734375 46.453125 71.433594 46.644531 C 71.128906 46.824219 70.980469 47.128906 70.980469 47.566406 C 70.980469 47.90625 71.09375 48.183594 71.320312 48.398438 C 71.542969 48.597656 71.851562 48.699219 72.242188 48.699219 C 72.792969 48.699219 73.230469 48.503906 73.5625 48.113281 C 73.886719 47.726562 74.050781 47.21875 74.050781 46.585938 L 74.050781 46.359375 Z M 75.03125 45.964844 L 75.03125 49.359375 L 74.050781 49.359375 L 74.050781 48.453125 C 73.828125 48.820312 73.542969 49.089844 73.203125 49.265625 C 72.875 49.425781 72.472656 49.507812 71.996094 49.507812 C 71.378906 49.507812 70.890625 49.339844 70.527344 49 C 70.171875 48.660156 70 48.203125 70 47.625 C 70 46.960938 70.214844 46.453125 70.660156 46.117188 C 71.109375 45.765625 71.78125 45.585938 72.675781 45.585938 L 74.050781 45.585938 L 74.050781 45.492188 C 74.050781 45.054688 73.902344 44.710938 73.601562 44.457031 C 73.308594 44.207031 72.894531 44.078125 72.355469 44.078125 C 72.015625 44.078125 71.679688 44.125 71.355469 44.210938 C 71.039062 44.285156 70.734375 44.410156 70.433594 44.570312 L 70.433594 43.664062 C 70.78125 43.527344 71.128906 43.429688 71.46875 43.363281 C 71.808594 43.289062 72.132812 43.25 72.449219 43.25 C 73.316406 43.25 73.960938 43.476562 74.390625 43.929688 C 74.816406 44.371094 75.03125 45.050781 75.03125 45.964844 Z M 75.03125 45.964844 " fill-opacity="1" fill-rule="nonzero"/><path fill="#24a7b8" d="M 77.992188 48.472656 L 77.992188 51.621094 L 76.992188 51.621094 L 76.992188 43.402344 L 77.992188 43.402344 L 77.992188 44.304688 C 78.191406 43.957031 78.449219 43.691406 78.765625 43.511719 C 79.074219 43.339844 79.453125 43.25 79.894531 43.25 C 80.613281 43.25 81.195312 43.542969 81.648438 44.117188 C 82.101562 44.695312 82.328125 45.449219 82.328125 46.378906 C 82.328125 47.320312 82.101562 48.085938 81.648438 48.660156 C 81.195312 49.226562 80.613281 49.507812 79.894531 49.507812 C 79.453125 49.507812 79.074219 49.425781 78.765625 49.265625 C 78.449219 49.089844 78.191406 48.824219 77.992188 48.472656 Z M 81.308594 46.378906 C 81.308594 45.664062 81.160156 45.105469 80.859375 44.703125 C 80.566406 44.285156 80.164062 44.078125 79.652344 44.078125 C 79.132812 44.078125 78.726562 44.285156 78.425781 44.703125 C 78.132812 45.105469 77.992188 45.664062 77.992188 46.378906 C 77.992188 47.109375 78.132812 47.679688 78.425781 48.09375 C 78.726562 48.5 79.132812 48.699219 79.652344 48.699219 C 80.164062 48.699219 80.566406 48.5 80.859375 48.09375 C 81.160156 47.679688 81.308594 47.109375 81.308594 46.378906 Z M 81.308594 46.378906 " fill-opacity="1" fill-rule="nonzero"/><path fill="#24a7b8" d="M 84.921875 41.703125 L 84.921875 43.402344 L 86.941406 43.402344 L 86.941406 44.15625 L 84.921875 44.15625 L 84.921875 47.398438 C 84.921875 47.886719 84.984375 48.203125 85.113281 48.339844 C 85.25 48.480469 85.515625 48.546875 85.921875 48.546875 L 86.941406 48.546875 L 86.941406 49.359375 L 85.921875 49.359375 C 85.167969 49.359375 84.644531 49.222656 84.359375 48.945312 C 84.078125 48.65625 83.941406 48.140625 83.941406 47.398438 L 83.941406 44.15625 L 83.226562 44.15625 L 83.226562 43.402344 L 83.941406 43.402344 L 83.941406 41.703125 Z M 84.921875 41.703125 " fill-opacity="1" fill-rule="nonzero"/><path fill="#24a7b8" d="M 88.117188 47 L 88.117188 43.402344 L 89.097656 43.402344 L 89.097656 46.964844 C 89.097656 47.53125 89.203125 47.957031 89.417969 48.246094 C 89.644531 48.523438 89.976562 48.660156 90.417969 48.660156 C 90.945312 48.660156 91.363281 48.492188 91.664062 48.152344 C 91.972656 47.8125 92.136719 47.355469 92.136719 46.773438 L 92.136719 43.402344 L 93.117188 43.402344 L 93.117188 49.359375 L 92.136719 49.359375 L 92.136719 48.433594 C 91.894531 48.800781 91.617188 49.070312 91.304688 49.246094 C 90.988281 49.417969 90.625 49.507812 90.210938 49.507812 C 89.53125 49.507812 89.007812 49.296875 88.648438 48.867188 C 88.292969 48.445312 88.117188 47.820312 88.117188 47 Z M 88.117188 47 " fill-opacity="1" fill-rule="nonzero"/><path fill="#24a7b8" d="M 98.585938 44.304688 C 98.472656 44.246094 98.34375 44.203125 98.207031 44.171875 C 98.082031 44.148438 97.945312 44.136719 97.792969 44.136719 C 97.238281 44.136719 96.8125 44.320312 96.511719 44.683594 C 96.21875 45.035156 96.078125 45.546875 96.078125 46.210938 L 96.078125 49.359375 L 95.078125 49.359375 L 95.078125 43.402344 L 96.078125 43.402344 L 96.078125 44.324219 C 96.273438 43.960938 96.539062 43.691406 96.867188 43.511719 C 97.207031 43.339844 97.609375 43.25 98.074219 43.25 C 98.136719 43.25 98.207031 43.257812 98.28125 43.269531 C 98.367188 43.28125 98.460938 43.296875 98.566406 43.304688 Z M 98.585938 44.304688 " fill-opacity="1" fill-rule="nonzero"/><path fill="#24a7b8" d="M 104.460938 46.132812 L 104.460938 46.605469 L 99.957031 46.605469 C 99.992188 47.285156 100.191406 47.804688 100.558594 48.152344 C 100.921875 48.503906 101.433594 48.679688 102.085938 48.679688 C 102.464844 48.679688 102.828125 48.636719 103.179688 48.546875 C 103.527344 48.449219 103.882812 48.3125 104.234375 48.132812 L 104.234375 49.058594 C 103.882812 49.207031 103.519531 49.320312 103.144531 49.394531 C 102.773438 49.472656 102.40625 49.507812 102.03125 49.507812 C 101.074219 49.507812 100.320312 49.234375 99.769531 48.679688 C 99.210938 48.128906 98.9375 47.378906 98.9375 46.4375 C 98.9375 45.457031 99.203125 44.683594 99.730469 44.117188 C 100.257812 43.542969 100.964844 43.25 101.859375 43.25 C 102.660156 43.25 103.296875 43.507812 103.765625 44.023438 C 104.226562 44.542969 104.460938 45.242188 104.460938 46.132812 Z M 103.480469 45.851562 C 103.46875 45.3125 103.316406 44.886719 103.03125 44.570312 C 102.738281 44.246094 102.351562 44.078125 101.859375 44.078125 C 101.320312 44.078125 100.886719 44.238281 100.558594 44.550781 C 100.230469 44.851562 100.042969 45.285156 99.992188 45.851562 Z M 103.480469 45.851562 " fill-opacity="1" fill-rule="nonzero"/><path fill="#24a7b8" d="M 112.796875 42.136719 C 112.011719 42.136719 111.390625 42.433594 110.929688 43.023438 C 110.476562 43.601562 110.25 44.394531 110.25 45.398438 C 110.25 46.394531 110.476562 47.183594 110.929688 47.773438 C 111.390625 48.355469 112.011719 48.640625 112.796875 48.640625 C 113.574219 48.640625 114.191406 48.355469 114.644531 47.773438 C 115.09375 47.183594 115.320312 46.394531 115.320312 45.398438 C 115.320312 44.394531 115.09375 43.601562 114.644531 43.023438 C 114.191406 42.433594 113.574219 42.136719 112.796875 42.136719 Z M 112.796875 41.269531 C 113.898438 41.269531 114.785156 41.648438 115.453125 42.402344 C 116.117188 43.144531 116.453125 44.144531 116.453125 45.398438 C 116.453125 46.644531 116.117188 47.644531 115.453125 48.398438 C 114.785156 49.140625 113.898438 49.507812 112.796875 49.507812 C 111.671875 49.507812 110.777344 49.140625 110.097656 48.398438 C 109.429688 47.65625 109.101562 46.65625 109.101562 45.398438 C 109.101562 44.144531 109.429688 43.144531 110.097656 42.402344 C 110.777344 41.648438 111.671875 41.269531 112.796875 41.269531 Z M 112.796875 41.269531 " fill-opacity="1" fill-rule="nonzero"/><path fill="#24a7b8" d="M 123.046875 45.757812 L 123.046875 49.359375 L 122.066406 49.359375 L 122.066406 45.792969 C 122.066406 45.230469 121.953125 44.808594 121.726562 44.53125 C 121.507812 44.246094 121.183594 44.097656 120.746094 44.097656 C 120.21875 44.097656 119.800781 44.269531 119.5 44.605469 C 119.199219 44.945312 119.046875 45.410156 119.046875 45.984375 L 119.046875 49.359375 L 118.050781 49.359375 L 118.050781 43.402344 L 119.046875 43.402344 L 119.046875 44.324219 C 119.273438 43.976562 119.542969 43.710938 119.859375 43.53125 C 120.183594 43.34375 120.554688 43.25 120.972656 43.25 C 121.648438 43.25 122.164062 43.464844 122.515625 43.890625 C 122.867188 44.320312 123.046875 44.941406 123.046875 45.757812 Z M 123.046875 45.757812 " fill-opacity="1" fill-rule="nonzero"/><path fill="#24a7b8" d="M 129.289062 43.625 L 129.289062 44.550781 C 129.007812 44.390625 128.730469 44.269531 128.457031 44.191406 C 128.179688 44.117188 127.898438 44.078125 127.609375 44.078125 C 126.976562 44.078125 126.488281 44.28125 126.140625 44.683594 C 125.785156 45.085938 125.609375 45.652344 125.609375 46.378906 C 125.609375 47.109375 125.785156 47.675781 126.140625 48.078125 C 126.488281 48.480469 126.976562 48.679688 127.609375 48.679688 C 127.898438 48.679688 128.179688 48.640625 128.457031 48.566406 C 128.730469 48.492188 129.007812 48.378906 129.289062 48.226562 L 129.289062 49.132812 C 129.007812 49.257812 128.726562 49.355469 128.4375 49.414062 C 128.148438 49.476562 127.835938 49.507812 127.496094 49.507812 C 126.601562 49.507812 125.894531 49.226562 125.367188 48.660156 C 124.839844 48.09375 124.574219 47.335938 124.574219 46.378906 C 124.574219 45.414062 124.839844 44.652344 125.367188 44.097656 C 125.902344 43.53125 126.636719 43.25 127.570312 43.25 C 127.875 43.25 128.160156 43.28125 128.4375 43.34375 C 128.726562 43.410156 129.007812 43.503906 129.289062 43.625 Z M 129.289062 43.625 " fill-opacity="1" fill-rule="nonzero"/><path fill="#24a7b8" d="M 136.085938 46.132812 L 136.085938 46.605469 L 131.578125 46.605469 C 131.617188 47.285156 131.816406 47.804688 132.183594 48.152344 C 132.546875 48.503906 133.054688 48.679688 133.710938 48.679688 C 134.085938 48.679688 134.449219 48.636719 134.804688 48.546875 C 135.152344 48.449219 135.507812 48.3125 135.859375 48.132812 L 135.859375 49.058594 C 135.507812 49.207031 135.144531 49.320312 134.765625 49.394531 C 134.398438 49.472656 134.03125 49.507812 133.652344 49.507812 C 132.695312 49.507812 131.941406 49.234375 131.390625 48.679688 C 130.835938 48.128906 130.5625 47.378906 130.5625 46.4375 C 130.5625 45.457031 130.824219 44.683594 131.351562 44.117188 C 131.882812 43.542969 132.589844 43.25 133.484375 43.25 C 134.285156 43.25 134.921875 43.507812 135.386719 44.023438 C 135.851562 44.542969 136.085938 45.242188 136.085938 46.132812 Z M 135.105469 45.851562 C 135.089844 45.3125 134.941406 44.886719 134.652344 44.570312 C 134.359375 44.246094 133.972656 44.078125 133.484375 44.078125 C 132.941406 44.078125 132.507812 44.238281 132.183594 44.550781 C 131.851562 44.851562 131.664062 45.285156 131.617188 45.851562 Z M 135.105469 45.851562 " fill-opacity="1" fill-rule="nonzero"/><path fill="#24a7b8" d="M 137.941406 48 L 139.050781 48 L 139.050781 48.925781 L 138.183594 50.621094 L 137.507812 50.621094 L 137.941406 48.925781 Z M 137.941406 48 " fill-opacity="1" fill-rule="nonzero"/><path fill="#24a7b8" d="M 147.878906 42.136719 C 147.097656 42.136719 146.476562 42.433594 146.015625 43.023438 C 145.5625 43.601562 145.335938 44.394531 145.335938 45.398438 C 145.335938 46.394531 145.5625 47.183594 146.015625 47.773438 C 146.476562 48.355469 147.097656 48.640625 147.878906 48.640625 C 148.65625 48.640625 149.277344 48.355469 149.726562 47.773438 C 150.179688 47.183594 150.40625 46.394531 150.40625 45.398438 C 150.40625 44.394531 150.179688 43.601562 149.726562 43.023438 C 149.277344 42.433594 148.65625 42.136719 147.878906 42.136719 Z M 147.878906 41.269531 C 148.984375 41.269531 149.871094 41.648438 150.539062 42.402344 C 151.203125 43.144531 151.539062 44.144531 151.539062 45.398438 C 151.539062 46.644531 151.203125 47.644531 150.539062 48.398438 C 149.871094 49.140625 148.984375 49.507812 147.878906 49.507812 C 146.757812 49.507812 145.863281 49.140625 145.183594 48.398438 C 144.515625 47.65625 144.183594 46.65625 144.183594 45.398438 C 144.183594 44.144531 144.515625 43.144531 145.183594 42.402344 C 145.863281 41.648438 146.757812 41.269531 147.878906 41.269531 Z M 147.878906 41.269531 " fill-opacity="1" fill-rule="nonzero"/><path fill="#24a7b8" d="M 156.640625 44.304688 C 156.527344 44.246094 156.398438 44.203125 156.261719 44.171875 C 156.136719 44.148438 156 44.136719 155.847656 44.136719 C 155.292969 44.136719 154.867188 44.320312 154.566406 44.683594 C 154.273438 45.035156 154.132812 45.546875 154.132812 46.210938 L 154.132812 49.359375 L 153.132812 49.359375 L 153.132812 43.402344 L 154.132812 43.402344 L 154.132812 44.324219 C 154.332031 43.960938 154.59375 43.691406 154.925781 43.511719 C 155.265625 43.339844 155.664062 43.25 156.132812 43.25 C 156.191406 43.25 156.261719 43.257812 156.339844 43.269531 C 156.425781 43.28125 156.519531 43.296875 156.621094 43.304688 Z M 156.640625 44.304688 " fill-opacity="1" fill-rule="nonzero"/><path fill="#24a7b8" d="M 161.378906 46.304688 C 161.378906 45.601562 161.234375 45.054688 160.945312 44.664062 C 160.652344 44.277344 160.246094 44.078125 159.71875 44.078125 C 159.191406 44.078125 158.78125 44.277344 158.496094 44.664062 C 158.203125 45.054688 158.0625 45.601562 158.0625 46.304688 C 158.0625 47.011719 158.203125 47.5625 158.496094 47.964844 C 158.78125 48.355469 159.191406 48.546875 159.71875 48.546875 C 160.246094 48.546875 160.652344 48.355469 160.945312 47.964844 C 161.234375 47.5625 161.378906 47.011719 161.378906 46.304688 Z M 162.359375 48.625 C 162.359375 49.628906 162.132812 50.375 161.679688 50.867188 C 161.238281 51.367188 160.554688 51.621094 159.625 51.621094 C 159.273438 51.621094 158.945312 51.59375 158.644531 51.546875 C 158.34375 51.492188 158.046875 51.417969 157.757812 51.320312 L 157.757812 50.359375 C 158.046875 50.507812 158.328125 50.621094 158.605469 50.695312 C 158.878906 50.773438 159.171875 50.808594 159.476562 50.808594 C 160.117188 50.808594 160.589844 50.640625 160.90625 50.300781 C 161.21875 49.972656 161.378906 49.472656 161.378906 48.792969 L 161.378906 48.300781 C 161.175781 48.65625 160.917969 48.921875 160.605469 49.09375 C 160.289062 49.273438 159.914062 49.359375 159.476562 49.359375 C 158.742188 49.359375 158.15625 49.085938 157.703125 48.527344 C 157.257812 47.964844 157.042969 47.222656 157.042969 46.304688 C 157.042969 45.390625 157.257812 44.652344 157.703125 44.097656 C 158.15625 43.53125 158.742188 43.25 159.476562 43.25 C 159.914062 43.25 160.289062 43.339844 160.605469 43.511719 C 160.917969 43.691406 161.175781 43.957031 161.378906 44.304688 L 161.378906 43.402344 L 162.359375 43.402344 Z M 162.359375 48.625 " fill-opacity="1" fill-rule="nonzero"/><path fill="#24a7b8" d="M 167.085938 46.359375 C 166.292969 46.359375 165.746094 46.453125 165.445312 46.644531 C 165.144531 46.824219 164.992188 47.128906 164.992188 47.566406 C 164.992188 47.90625 165.105469 48.183594 165.332031 48.398438 C 165.558594 48.597656 165.863281 48.699219 166.253906 48.699219 C 166.808594 48.699219 167.246094 48.503906 167.574219 48.113281 C 167.902344 47.726562 168.066406 47.21875 168.066406 46.585938 L 168.066406 46.359375 Z M 169.046875 45.964844 L 169.046875 49.359375 L 168.066406 49.359375 L 168.066406 48.453125 C 167.839844 48.820312 167.554688 49.089844 167.21875 49.265625 C 166.886719 49.425781 166.488281 49.507812 166.011719 49.507812 C 165.394531 49.507812 164.902344 49.339844 164.539062 49 C 164.1875 48.660156 164.011719 48.203125 164.011719 47.625 C 164.011719 46.960938 164.230469 46.453125 164.671875 46.117188 C 165.125 45.765625 165.792969 45.585938 166.6875 45.585938 L 168.066406 45.585938 L 168.066406 45.492188 C 168.066406 45.054688 167.914062 44.710938 167.613281 44.457031 C 167.320312 44.207031 166.90625 44.078125 166.367188 44.078125 C 166.027344 44.078125 165.695312 44.125 165.371094 44.210938 C 165.054688 44.285156 164.746094 44.410156 164.445312 44.570312 L 164.445312 43.664062 C 164.792969 43.527344 165.144531 43.429688 165.480469 43.363281 C 165.820312 43.289062 166.148438 43.25 166.460938 43.25 C 167.328125 43.25 167.976562 43.476562 168.40625 43.929688 C 168.828125 44.371094 169.046875 45.050781 169.046875 45.964844 Z M 169.046875 45.964844 " fill-opacity="1" fill-rule="nonzero"/><path fill="#24a7b8" d="M 176.003906 45.757812 L 176.003906 49.359375 L 175.023438 49.359375 L 175.023438 45.792969 C 175.023438 45.230469 174.910156 44.808594 174.683594 44.53125 C 174.464844 44.246094 174.140625 44.097656 173.703125 44.097656 C 173.175781 44.097656 172.757812 44.269531 172.457031 44.605469 C 172.15625 44.945312 172.003906 45.410156 172.003906 45.984375 L 172.003906 49.359375 L 171.003906 49.359375 L 171.003906 43.402344 L 172.003906 43.402344 L 172.003906 44.324219 C 172.230469 43.976562 172.5 43.710938 172.816406 43.53125 C 173.140625 43.34375 173.511719 43.25 173.929688 43.25 C 174.605469 43.25 175.121094 43.464844 175.472656 43.890625 C 175.824219 44.320312 176.003906 44.941406 176.003906 45.757812 Z M 176.003906 45.757812 " fill-opacity="1" fill-rule="nonzero"/><path fill="#24a7b8" d="M 177.945312 43.402344 L 178.925781 43.402344 L 178.925781 49.359375 L 177.945312 49.359375 Z M 177.945312 41.082031 L 178.925781 41.082031 L 178.925781 42.324219 L 177.945312 42.324219 Z M 177.945312 41.082031 " fill-opacity="1" fill-rule="nonzero"/><path fill="#24a7b8" d="M 180.554688 43.402344 L 185.214844 43.402344 L 185.214844 44.285156 L 181.519531 48.585938 L 185.214844 48.585938 L 185.214844 49.359375 L 180.425781 49.359375 L 180.425781 48.472656 L 184.101562 44.171875 L 180.554688 44.171875 Z M 180.554688 43.402344 " fill-opacity="1" fill-rule="nonzero"/><path fill="#24a7b8" d="M 191.796875 46.132812 L 191.796875 46.605469 L 187.289062 46.605469 C 187.328125 47.285156 187.527344 47.804688 187.894531 48.152344 C 188.257812 48.503906 188.765625 48.679688 189.421875 48.679688 C 189.796875 48.679688 190.160156 48.636719 190.515625 48.546875 C 190.863281 48.449219 191.21875 48.3125 191.570312 48.132812 L 191.570312 49.058594 C 191.21875 49.207031 190.855469 49.320312 190.476562 49.394531 C 190.109375 49.472656 189.742188 49.507812 189.363281 49.507812 C 188.40625 49.507812 187.652344 49.234375 187.101562 48.679688 C 186.546875 48.128906 186.273438 47.378906 186.273438 46.4375 C 186.273438 45.457031 186.535156 44.683594 187.066406 44.117188 C 187.59375 43.542969 188.300781 43.25 189.195312 43.25 C 189.996094 43.25 190.632812 43.507812 191.097656 44.023438 C 191.5625 44.542969 191.796875 45.242188 191.796875 46.132812 Z M 190.816406 45.851562 C 190.800781 45.3125 190.652344 44.886719 190.363281 44.570312 C 190.070312 44.246094 189.683594 44.078125 189.195312 44.078125 C 188.652344 44.078125 188.21875 44.238281 187.894531 44.550781 C 187.5625 44.851562 187.375 45.285156 187.328125 45.851562 Z M 190.816406 45.851562 " fill-opacity="1" fill-rule="nonzero"/><path fill="#24a7b8" d="M 196.90625 41.421875 L 201.46875 41.421875 L 201.46875 42.324219 L 197.980469 42.324219 L 197.980469 44.664062 L 201.128906 44.664062 L 201.128906 45.570312 L 197.980469 45.570312 L 197.980469 49.359375 L 196.90625 49.359375 Z M 196.90625 41.421875 " fill-opacity="1" fill-rule="nonzero"/><path fill="#24a7b8" d="M 205.042969 44.078125 C 204.515625 44.078125 204.101562 44.285156 203.800781 44.703125 C 203.496094 45.117188 203.347656 45.675781 203.347656 46.378906 C 203.347656 47.097656 203.496094 47.660156 203.800781 48.078125 C 204.101562 48.480469 204.515625 48.679688 205.042969 48.679688 C 205.558594 48.679688 205.96875 48.480469 206.269531 48.078125 C 206.582031 47.660156 206.742188 47.097656 206.742188 46.378906 C 206.742188 45.675781 206.582031 45.117188 206.269531 44.703125 C 205.96875 44.285156 205.558594 44.078125 205.042969 44.078125 Z M 205.042969 43.25 C 205.898438 43.25 206.5625 43.527344 207.042969 44.078125 C 207.53125 44.636719 207.777344 45.398438 207.777344 46.378906 C 207.777344 47.359375 207.53125 48.128906 207.042969 48.679688 C 206.5625 49.234375 205.898438 49.507812 205.042969 49.507812 C 204.1875 49.507812 203.515625 49.234375 203.027344 48.679688 C 202.546875 48.128906 202.308594 47.359375 202.308594 46.378906 C 202.308594 45.398438 202.546875 44.636719 203.027344 44.078125 C 203.515625 43.527344 204.1875 43.25 205.042969 43.25 Z M 205.042969 43.25 " fill-opacity="1" fill-rule="nonzero"/><path fill="#24a7b8" d="M 212.855469 44.304688 C 212.742188 44.246094 212.617188 44.203125 212.480469 44.171875 C 212.351562 44.148438 212.214844 44.136719 212.066406 44.136719 C 211.507812 44.136719 211.085938 44.320312 210.78125 44.683594 C 210.492188 45.035156 210.347656 45.546875 210.347656 46.210938 L 210.347656 49.359375 L 209.351562 49.359375 L 209.351562 43.402344 L 210.347656 43.402344 L 210.347656 44.324219 C 210.546875 43.960938 210.8125 43.691406 211.140625 43.511719 C 211.480469 43.339844 211.882812 43.25 212.347656 43.25 C 212.410156 43.25 212.480469 43.257812 212.554688 43.269531 C 212.640625 43.28125 212.734375 43.296875 212.835938 43.304688 Z M 212.855469 44.304688 " fill-opacity="1" fill-rule="nonzero"/><path fill="#24a7b8" d="M 218.734375 46.132812 L 218.734375 46.605469 L 214.230469 46.605469 C 214.265625 47.285156 214.464844 47.804688 214.832031 48.152344 C 215.195312 48.503906 215.703125 48.679688 216.359375 48.679688 C 216.734375 48.679688 217.097656 48.636719 217.453125 48.546875 C 217.800781 48.449219 218.15625 48.3125 218.507812 48.132812 L 218.507812 49.058594 C 218.15625 49.207031 217.792969 49.320312 217.414062 49.394531 C 217.046875 49.472656 216.679688 49.507812 216.300781 49.507812 C 215.347656 49.507812 214.589844 49.234375 214.039062 48.679688 C 213.484375 48.128906 213.210938 47.378906 213.210938 46.4375 C 213.210938 45.457031 213.472656 44.683594 214.003906 44.117188 C 214.53125 43.542969 215.238281 43.25 216.132812 43.25 C 216.933594 43.25 217.570312 43.507812 218.039062 44.023438 C 218.5 44.542969 218.734375 45.242188 218.734375 46.132812 Z M 217.753906 45.851562 C 217.742188 45.3125 217.589844 44.886719 217.300781 44.570312 C 217.007812 44.246094 216.625 44.078125 216.132812 44.078125 C 215.589844 44.078125 215.15625 44.238281 214.832031 44.550781 C 214.503906 44.851562 214.3125 45.285156 214.265625 45.851562 Z M 217.753906 45.851562 " fill-opacity="1" fill-rule="nonzero"/><path fill="#24a7b8" d="M 219.628906 43.402344 L 220.664062 43.402344 L 222.53125 48.398438 L 224.398438 43.402344 L 225.433594 43.402344 L 223.191406 49.359375 L 221.871094 49.359375 Z M 219.628906 43.402344 " fill-opacity="1" fill-rule="nonzero"/><path fill="#24a7b8" d="M 231.878906 46.132812 L 231.878906 46.605469 L 227.375 46.605469 C 227.410156 47.285156 227.609375 47.804688 227.976562 48.152344 C 228.339844 48.503906 228.847656 48.679688 229.503906 48.679688 C 229.882812 48.679688 230.242188 48.636719 230.597656 48.546875 C 230.945312 48.449219 231.300781 48.3125 231.652344 48.132812 L 231.652344 49.058594 C 231.300781 49.207031 230.9375 49.320312 230.558594 49.394531 C 230.191406 49.472656 229.824219 49.507812 229.449219 49.507812 C 228.492188 49.507812 227.738281 49.234375 227.183594 48.679688 C 226.628906 48.128906 226.355469 47.378906 226.355469 46.4375 C 226.355469 45.457031 226.621094 44.683594 227.148438 44.117188 C 227.675781 43.542969 228.382812 43.25 229.277344 43.25 C 230.078125 43.25 230.714844 43.507812 231.183594 44.023438 C 231.644531 44.542969 231.878906 45.242188 231.878906 46.132812 Z M 230.898438 45.851562 C 230.886719 45.3125 230.734375 44.886719 230.445312 44.570312 C 230.15625 44.246094 229.769531 44.078125 229.277344 44.078125 C 228.734375 44.078125 228.300781 44.238281 227.976562 44.550781 C 227.648438 44.851562 227.457031 45.285156 227.410156 45.851562 Z M 230.898438 45.851562 " fill-opacity="1" fill-rule="nonzero"/><path fill="#24a7b8" d="M 236.9375 44.304688 C 236.828125 44.246094 236.699219 44.203125 236.5625 44.171875 C 236.433594 44.148438 236.296875 44.136719 236.148438 44.136719 C 235.589844 44.136719 235.167969 44.320312 234.867188 44.683594 C 234.574219 45.035156 234.433594 45.546875 234.433594 46.210938 L 234.433594 49.359375 L 233.433594 49.359375 L 233.433594 43.402344 L 234.433594 43.402344 L 234.433594 44.324219 C 234.628906 43.960938 234.894531 43.691406 235.222656 43.511719 C 235.5625 43.339844 235.964844 43.25 236.429688 43.25 C 236.492188 43.25 236.5625 43.257812 236.636719 43.269531 C 236.722656 43.28125 236.816406 43.296875 236.921875 43.304688 Z M 236.9375 44.304688 " fill-opacity="1" fill-rule="nonzero"/><g clip-path="url(#5b796296c2)"><path stroke-linecap="butt" transform="matrix(0.427289, 0, 0, 0.427351, 105.346395, -95.79879)" fill="none" stroke-linejoin="miter" d="M 199.242172 11.795867 C 172.940839 33.477391 143.723231 45.862916 105.738513 52.060249 C 67.744652 45.862916 38.527045 33.477391 12.225712 11.795867 L 12.225712 114.006155 C 12.225712 158.913966 44.368738 205.36654 105.738513 234.79016 C 167.099146 205.36654 199.242172 158.913966 199.242172 114.006155 Z M 199.242172 11.795867 " stroke="#24a7b8" stroke-width="9.025" stroke-opacity="1" stroke-miterlimit="4"/></g></svg>