<svg xmlns="http://www.w3.org/2000/svg" xmlns:xlink="http://www.w3.org/1999/xlink" width="1000" zoomAndPan="magnify" viewBox="0 0 750 281.25" height="375" preserveAspectRatio="xMidYMid meet" version="1.0"><defs><clipPath id="b77dd73fdb"><path d="M 355.007812 91.082031 L 545.84375 91.082031 L 545.84375 98.316406 L 355.007812 98.316406 Z M 355.007812 91.082031 " clip-rule="nonzero"/></clipPath><clipPath id="5fd124b4ac"><path d="M 11.105469 55.273438 L 154.722656 55.273438 L 154.722656 225.070312 L 11.105469 225.070312 Z M 11.105469 55.273438 " clip-rule="nonzero"/></clipPath><clipPath id="046a5b1979"><path d="M 56 121 L 154.722656 121 L 154.722656 225.070312 L 56 225.070312 Z M 56 121 " clip-rule="nonzero"/></clipPath></defs><path fill="#144255" d="M 201.527344 96.550781 L 201.527344 105.394531 C 199.253906 104.378906 197.015625 103.621094 194.832031 103.105469 C 192.664062 102.570312 190.621094 102.304688 188.691406 102.304688 C 186.125 102.304688 184.222656 102.664062 183.003906 103.386719 C 181.773438 104.085938 181.15625 105.179688 181.15625 106.644531 C 181.15625 107.769531 181.566406 108.644531 182.402344 109.257812 C 183.21875 109.882812 184.722656 110.40625 186.890625 110.867188 L 191.460938 111.789062 C 196.085938 112.730469 199.367188 114.148438 201.328125 116.046875 C 203.273438 117.925781 204.253906 120.617188 204.253906 124.132812 C 204.253906 128.738281 202.890625 132.167969 200.164062 134.414062 C 197.457031 136.648438 193.304688 137.753906 187.695312 137.753906 C 185.070312 137.753906 182.421875 137.488281 179.753906 136.988281 C 177.101562 136.507812 174.4375 135.773438 171.769531 134.78125 L 171.769531 125.695312 C 174.4375 127.121094 177.003906 128.1875 179.472656 128.910156 C 181.957031 129.609375 184.363281 129.953125 186.691406 129.953125 C 189.015625 129.953125 190.792969 129.578125 192.023438 128.785156 C 193.277344 128.019531 193.910156 126.90625 193.910156 125.457031 C 193.910156 124.148438 193.476562 123.140625 192.621094 122.441406 C 191.792969 121.714844 190.105469 121.074219 187.570312 120.507812 L 183.441406 119.625 C 179.273438 118.71875 176.222656 117.285156 174.304688 115.328125 C 172.375 113.371094 171.414062 110.742188 171.414062 107.445312 C 171.414062 103.296875 172.75 100.117188 175.425781 97.882812 C 178.09375 95.625 181.9375 94.503906 186.972656 94.503906 C 189.265625 94.503906 191.625 94.6875 194.027344 95.027344 C 196.453125 95.378906 198.960938 95.894531 201.527344 96.550781 Z M 201.527344 96.550781 " fill-opacity="1" fill-rule="nonzero"/><path fill="#144255" d="M 244.394531 121.234375 L 244.394531 124.089844 L 221.058594 124.089844 C 221.300781 126.421875 222.148438 128.179688 223.585938 129.351562 C 225.03125 130.535156 227.058594 131.117188 229.683594 131.117188 C 231.769531 131.117188 233.902344 130.820312 236.097656 130.195312 C 238.316406 129.550781 240.589844 128.613281 242.917969 127.347656 L 242.917969 135.058594 C 240.558594 135.949219 238.191406 136.613281 235.816406 137.074219 C 233.464844 137.523438 231.105469 137.753906 228.761719 137.753906 C 223.121094 137.753906 218.71875 136.324219 215.570312 133.449219 C 212.4375 130.558594 210.875 126.53125 210.875 121.359375 C 210.875 116.238281 212.410156 112.222656 215.484375 109.300781 C 218.558594 106.386719 222.796875 104.910156 228.195312 104.910156 C 233.113281 104.910156 237.042969 106.402344 239.984375 109.375 C 242.925781 112.332031 244.394531 116.277344 244.394531 121.234375 Z M 234.136719 117.894531 C 234.136719 115.996094 233.570312 114.472656 232.449219 113.3125 C 231.34375 112.140625 229.925781 111.550781 228.164062 111.550781 C 226.203125 111.550781 224.632812 112.097656 223.425781 113.199219 C 222.222656 114.296875 221.476562 115.871094 221.183594 117.894531 Z M 234.136719 117.894531 " fill-opacity="1" fill-rule="nonzero"/><path fill="#144255" d="M 277.179688 106.644531 L 277.179688 114.804688 C 275.808594 113.871094 274.445312 113.179688 273.082031 112.757812 C 271.722656 112.296875 270.300781 112.074219 268.839844 112.074219 C 266.046875 112.074219 263.886719 112.898438 262.339844 114.523438 C 260.789062 116.164062 260.015625 118.445312 260.015625 121.359375 C 260.015625 124.28125 260.789062 126.5625 262.339844 128.1875 C 263.886719 129.792969 266.046875 130.601562 268.839844 130.601562 C 270.375 130.601562 271.855469 130.378906 273.25 129.917969 C 274.660156 129.460938 275.972656 128.769531 277.179688 127.828125 L 277.179688 136.023438 C 275.59375 136.613281 274.003906 137.039062 272.402344 137.3125 C 270.796875 137.605469 269.195312 137.753906 267.589844 137.753906 C 261.949219 137.753906 257.539062 136.304688 254.359375 133.417969 C 251.167969 130.519531 249.589844 126.496094 249.589844 121.359375 C 249.589844 116.1875 251.167969 112.148438 254.359375 109.257812 C 257.539062 106.359375 261.949219 104.910156 267.589844 104.910156 C 269.210938 104.910156 270.824219 105.070312 272.402344 105.363281 C 274.003906 105.660156 275.59375 106.078125 277.179688 106.644531 Z M 277.179688 106.644531 " fill-opacity="1" fill-rule="nonzero"/><path fill="#144255" d="M 285.429688 124.773438 L 285.429688 105.679688 L 295.488281 105.679688 L 295.488281 108.816406 C 295.488281 110.5 295.472656 112.632812 295.449219 115.203125 C 295.421875 117.761719 295.414062 119.453125 295.414062 120.308594 C 295.414062 122.832031 295.472656 124.640625 295.613281 125.738281 C 295.738281 126.839844 295.972656 127.644531 296.296875 128.144531 C 296.695312 128.785156 297.21875 129.304688 297.855469 129.675781 C 298.523438 130.027344 299.277344 130.195312 300.140625 130.195312 C 302.226562 130.195312 303.855469 129.394531 305.035156 127.789062 C 306.238281 126.179688 306.835938 123.957031 306.835938 121.117188 L 306.835938 105.679688 L 316.824219 105.679688 L 316.824219 136.949219 L 306.835938 136.949219 L 306.835938 132.410156 C 305.332031 134.257812 303.753906 135.613281 302.070312 136.464844 C 300.382812 137.320312 298.523438 137.753906 296.496094 137.753906 C 292.878906 137.753906 290.128906 136.65625 288.238281 134.457031 C 286.359375 132.234375 285.429688 129.011719 285.429688 124.773438 Z M 285.429688 124.773438 " fill-opacity="1" fill-rule="nonzero"/><path fill="#144255" d="M 349.597656 114.195312 C 348.71875 113.78125 347.84375 113.464844 346.988281 113.273438 C 346.132812 113.097656 345.269531 112.996094 344.390625 112.996094 C 341.820312 112.996094 339.835938 113.832031 338.449219 115.488281 C 337.085938 117.128906 336.40625 119.46875 336.40625 122.515625 L 336.40625 136.949219 L 326.417969 136.949219 L 326.417969 105.679688 L 336.40625 105.679688 L 336.40625 110.824219 C 337.660156 108.765625 339.113281 107.269531 340.773438 106.320312 C 342.460938 105.386719 344.464844 104.910156 346.789062 104.910156 C 347.113281 104.910156 347.472656 104.9375 347.871094 104.953125 C 348.277344 104.988281 348.832031 105.054688 349.554688 105.152344 Z M 349.597656 114.195312 " fill-opacity="1" fill-rule="nonzero"/><path fill="#144255" d="M 385.726562 121.234375 L 385.726562 124.089844 L 362.390625 124.089844 C 362.632812 126.421875 363.472656 128.179688 364.917969 129.351562 C 366.355469 130.535156 368.382812 131.117188 371.007812 131.117188 C 373.09375 131.117188 375.226562 130.820312 377.429688 130.195312 C 379.636719 129.550781 381.914062 128.613281 384.242188 127.347656 L 384.242188 135.058594 C 381.890625 135.949219 379.523438 136.613281 377.144531 137.074219 C 374.785156 137.523438 372.4375 137.753906 370.085938 137.753906 C 364.445312 137.753906 360.039062 136.324219 356.890625 133.449219 C 353.769531 130.558594 352.207031 126.53125 352.207031 121.359375 C 352.207031 116.238281 353.734375 112.222656 356.816406 109.300781 C 359.882812 106.386719 364.121094 104.910156 369.527344 104.910156 C 374.4375 104.910156 378.367188 106.402344 381.316406 109.375 C 384.25 112.332031 385.726562 116.277344 385.726562 121.234375 Z M 375.460938 117.894531 C 375.460938 115.996094 374.902344 114.472656 373.773438 113.3125 C 372.675781 112.140625 371.246094 111.550781 369.488281 111.550781 C 367.535156 111.550781 365.957031 112.097656 364.75 113.199219 C 363.554688 114.296875 362.796875 115.871094 362.507812 117.894531 Z M 375.460938 117.894531 " fill-opacity="1" fill-rule="nonzero"/><path fill="#144255" d="M 388.753906 95.269531 L 399.535156 95.269531 L 410.558594 126.011719 L 421.59375 95.269531 L 432.375 95.269531 L 416.980469 136.949219 L 404.148438 136.949219 Z M 388.753906 95.269531 " fill-opacity="1" fill-rule="nonzero"/><path fill="#144255" d="M 448.328125 122.882812 C 446.242188 122.882812 444.65625 123.242188 443.59375 123.964844 C 442.554688 124.671875 442.03125 125.695312 442.03125 127.0625 C 442.03125 128.328125 442.445312 129.3125 443.277344 130.035156 C 444.125 130.761719 445.320312 131.117188 446.839844 131.117188 C 448.710938 131.117188 450.289062 130.460938 451.574219 129.113281 C 452.855469 127.746094 453.503906 126.046875 453.503906 124.007812 L 453.503906 122.882812 Z M 463.5625 119.101562 L 463.5625 136.949219 L 453.503906 136.949219 L 453.503906 132.324219 C 452.15625 134.234375 450.652344 135.613281 448.96875 136.464844 C 447.304688 137.320312 445.277344 137.753906 442.867188 137.753906 C 439.636719 137.753906 436.996094 136.824219 434.976562 134.941406 C 432.964844 133.042969 431.96875 130.585938 431.96875 127.585938 C 431.96875 123.914062 433.214844 121.226562 435.734375 119.5 C 438.273438 117.792969 442.230469 116.9375 447.605469 116.9375 L 453.503906 116.9375 L 453.503906 116.128906 C 453.503906 114.554688 452.871094 113.398438 451.617188 112.671875 C 450.378906 111.933594 448.445312 111.550781 445.800781 111.550781 C 443.660156 111.550781 441.671875 111.765625 439.828125 112.191406 C 437.984375 112.625 436.265625 113.265625 434.695312 114.121094 L 434.695312 106.519531 C 436.828125 105.996094 438.980469 105.585938 441.148438 105.320312 C 443.316406 105.054688 445.460938 104.910156 447.605469 104.910156 C 453.238281 104.910156 457.308594 106.027344 459.792969 108.25 C 462.300781 110.484375 463.5625 114.097656 463.5625 119.101562 Z M 463.5625 119.101562 " fill-opacity="1" fill-rule="nonzero"/><path fill="#144255" d="M 472.484375 124.773438 L 472.484375 105.679688 L 482.554688 105.679688 L 482.554688 108.816406 C 482.554688 110.5 482.53125 112.632812 482.515625 115.203125 C 482.480469 117.761719 482.472656 119.453125 482.472656 120.308594 C 482.472656 122.832031 482.53125 124.640625 482.671875 125.738281 C 482.804688 126.839844 483.027344 127.644531 483.351562 128.144531 C 483.75 128.785156 484.273438 129.304688 484.914062 129.675781 C 485.578125 130.027344 486.34375 130.195312 487.199219 130.195312 C 489.285156 130.195312 490.914062 129.394531 492.09375 127.789062 C 493.296875 126.179688 493.902344 123.957031 493.902344 121.117188 L 493.902344 105.679688 L 503.882812 105.679688 L 503.882812 136.949219 L 493.902344 136.949219 L 493.902344 132.410156 C 492.398438 134.257812 490.8125 135.613281 489.125 136.464844 C 487.441406 137.320312 485.578125 137.753906 483.550781 137.753906 C 479.945312 137.753906 477.1875 136.65625 475.292969 134.457031 C 473.417969 132.234375 472.484375 129.011719 472.484375 124.773438 Z M 472.484375 124.773438 " fill-opacity="1" fill-rule="nonzero"/><path fill="#144255" d="M 513.484375 93.503906 L 523.460938 93.503906 L 523.460938 136.949219 L 513.484375 136.949219 Z M 513.484375 93.503906 " fill-opacity="1" fill-rule="nonzero"/><path fill="#144255" d="M 543.917969 96.792969 L 543.917969 105.679688 L 554.21875 105.679688 L 554.21875 112.832031 L 543.917969 112.832031 L 543.917969 126.097656 C 543.917969 127.546875 544.207031 128.527344 544.796875 129.027344 C 545.378906 129.542969 546.535156 129.792969 548.246094 129.792969 L 553.335938 129.792969 L 553.335938 136.949219 L 544.796875 136.949219 C 540.867188 136.949219 538.066406 136.140625 536.414062 134.5 C 534.777344 132.84375 533.972656 130.035156 533.972656 126.097656 L 533.972656 112.832031 L 528.996094 112.832031 L 528.996094 105.679688 L 533.972656 105.679688 L 533.972656 96.792969 Z M 543.917969 96.792969 " fill-opacity="1" fill-rule="nonzero"/><path fill="#144255" d="M 591.34375 103.386719 L 591.34375 128.828125 L 595.199219 128.828125 C 599.578125 128.828125 602.933594 127.746094 605.261719 125.570312 C 607.585938 123.382812 608.75 120.210938 608.75 116.046875 C 608.75 111.933594 607.585938 108.792969 605.261719 106.644531 C 602.960938 104.46875 599.613281 103.386719 595.199219 103.386719 Z M 580.644531 95.269531 L 591.953125 95.269531 C 598.257812 95.269531 602.960938 95.734375 606.066406 96.632812 C 609.164062 97.515625 611.816406 99.050781 614.042969 101.214844 C 615.988281 103.097656 617.433594 105.269531 618.378906 107.726562 C 619.335938 110.167969 619.816406 112.949219 619.816406 116.046875 C 619.816406 119.210938 619.335938 122.023438 618.378906 124.488281 C 617.433594 126.964844 615.988281 129.128906 614.042969 131 C 611.800781 133.175781 609.117188 134.714844 605.984375 135.625 C 602.875 136.507812 598.207031 136.949219 591.953125 136.949219 L 580.644531 136.949219 Z M 580.644531 95.269531 " fill-opacity="1" fill-rule="nonzero"/><path fill="#144255" d="M 642.414062 112.074219 C 640.1875 112.074219 638.507812 112.871094 637.363281 114.480469 C 636.207031 116.070312 635.644531 118.359375 635.644531 121.359375 C 635.644531 124.332031 636.207031 126.621094 637.363281 128.230469 C 638.507812 129.820312 640.1875 130.601562 642.414062 130.601562 C 644.597656 130.601562 646.277344 129.820312 647.429688 128.230469 C 648.570312 126.621094 649.152344 124.332031 649.152344 121.359375 C 649.152344 118.359375 648.570312 116.070312 647.429688 114.480469 C 646.277344 112.871094 644.597656 112.074219 642.414062 112.074219 Z M 642.414062 104.910156 C 647.789062 104.910156 651.984375 106.386719 655.007812 109.300781 C 658.023438 112.191406 659.535156 116.210938 659.535156 121.359375 C 659.535156 126.480469 658.023438 130.503906 655.007812 133.417969 C 651.984375 136.304688 647.789062 137.753906 642.414062 137.753906 C 637.046875 137.753906 632.835938 136.304688 629.785156 133.417969 C 626.738281 130.503906 625.214844 126.480469 625.214844 121.359375 C 625.214844 116.210938 626.738281 112.191406 629.785156 109.300781 C 632.835938 106.386719 637.046875 104.910156 642.414062 104.910156 Z M 642.414062 104.910156 " fill-opacity="1" fill-rule="nonzero"/><path fill="#144255" d="M 692.011719 106.644531 L 692.011719 114.804688 C 690.648438 113.871094 689.285156 113.179688 687.921875 112.757812 C 686.5625 112.296875 685.140625 112.074219 683.667969 112.074219 C 680.886719 112.074219 678.71875 112.898438 677.179688 114.523438 C 675.628906 116.164062 674.855469 118.445312 674.855469 121.359375 C 674.855469 124.28125 675.628906 126.5625 677.179688 128.1875 C 678.71875 129.792969 680.886719 130.601562 683.667969 130.601562 C 685.214844 130.601562 686.695312 130.378906 688.082031 129.917969 C 689.5 129.460938 690.816406 128.769531 692.011719 127.828125 L 692.011719 136.023438 C 690.433594 136.613281 688.84375 137.039062 687.242188 137.3125 C 685.640625 137.605469 684.035156 137.753906 682.433594 137.753906 C 676.792969 137.753906 672.378906 136.304688 669.199219 133.417969 C 666.007812 130.519531 664.429688 126.496094 664.429688 121.359375 C 664.429688 116.1875 666.007812 112.148438 669.199219 109.257812 C 672.378906 106.359375 676.792969 104.910156 682.433594 104.910156 C 684.050781 104.910156 685.65625 105.070312 687.242188 105.363281 C 688.84375 105.660156 690.433594 106.078125 692.011719 106.644531 Z M 692.011719 106.644531 " fill-opacity="1" fill-rule="nonzero"/><path fill="#144255" d="M 725.007812 106.644531 L 725.007812 114.238281 C 722.859375 113.355469 720.796875 112.691406 718.785156 112.230469 C 716.808594 111.78125 714.941406 111.550781 713.179688 111.550781 C 711.269531 111.550781 709.855469 111.789062 708.925781 112.273438 C 708.011719 112.757812 707.5625 113.496094 707.5625 114.480469 C 707.5625 115.289062 707.902344 115.914062 708.609375 116.328125 C 709.324219 116.761719 710.578125 117.070312 712.375 117.253906 L 714.144531 117.496094 C 719.242188 118.167969 722.683594 119.25 724.445312 120.75 C 726.207031 122.234375 727.09375 124.554688 727.09375 127.746094 C 727.09375 131.066406 725.855469 133.574219 723.40625 135.265625 C 720.964844 136.929688 717.308594 137.753906 712.414062 137.753906 C 710.347656 137.753906 708.210938 137.589844 706 137.273438 C 703.808594 136.949219 701.554688 136.464844 699.261719 135.824219 L 699.261719 128.230469 C 701.242188 129.195312 703.277344 129.917969 705.363281 130.402344 C 707.445312 130.875 709.566406 131.117188 711.734375 131.117188 C 713.675781 131.117188 715.148438 130.859375 716.144531 130.320312 C 717.125 129.753906 717.632812 128.953125 717.632812 127.902344 C 717.632812 127.019531 717.273438 126.371094 716.585938 125.9375 C 715.914062 125.480469 714.558594 125.132812 712.539062 124.890625 L 710.769531 124.648438 C 706.332031 124.089844 703.210938 123.066406 701.433594 121.558594 C 699.664062 120.058594 698.78125 117.769531 698.78125 114.679688 C 698.78125 111.390625 699.902344 108.933594 702.144531 107.328125 C 704.414062 105.71875 707.902344 104.910156 712.613281 104.910156 C 714.433594 104.910156 716.351562 105.070312 718.386719 105.363281 C 720.414062 105.628906 722.617188 106.0625 725.007812 106.644531 Z M 725.007812 106.644531 " fill-opacity="1" fill-rule="nonzero"/><path fill="#24a7b8" d="M 277.171875 166.011719 L 277.171875 168.425781 C 276.390625 167.699219 275.566406 167.167969 274.679688 166.816406 C 273.824219 166.476562 272.917969 166.292969 271.953125 166.292969 C 270 166.292969 268.515625 166.882812 267.5 168.058594 C 266.476562 169.25 265.980469 170.957031 265.980469 173.203125 C 265.980469 175.4375 266.476562 177.136719 267.5 178.308594 C 268.515625 179.5 270 180.082031 271.953125 180.082031 C 272.917969 180.082031 273.824219 179.910156 274.679688 179.558594 C 275.566406 179.21875 276.390625 178.675781 277.171875 177.953125 L 277.171875 180.359375 C 276.363281 180.898438 275.5 181.308594 274.601562 181.566406 C 273.722656 181.824219 272.777344 181.964844 271.796875 181.964844 C 269.246094 181.964844 267.234375 181.191406 265.738281 179.632812 C 264.269531 178.058594 263.539062 175.917969 263.539062 173.203125 C 263.539062 170.472656 264.269531 168.332031 265.738281 166.777344 C 267.234375 165.195312 269.246094 164.402344 271.796875 164.402344 C 272.808594 164.402344 273.757812 164.542969 274.644531 164.800781 C 275.542969 165.078125 276.390625 165.476562 277.171875 166.011719 Z M 277.171875 166.011719 " fill-opacity="1" fill-rule="nonzero"/><path fill="#24a7b8" d="M 286.359375 175.253906 C 284.679688 175.253906 283.519531 175.453125 282.878906 175.863281 C 282.230469 176.246094 281.914062 176.894531 281.914062 177.828125 C 281.914062 178.550781 282.15625 179.140625 282.636719 179.601562 C 283.109375 180.023438 283.765625 180.242188 284.597656 180.242188 C 285.769531 180.242188 286.699219 179.824219 287.40625 178.992188 C 288.09375 178.167969 288.445312 177.085938 288.445312 175.738281 L 288.445312 175.253906 Z M 290.53125 174.414062 L 290.53125 181.648438 L 288.445312 181.648438 L 288.445312 179.71875 C 287.972656 180.5 287.363281 181.074219 286.640625 181.449219 C 285.945312 181.789062 285.089844 181.964844 284.074219 181.964844 C 282.761719 181.964844 281.722656 181.605469 280.949219 180.882812 C 280.195312 180.160156 279.828125 179.183594 279.828125 177.953125 C 279.828125 176.535156 280.285156 175.453125 281.234375 174.738281 C 282.1875 173.988281 283.617188 173.605469 285.519531 173.605469 L 288.445312 173.605469 L 288.445312 173.40625 C 288.445312 172.472656 288.128906 171.738281 287.488281 171.199219 C 286.867188 170.664062 285.984375 170.390625 284.839844 170.390625 C 284.117188 170.390625 283.402344 170.488281 282.710938 170.671875 C 282.039062 170.832031 281.390625 171.097656 280.75 171.441406 L 280.75 169.507812 C 281.492188 169.214844 282.230469 169.007812 282.953125 168.867188 C 283.675781 168.707031 284.363281 168.625 285.039062 168.625 C 286.882812 168.625 288.253906 169.109375 289.167969 170.074219 C 290.074219 171.015625 290.53125 172.464844 290.53125 174.414062 Z M 290.53125 174.414062 " fill-opacity="1" fill-rule="nonzero"/><path fill="#24a7b8" d="M 296.828125 179.757812 L 296.828125 186.46875 L 294.699219 186.46875 L 294.699219 168.949219 L 296.828125 168.949219 L 296.828125 170.875 C 297.25 170.132812 297.796875 169.566406 298.472656 169.183594 C 299.128906 168.816406 299.933594 168.625 300.871094 168.625 C 302.402344 168.625 303.640625 169.25 304.601562 170.472656 C 305.566406 171.707031 306.046875 173.3125 306.046875 175.296875 C 306.046875 177.300781 305.566406 178.933594 304.601562 180.160156 C 303.640625 181.367188 302.402344 181.964844 300.871094 181.964844 C 299.933594 181.964844 299.128906 181.789062 298.472656 181.449219 C 297.796875 181.074219 297.25 180.507812 296.828125 179.757812 Z M 303.878906 175.296875 C 303.878906 173.769531 303.5625 172.582031 302.925781 171.722656 C 302.300781 170.832031 301.445312 170.390625 300.359375 170.390625 C 299.253906 170.390625 298.386719 170.832031 297.75 171.722656 C 297.125 172.582031 296.828125 173.769531 296.828125 175.296875 C 296.828125 176.851562 297.125 178.066406 297.75 178.949219 C 298.386719 179.816406 299.253906 180.242188 300.359375 180.242188 C 301.445312 180.242188 302.300781 179.816406 302.925781 178.949219 C 303.5625 178.066406 303.878906 176.851562 303.878906 175.296875 Z M 303.878906 175.296875 " fill-opacity="1" fill-rule="nonzero"/><path fill="#24a7b8" d="M 311.566406 165.328125 L 311.566406 168.949219 L 315.859375 168.949219 L 315.859375 170.558594 L 311.566406 170.558594 L 311.566406 177.46875 C 311.566406 178.507812 311.699219 179.183594 311.972656 179.476562 C 312.261719 179.773438 312.828125 179.917969 313.691406 179.917969 L 315.859375 179.917969 L 315.859375 181.648438 L 313.691406 181.648438 C 312.089844 181.648438 310.976562 181.359375 310.367188 180.765625 C 309.769531 180.148438 309.480469 179.050781 309.480469 177.46875 L 309.480469 170.558594 L 307.960938 170.558594 L 307.960938 168.949219 L 309.480469 168.949219 L 309.480469 165.328125 Z M 311.566406 165.328125 " fill-opacity="1" fill-rule="nonzero"/><path fill="#24a7b8" d="M 318.359375 176.621094 L 318.359375 168.949219 L 320.445312 168.949219 L 320.445312 176.542969 C 320.445312 177.75 320.671875 178.660156 321.128906 179.277344 C 321.609375 179.867188 322.316406 180.160156 323.253906 180.160156 C 324.375 180.160156 325.265625 179.800781 325.902344 179.074219 C 326.558594 178.351562 326.910156 177.378906 326.910156 176.136719 L 326.910156 168.949219 L 328.996094 168.949219 L 328.996094 181.648438 L 326.910156 181.648438 L 326.910156 179.675781 C 326.394531 180.457031 325.804688 181.03125 325.140625 181.40625 C 324.464844 181.773438 323.695312 181.964844 322.8125 181.964844 C 321.367188 181.964844 320.253906 181.515625 319.492188 180.601562 C 318.734375 179.699219 318.359375 178.367188 318.359375 176.621094 Z M 318.359375 176.621094 " fill-opacity="1" fill-rule="nonzero"/><path fill="#24a7b8" d="M 340.625 170.875 C 340.382812 170.75 340.109375 170.65625 339.820312 170.589844 C 339.554688 170.539062 339.261719 170.515625 338.9375 170.515625 C 337.757812 170.515625 336.855469 170.90625 336.214844 171.679688 C 335.589844 172.429688 335.292969 173.519531 335.292969 174.9375 L 335.292969 181.648438 L 333.164062 181.648438 L 333.164062 168.949219 L 335.292969 168.949219 L 335.292969 170.914062 C 335.707031 170.140625 336.273438 169.566406 336.96875 169.183594 C 337.691406 168.816406 338.546875 168.625 339.535156 168.625 C 339.671875 168.625 339.820312 168.640625 339.976562 168.667969 C 340.160156 168.691406 340.359375 168.726562 340.582031 168.742188 Z M 340.625 170.875 " fill-opacity="1" fill-rule="nonzero"/><path fill="#24a7b8" d="M 353.121094 174.769531 L 353.121094 175.777344 L 343.542969 175.777344 C 343.617188 177.226562 344.039062 178.335938 344.820312 179.074219 C 345.59375 179.824219 346.683594 180.199219 348.070312 180.199219 C 348.875 180.199219 349.648438 180.109375 350.394531 179.917969 C 351.132812 179.707031 351.890625 179.417969 352.636719 179.035156 L 352.636719 181.007812 C 351.890625 181.324219 351.117188 181.566406 350.320312 181.722656 C 349.53125 181.890625 348.75 181.964844 347.953125 181.964844 C 345.917969 181.964844 344.3125 181.382812 343.144531 180.199219 C 341.953125 179.027344 341.375 177.425781 341.375 175.421875 C 341.375 173.328125 341.9375 171.679688 343.058594 170.472656 C 344.179688 169.25 345.683594 168.625 347.585938 168.625 C 349.289062 168.625 350.644531 169.175781 351.640625 170.273438 C 352.621094 171.382812 353.121094 172.871094 353.121094 174.769531 Z M 351.035156 174.171875 C 351.011719 173.023438 350.6875 172.113281 350.078125 171.441406 C 349.457031 170.75 348.632812 170.390625 347.585938 170.390625 C 346.441406 170.390625 345.519531 170.730469 344.820312 171.398438 C 344.121094 172.039062 343.722656 172.964844 343.617188 174.171875 Z M 351.035156 174.171875 " fill-opacity="1" fill-rule="nonzero"/><path fill="#24a7b8" d="M 370.847656 166.25 C 369.179688 166.25 367.859375 166.882812 366.878906 168.140625 C 365.914062 169.375 365.433594 171.066406 365.433594 173.203125 C 365.433594 175.328125 365.914062 177.011719 366.878906 178.269531 C 367.859375 179.507812 369.179688 180.117188 370.847656 180.117188 C 372.503906 180.117188 373.816406 179.507812 374.777344 178.269531 C 375.734375 177.011719 376.214844 175.328125 376.214844 173.203125 C 376.214844 171.066406 375.734375 169.375 374.777344 168.140625 C 373.816406 166.882812 372.503906 166.25 370.847656 166.25 Z M 370.847656 164.402344 C 373.191406 164.402344 375.078125 165.210938 376.5 166.816406 C 377.910156 168.398438 378.625 170.53125 378.625 173.203125 C 378.625 175.863281 377.910156 177.992188 376.5 179.601562 C 375.078125 181.183594 373.191406 181.964844 370.847656 181.964844 C 368.457031 181.964844 366.554688 181.183594 365.109375 179.601562 C 363.6875 178.019531 362.988281 175.886719 362.988281 173.203125 C 362.988281 170.53125 363.6875 168.398438 365.109375 166.816406 C 366.554688 165.210938 368.457031 164.402344 370.847656 164.402344 Z M 370.847656 164.402344 " fill-opacity="1" fill-rule="nonzero"/><path fill="#24a7b8" d="M 392.648438 173.972656 L 392.648438 181.648438 L 390.5625 181.648438 L 390.5625 174.046875 C 390.5625 172.847656 390.324219 171.949219 389.839844 171.355469 C 389.375 170.75 388.6875 170.433594 387.753906 170.433594 C 386.632812 170.433594 385.746094 170.796875 385.105469 171.515625 C 384.464844 172.238281 384.140625 173.230469 384.140625 174.453125 L 384.140625 181.648438 L 382.023438 181.648438 L 382.023438 168.949219 L 384.140625 168.949219 L 384.140625 170.914062 C 384.625 170.171875 385.195312 169.609375 385.871094 169.222656 C 386.558594 168.824219 387.347656 168.625 388.238281 168.625 C 389.675781 168.625 390.769531 169.082031 391.519531 169.992188 C 392.265625 170.90625 392.648438 172.230469 392.648438 173.972656 Z M 392.648438 173.972656 " fill-opacity="1" fill-rule="nonzero"/><path fill="#24a7b8" d="M 405.925781 169.425781 L 405.925781 171.398438 C 405.328125 171.054688 404.738281 170.796875 404.15625 170.632812 C 403.566406 170.472656 402.96875 170.390625 402.351562 170.390625 C 401.007812 170.390625 399.96875 170.824219 399.226562 171.679688 C 398.472656 172.539062 398.097656 173.746094 398.097656 175.296875 C 398.097656 176.851562 398.472656 178.058594 399.226562 178.917969 C 399.96875 179.773438 401.007812 180.199219 402.351562 180.199219 C 402.96875 180.199219 403.566406 180.117188 404.15625 179.957031 C 404.738281 179.800781 405.328125 179.558594 405.925781 179.234375 L 405.925781 181.164062 C 405.328125 181.433594 404.726562 181.640625 404.113281 181.765625 C 403.5 181.898438 402.832031 181.964844 402.109375 181.964844 C 400.207031 181.964844 398.703125 181.367188 397.582031 180.160156 C 396.460938 178.949219 395.898438 177.335938 395.898438 175.296875 C 395.898438 173.238281 396.460938 171.613281 397.582031 170.433594 C 398.722656 169.222656 400.285156 168.625 402.269531 168.625 C 402.917969 168.625 403.523438 168.691406 404.113281 168.824219 C 404.726562 168.964844 405.328125 169.167969 405.925781 169.425781 Z M 405.925781 169.425781 " fill-opacity="1" fill-rule="nonzero"/><path fill="#24a7b8" d="M 420.378906 174.769531 L 420.378906 175.777344 L 410.792969 175.777344 C 410.875 177.226562 411.300781 178.335938 412.082031 179.074219 C 412.851562 179.824219 413.933594 180.199219 415.328125 180.199219 C 416.125 180.199219 416.898438 180.109375 417.65625 179.917969 C 418.394531 179.707031 419.152344 179.417969 419.898438 179.035156 L 419.898438 181.007812 C 419.152344 181.324219 418.378906 181.566406 417.570312 181.722656 C 416.789062 181.890625 416.011719 181.964844 415.203125 181.964844 C 413.167969 181.964844 411.566406 181.382812 410.394531 180.199219 C 409.214844 179.027344 408.632812 177.425781 408.632812 175.421875 C 408.632812 173.328125 409.1875 171.679688 410.3125 170.472656 C 411.441406 169.25 412.945312 168.625 414.847656 168.625 C 416.550781 168.625 417.902344 169.175781 418.894531 170.273438 C 419.882812 171.382812 420.378906 172.871094 420.378906 174.769531 Z M 418.292969 174.171875 C 418.261719 173.023438 417.945312 172.113281 417.332031 171.441406 C 416.707031 170.75 415.886719 170.390625 414.847656 170.390625 C 413.691406 170.390625 412.769531 170.730469 412.082031 171.398438 C 411.375 172.039062 410.976562 172.964844 410.875 174.171875 Z M 418.292969 174.171875 " fill-opacity="1" fill-rule="nonzero"/><path fill="#24a7b8" d="M 424.324219 178.75 L 426.6875 178.75 L 426.6875 180.726562 L 424.839844 184.339844 L 423.402344 184.339844 L 424.324219 180.726562 Z M 424.324219 178.75 " fill-opacity="1" fill-rule="nonzero"/><path fill="#24a7b8" d="M 445.460938 166.25 C 443.800781 166.25 442.480469 166.882812 441.5 168.140625 C 440.535156 169.375 440.054688 171.066406 440.054688 173.203125 C 440.054688 175.328125 440.535156 177.011719 441.5 178.269531 C 442.480469 179.507812 443.800781 180.117188 445.460938 180.117188 C 447.113281 180.117188 448.433594 179.507812 449.390625 178.269531 C 450.355469 177.011719 450.835938 175.328125 450.835938 173.203125 C 450.835938 171.066406 450.355469 169.375 449.390625 168.140625 C 448.433594 166.882812 447.113281 166.25 445.460938 166.25 Z M 445.460938 164.402344 C 447.8125 164.402344 449.699219 165.210938 451.117188 166.816406 C 452.53125 168.398438 453.246094 170.53125 453.246094 173.203125 C 453.246094 175.863281 452.53125 177.992188 451.117188 179.601562 C 449.699219 181.183594 447.8125 181.964844 445.460938 181.964844 C 443.078125 181.964844 441.175781 181.183594 439.730469 179.601562 C 438.308594 178.019531 437.601562 175.886719 437.601562 173.203125 C 437.601562 170.53125 438.308594 168.398438 439.730469 166.816406 C 441.175781 165.210938 443.078125 164.402344 445.460938 164.402344 Z M 445.460938 164.402344 " fill-opacity="1" fill-rule="nonzero"/><path fill="#24a7b8" d="M 464.09375 170.875 C 463.855469 170.75 463.582031 170.65625 463.289062 170.589844 C 463.023438 170.539062 462.734375 170.515625 462.410156 170.515625 C 461.230469 170.515625 460.324219 170.90625 459.683594 171.679688 C 459.0625 172.429688 458.761719 173.519531 458.761719 174.9375 L 458.761719 181.648438 L 456.636719 181.648438 L 456.636719 168.949219 L 458.761719 168.949219 L 458.761719 170.914062 C 459.1875 170.140625 459.742188 169.566406 460.449219 169.183594 C 461.171875 168.816406 462.019531 168.625 463.015625 168.625 C 463.140625 168.625 463.289062 168.640625 463.457031 168.667969 C 463.636719 168.691406 463.839844 168.726562 464.054688 168.742188 Z M 464.09375 170.875 " fill-opacity="1" fill-rule="nonzero"/><path fill="#24a7b8" d="M 474.171875 175.136719 C 474.171875 173.636719 473.867188 172.472656 473.25 171.640625 C 472.628906 170.816406 471.761719 170.390625 470.640625 170.390625 C 469.519531 170.390625 468.648438 170.816406 468.042969 171.640625 C 467.417969 172.472656 467.121094 173.636719 467.121094 175.136719 C 467.121094 176.644531 467.417969 177.816406 468.042969 178.675781 C 468.648438 179.507812 469.519531 179.917969 470.640625 179.917969 C 471.761719 179.917969 472.628906 179.507812 473.25 178.675781 C 473.867188 177.816406 474.171875 176.644531 474.171875 175.136719 Z M 476.257812 180.082031 C 476.257812 182.222656 475.777344 183.8125 474.8125 184.863281 C 473.875 185.929688 472.417969 186.46875 470.441406 186.46875 C 469.695312 186.46875 468.996094 186.414062 468.355469 186.3125 C 467.71875 186.195312 467.085938 186.039062 466.472656 185.828125 L 466.472656 183.78125 C 467.085938 184.097656 467.683594 184.339844 468.273438 184.496094 C 468.855469 184.664062 469.480469 184.738281 470.125 184.738281 C 471.488281 184.738281 472.496094 184.378906 473.167969 183.65625 C 473.832031 182.957031 474.171875 181.890625 474.171875 180.441406 L 474.171875 179.390625 C 473.742188 180.148438 473.191406 180.714844 472.527344 181.082031 C 471.855469 181.464844 471.058594 181.648438 470.125 181.648438 C 468.566406 181.648438 467.320312 181.066406 466.355469 179.875 C 465.40625 178.675781 464.949219 177.09375 464.949219 175.136719 C 464.949219 173.1875 465.40625 171.613281 466.355469 170.433594 C 467.320312 169.222656 468.566406 168.625 470.125 168.625 C 471.058594 168.625 471.855469 168.816406 472.527344 169.183594 C 473.191406 169.566406 473.742188 170.132812 474.171875 170.875 L 474.171875 168.949219 L 476.257812 168.949219 Z M 476.257812 180.082031 " fill-opacity="1" fill-rule="nonzero"/><path fill="#24a7b8" d="M 486.308594 175.253906 C 484.625 175.253906 483.460938 175.453125 482.820312 175.863281 C 482.179688 176.246094 481.859375 176.894531 481.859375 177.828125 C 481.859375 178.550781 482.097656 179.140625 482.582031 179.601562 C 483.0625 180.023438 483.710938 180.242188 484.539062 180.242188 C 485.71875 180.242188 486.652344 179.824219 487.347656 178.992188 C 488.046875 178.167969 488.394531 177.085938 488.394531 175.738281 L 488.394531 175.253906 Z M 490.480469 174.414062 L 490.480469 181.648438 L 488.394531 181.648438 L 488.394531 179.71875 C 487.914062 180.5 487.308594 181.074219 486.59375 181.449219 C 485.886719 181.789062 485.039062 181.964844 484.027344 181.964844 C 482.714844 181.964844 481.667969 181.605469 480.894531 180.882812 C 480.144531 180.160156 479.773438 179.183594 479.773438 177.953125 C 479.773438 176.535156 480.238281 175.453125 481.175781 174.738281 C 482.140625 173.988281 483.5625 173.605469 485.464844 173.605469 L 488.394531 173.605469 L 488.394531 173.40625 C 488.394531 172.472656 488.070312 171.738281 487.433594 171.199219 C 486.808594 170.664062 485.929688 170.390625 484.78125 170.390625 C 484.058594 170.390625 483.351562 170.488281 482.664062 170.671875 C 481.992188 170.832031 481.335938 171.097656 480.695312 171.441406 L 480.695312 169.507812 C 481.433594 169.214844 482.179688 169.007812 482.894531 168.867188 C 483.617188 168.707031 484.316406 168.625 484.980469 168.625 C 486.824219 168.625 488.203125 169.109375 489.117188 170.074219 C 490.015625 171.015625 490.480469 172.464844 490.480469 174.414062 Z M 490.480469 174.414062 " fill-opacity="1" fill-rule="nonzero"/><path fill="#24a7b8" d="M 505.277344 173.972656 L 505.277344 181.648438 L 503.191406 181.648438 L 503.191406 174.046875 C 503.191406 172.847656 502.949219 171.949219 502.46875 171.355469 C 502.003906 170.75 501.3125 170.433594 500.382812 170.433594 C 499.261719 170.433594 498.375 170.796875 497.734375 171.515625 C 497.09375 172.238281 496.769531 173.230469 496.769531 174.453125 L 496.769531 181.648438 L 494.644531 181.648438 L 494.644531 168.949219 L 496.769531 168.949219 L 496.769531 170.914062 C 497.25 170.171875 497.824219 169.609375 498.496094 169.222656 C 499.1875 168.824219 499.976562 168.625 500.867188 168.625 C 502.304688 168.625 503.398438 169.082031 504.148438 169.992188 C 504.894531 170.90625 505.277344 172.230469 505.277344 173.972656 Z M 505.277344 173.972656 " fill-opacity="1" fill-rule="nonzero"/><path fill="#24a7b8" d="M 509.40625 168.949219 L 511.492188 168.949219 L 511.492188 181.648438 L 509.40625 181.648438 Z M 509.40625 164.003906 L 511.492188 164.003906 L 511.492188 166.652344 L 509.40625 166.652344 Z M 509.40625 164.003906 " fill-opacity="1" fill-rule="nonzero"/><path fill="#24a7b8" d="M 514.957031 168.949219 L 524.867188 168.949219 L 524.867188 170.832031 L 517.007812 180 L 524.867188 180 L 524.867188 181.648438 L 514.679688 181.648438 L 514.679688 179.757812 L 522.5 170.589844 L 514.957031 170.589844 Z M 514.957031 168.949219 " fill-opacity="1" fill-rule="nonzero"/><path fill="#24a7b8" d="M 538.867188 174.769531 L 538.867188 175.777344 L 529.277344 175.777344 C 529.359375 177.226562 529.785156 178.335938 530.566406 179.074219 C 531.339844 179.824219 532.417969 180.199219 533.8125 180.199219 C 534.613281 180.199219 535.382812 180.109375 536.140625 179.917969 C 536.878906 179.707031 537.636719 179.417969 538.382812 179.035156 L 538.382812 181.007812 C 537.636719 181.324219 536.863281 181.566406 536.058594 181.722656 C 535.277344 181.890625 534.496094 181.964844 533.691406 181.964844 C 531.652344 181.964844 530.050781 181.382812 528.878906 180.199219 C 527.699219 179.027344 527.117188 177.425781 527.117188 175.421875 C 527.117188 173.328125 527.675781 171.679688 528.804688 170.472656 C 529.925781 169.25 531.429688 168.625 533.332031 168.625 C 535.035156 168.625 536.390625 169.175781 537.378906 170.273438 C 538.367188 171.382812 538.867188 172.871094 538.867188 174.769531 Z M 536.78125 174.171875 C 536.746094 173.023438 536.429688 172.113281 535.816406 171.441406 C 535.191406 170.75 534.371094 170.390625 533.332031 170.390625 C 532.175781 170.390625 531.253906 170.730469 530.566406 171.398438 C 529.859375 172.039062 529.460938 172.964844 529.359375 174.171875 Z M 536.78125 174.171875 " fill-opacity="1" fill-rule="nonzero"/><path fill="#24a7b8" d="M 549.730469 164.726562 L 559.433594 164.726562 L 559.433594 166.652344 L 552.015625 166.652344 L 552.015625 171.640625 L 558.710938 171.640625 L 558.710938 173.570312 L 552.015625 173.570312 L 552.015625 181.648438 L 549.730469 181.648438 Z M 549.730469 164.726562 " fill-opacity="1" fill-rule="nonzero"/><path fill="#24a7b8" d="M 567.035156 170.390625 C 565.914062 170.390625 565.035156 170.832031 564.394531 171.722656 C 563.746094 172.605469 563.429688 173.796875 563.429688 175.296875 C 563.429688 176.828125 563.746094 178.027344 564.394531 178.917969 C 565.035156 179.773438 565.914062 180.199219 567.035156 180.199219 C 568.132812 180.199219 569.007812 179.773438 569.644531 178.917969 C 570.308594 178.027344 570.652344 176.828125 570.652344 175.296875 C 570.652344 173.796875 570.308594 172.605469 569.644531 171.722656 C 569.007812 170.832031 568.132812 170.390625 567.035156 170.390625 Z M 567.035156 168.625 C 568.855469 168.625 570.269531 169.214844 571.289062 170.390625 C 572.328125 171.582031 572.851562 173.203125 572.851562 175.296875 C 572.851562 177.386719 572.328125 179.027344 571.289062 180.199219 C 570.269531 181.382812 568.855469 181.964844 567.035156 181.964844 C 565.21875 181.964844 563.789062 181.382812 562.75 180.199219 C 561.726562 179.027344 561.222656 177.386719 561.222656 175.296875 C 561.222656 173.203125 561.726562 171.582031 562.75 170.390625 C 563.789062 169.214844 565.21875 168.625 567.035156 168.625 Z M 567.035156 168.625 " fill-opacity="1" fill-rule="nonzero"/><path fill="#24a7b8" d="M 583.652344 170.875 C 583.410156 170.75 583.144531 170.65625 582.855469 170.589844 C 582.582031 170.539062 582.289062 170.515625 581.972656 170.515625 C 580.785156 170.515625 579.890625 170.90625 579.242188 171.679688 C 578.625 172.429688 578.320312 173.519531 578.320312 174.9375 L 578.320312 181.648438 L 576.199219 181.648438 L 576.199219 168.949219 L 578.320312 168.949219 L 578.320312 170.914062 C 578.742188 170.140625 579.308594 169.566406 580.003906 169.183594 C 580.726562 168.816406 581.582031 168.625 582.574219 168.625 C 582.707031 168.625 582.855469 168.640625 583.011719 168.667969 C 583.195312 168.691406 583.394531 168.726562 583.609375 168.742188 Z M 583.652344 170.875 " fill-opacity="1" fill-rule="nonzero"/><path fill="#24a7b8" d="M 596.15625 174.769531 L 596.15625 175.777344 L 586.578125 175.777344 C 586.652344 177.226562 587.074219 178.335938 587.855469 179.074219 C 588.628906 179.824219 589.707031 180.199219 591.105469 180.199219 C 591.902344 180.199219 592.675781 180.109375 593.429688 179.917969 C 594.171875 179.707031 594.925781 179.417969 595.675781 179.035156 L 595.675781 181.007812 C 594.925781 181.324219 594.152344 181.566406 593.347656 181.722656 C 592.566406 181.890625 591.785156 181.964844 590.980469 181.964844 C 588.953125 181.964844 587.339844 181.382812 586.167969 180.199219 C 584.988281 179.027344 584.410156 177.425781 584.410156 175.421875 C 584.410156 173.328125 584.964844 171.679688 586.09375 170.472656 C 587.214844 169.25 588.71875 168.625 590.621094 168.625 C 592.324219 168.625 593.679688 169.175781 594.675781 170.273438 C 595.65625 171.382812 596.15625 172.871094 596.15625 174.769531 Z M 594.070312 174.171875 C 594.046875 173.023438 593.722656 172.113281 593.105469 171.441406 C 592.484375 170.75 591.667969 170.390625 590.621094 170.390625 C 589.46875 170.390625 588.546875 170.730469 587.855469 171.398438 C 587.160156 172.039062 586.75 172.964844 586.652344 174.171875 Z M 594.070312 174.171875 " fill-opacity="1" fill-rule="nonzero"/><path fill="#24a7b8" d="M 598.058594 168.949219 L 600.261719 168.949219 L 604.230469 179.601562 L 608.203125 168.949219 L 610.402344 168.949219 L 605.636719 181.648438 L 602.828125 181.648438 Z M 598.058594 168.949219 " fill-opacity="1" fill-rule="nonzero"/><path fill="#24a7b8" d="M 624.113281 174.769531 L 624.113281 175.777344 L 614.53125 175.777344 C 614.605469 177.226562 615.03125 178.335938 615.8125 179.074219 C 616.585938 179.824219 617.664062 180.199219 619.058594 180.199219 C 619.867188 180.199219 620.628906 180.109375 621.386719 179.917969 C 622.125 179.707031 622.882812 179.417969 623.628906 179.035156 L 623.628906 181.007812 C 622.882812 181.324219 622.109375 181.566406 621.304688 181.722656 C 620.523438 181.890625 619.742188 181.964844 618.945312 181.964844 C 616.910156 181.964844 615.304688 181.382812 614.125 180.199219 C 612.945312 179.027344 612.363281 177.425781 612.363281 175.421875 C 612.363281 173.328125 612.929688 171.679688 614.050781 170.472656 C 615.171875 169.25 616.675781 168.625 618.578125 168.625 C 620.28125 168.625 621.636719 169.175781 622.632812 170.273438 C 623.613281 171.382812 624.113281 172.871094 624.113281 174.769531 Z M 622.027344 174.171875 C 622 173.023438 621.675781 172.113281 621.0625 171.441406 C 620.449219 170.75 619.625 170.390625 618.578125 170.390625 C 617.421875 170.390625 616.5 170.730469 615.8125 171.398438 C 615.113281 172.039062 614.707031 172.964844 614.605469 174.171875 Z M 622.027344 174.171875 " fill-opacity="1" fill-rule="nonzero"/><path fill="#24a7b8" d="M 634.871094 170.875 C 634.636719 170.75 634.363281 170.65625 634.074219 170.589844 C 633.796875 170.539062 633.507812 170.515625 633.191406 170.515625 C 632.003906 170.515625 631.105469 170.90625 630.46875 171.679688 C 629.84375 172.429688 629.542969 173.519531 629.542969 174.9375 L 629.542969 181.648438 L 627.417969 181.648438 L 627.417969 168.949219 L 629.542969 168.949219 L 629.542969 170.914062 C 629.960938 170.140625 630.523438 169.566406 631.222656 169.183594 C 631.945312 168.816406 632.800781 168.625 633.789062 168.625 C 633.921875 168.625 634.074219 168.640625 634.230469 168.667969 C 634.414062 168.691406 634.613281 168.726562 634.835938 168.742188 Z M 634.871094 170.875 " fill-opacity="1" fill-rule="nonzero"/><g clip-path="url(#b77dd73fdb)"><path stroke-linecap="butt" transform="matrix(0.908754, 0, 0, 0.911033, 355.003436, -127.801397)" fill="none" stroke-linejoin="miter" d="M 199.243166 11.796175 C 172.940832 33.479142 143.724137 45.862059 105.738564 52.062092 C 67.744394 45.862059 38.527698 33.479142 12.225364 11.796175 L 12.225364 114.006689 C 12.225364 158.911911 44.369318 205.364999 105.738564 234.791576 C 167.099213 205.364999 199.243166 158.911911 199.243166 114.006689 Z M 199.243166 11.796175 " stroke="#24a7b8" stroke-width="9.025" stroke-opacity="1" stroke-miterlimit="4"/></g><g clip-path="url(#5fd124b4ac)"><path stroke-linecap="butt" transform="matrix(0.683891, 0, 0, 0.683613, 11.105575, 55.404836)" fill="none" stroke-linejoin="miter" d="M 199.239051 11.796026 C 172.941897 33.475421 143.720299 45.863647 105.736791 52.057761 C 67.747572 45.863647 38.525974 33.475421 12.22882 11.796026 L 12.22882 114.004605 C 12.22882 158.911925 44.369151 205.367773 105.736791 234.795524 C 167.09872 205.367773 199.239051 158.911925 199.239051 114.004605 Z M 199.239051 11.796026 " stroke="#24a7b8" stroke-width="9.025" stroke-opacity="1" stroke-miterlimit="4"/></g><path fill="#0f2336" d="M 47.691406 80.203125 L 118.890625 80.203125 C 119.824219 80.203125 120.75 80.300781 121.667969 80.492188 C 122.585938 80.683594 123.476562 80.964844 124.339844 81.339844 C 125.203125 81.714844 126.023438 82.171875 126.800781 82.714844 C 127.578125 83.257812 128.300781 83.878906 128.960938 84.570312 C 129.621094 85.261719 130.210938 86.011719 130.730469 86.828125 C 131.25 87.640625 131.6875 88.5 132.046875 89.402344 C 132.40625 90.304688 132.675781 91.238281 132.855469 92.199219 C 133.039062 93.15625 133.128906 94.125 133.128906 95.105469 L 133.128906 184.5 C 133.128906 185.476562 133.039062 186.445312 132.855469 187.40625 C 132.675781 188.363281 132.40625 189.296875 132.046875 190.199219 C 131.6875 191.105469 131.25 191.964844 130.730469 192.777344 C 130.210938 193.589844 129.621094 194.34375 128.960938 195.035156 C 128.300781 195.726562 127.578125 196.34375 126.800781 196.886719 C 126.023438 197.429688 125.203125 197.890625 124.339844 198.265625 C 123.476562 198.636719 122.585938 198.921875 121.667969 199.113281 C 120.75 199.304688 119.824219 199.398438 118.890625 199.398438 L 47.691406 199.398438 C 46.753906 199.398438 45.828125 199.304688 44.914062 199.113281 C 43.996094 198.921875 43.105469 198.636719 42.242188 198.265625 C 41.378906 197.890625 40.554688 197.429688 39.777344 196.886719 C 39 196.34375 38.28125 195.726562 37.621094 195.035156 C 36.960938 194.34375 36.371094 193.589844 35.851562 192.777344 C 35.332031 191.964844 34.890625 191.105469 34.535156 190.199219 C 34.175781 189.296875 33.90625 188.363281 33.722656 187.40625 C 33.542969 186.445312 33.449219 185.476562 33.449219 184.5 L 33.449219 95.105469 C 33.449219 94.125 33.542969 93.15625 33.722656 92.199219 C 33.90625 91.238281 34.175781 90.304688 34.535156 89.402344 C 34.890625 88.5 35.332031 87.640625 35.851562 86.828125 C 36.371094 86.011719 36.960938 85.261719 37.621094 84.570312 C 38.28125 83.878906 39 83.257812 39.777344 82.714844 C 40.554688 82.171875 41.378906 81.714844 42.242188 81.339844 C 43.105469 80.964844 43.996094 80.683594 44.914062 80.492188 C 45.828125 80.300781 46.753906 80.203125 47.691406 80.203125 Z M 47.691406 80.203125 " fill-opacity="1" fill-rule="nonzero"/><path fill="#24a7b8" d="M 108.210938 80.707031 L 133.128906 106.066406 L 108.210938 106.066406 Z M 108.210938 80.707031 " fill-opacity="1" fill-rule="nonzero"/><path fill="#ffffff" d="M 60.148438 112.457031 L 106.429688 112.457031 C 106.78125 112.457031 107.128906 112.492188 107.472656 112.558594 C 107.816406 112.628906 108.152344 112.730469 108.472656 112.863281 C 108.796875 112.996094 109.105469 113.160156 109.398438 113.355469 C 109.6875 113.550781 109.957031 113.773438 110.207031 114.019531 C 110.453125 114.269531 110.675781 114.539062 110.871094 114.828125 C 111.066406 115.121094 111.230469 115.425781 111.363281 115.75 C 111.5 116.074219 111.601562 116.410156 111.667969 116.753906 C 111.738281 117.097656 111.769531 117.445312 111.769531 117.792969 L 111.769531 117.988281 C 111.769531 118.335938 111.738281 118.683594 111.667969 119.027344 C 111.601562 119.371094 111.5 119.707031 111.363281 120.03125 C 111.230469 120.351562 111.066406 120.660156 110.871094 120.953125 C 110.675781 121.242188 110.453125 121.511719 110.207031 121.761719 C 109.957031 122.007812 109.6875 122.230469 109.398438 122.425781 C 109.105469 122.621094 108.796875 122.785156 108.472656 122.917969 C 108.152344 123.050781 107.816406 123.152344 107.472656 123.222656 C 107.128906 123.289062 106.78125 123.324219 106.429688 123.324219 L 60.148438 123.324219 C 59.800781 123.324219 59.453125 123.289062 59.109375 123.222656 C 58.765625 123.152344 58.429688 123.050781 58.105469 122.917969 C 57.78125 122.785156 57.476562 122.621094 57.183594 122.425781 C 56.890625 122.230469 56.621094 122.007812 56.375 121.761719 C 56.125 121.511719 55.90625 121.242188 55.710938 120.953125 C 55.515625 120.660156 55.351562 120.351562 55.214844 120.03125 C 55.082031 119.707031 54.980469 119.371094 54.914062 119.027344 C 54.84375 118.683594 54.808594 118.335938 54.808594 117.988281 L 54.808594 117.792969 C 54.808594 117.445312 54.84375 117.097656 54.914062 116.753906 C 54.980469 116.410156 55.082031 116.074219 55.214844 115.75 C 55.351562 115.425781 55.515625 115.121094 55.710938 114.828125 C 55.90625 114.539062 56.125 114.269531 56.375 114.019531 C 56.621094 113.773438 56.890625 113.550781 57.183594 113.355469 C 57.476562 113.160156 57.78125 112.996094 58.105469 112.863281 C 58.429688 112.730469 58.765625 112.628906 59.109375 112.558594 C 59.453125 112.492188 59.800781 112.457031 60.148438 112.457031 Z M 60.148438 112.457031 " fill-opacity="0.9" fill-rule="nonzero"/><path fill="#ffffff" d="M 60.148438 134.191406 L 106.429688 134.191406 C 106.78125 134.191406 107.128906 134.226562 107.472656 134.292969 C 107.816406 134.363281 108.152344 134.464844 108.472656 134.597656 C 108.796875 134.730469 109.105469 134.898438 109.398438 135.089844 C 109.6875 135.285156 109.957031 135.507812 110.207031 135.753906 C 110.453125 136.003906 110.675781 136.273438 110.871094 136.5625 C 111.066406 136.855469 111.230469 137.164062 111.363281 137.488281 C 111.5 137.8125 111.601562 138.144531 111.667969 138.488281 C 111.738281 138.832031 111.769531 139.179688 111.769531 139.53125 L 111.769531 139.722656 C 111.769531 140.074219 111.738281 140.417969 111.667969 140.761719 C 111.601562 141.105469 111.5 141.441406 111.363281 141.765625 C 111.230469 142.089844 111.066406 142.394531 110.871094 142.6875 C 110.675781 142.980469 110.453125 143.25 110.207031 143.496094 C 109.957031 143.746094 109.6875 143.964844 109.398438 144.160156 C 109.105469 144.355469 108.796875 144.519531 108.472656 144.652344 C 108.152344 144.789062 107.816406 144.890625 107.472656 144.957031 C 107.128906 145.027344 106.78125 145.058594 106.429688 145.058594 L 60.148438 145.058594 C 59.800781 145.058594 59.453125 145.027344 59.109375 144.957031 C 58.765625 144.890625 58.429688 144.789062 58.105469 144.652344 C 57.78125 144.519531 57.476562 144.355469 57.183594 144.160156 C 56.890625 143.964844 56.621094 143.746094 56.375 143.496094 C 56.125 143.25 55.90625 142.980469 55.710938 142.6875 C 55.515625 142.394531 55.351562 142.089844 55.214844 141.765625 C 55.082031 141.441406 54.980469 141.105469 54.914062 140.761719 C 54.84375 140.417969 54.808594 140.074219 54.808594 139.722656 L 54.808594 139.53125 C 54.808594 139.179688 54.84375 138.832031 54.914062 138.488281 C 54.980469 138.144531 55.082031 137.8125 55.214844 137.488281 C 55.351562 137.164062 55.515625 136.855469 55.710938 136.5625 C 55.90625 136.273438 56.125 136.003906 56.375 135.753906 C 56.621094 135.507812 56.890625 135.285156 57.183594 135.089844 C 57.476562 134.898438 57.78125 134.730469 58.105469 134.597656 C 58.429688 134.464844 58.765625 134.363281 59.109375 134.292969 C 59.453125 134.226562 59.800781 134.191406 60.148438 134.191406 Z M 60.148438 134.191406 " fill-opacity="0.9" fill-rule="nonzero"/><path fill="#ffffff" d="M 60.148438 155.925781 L 106.429688 155.925781 C 106.78125 155.925781 107.128906 155.960938 107.472656 156.03125 C 107.816406 156.097656 108.152344 156.199219 108.472656 156.332031 C 108.796875 156.46875 109.105469 156.632812 109.398438 156.828125 C 109.6875 157.023438 109.957031 157.242188 110.207031 157.492188 C 110.453125 157.738281 110.675781 158.007812 110.871094 158.300781 C 111.066406 158.589844 111.230469 158.898438 111.363281 159.222656 C 111.5 159.546875 111.601562 159.878906 111.667969 160.222656 C 111.738281 160.566406 111.769531 160.914062 111.769531 161.265625 L 111.769531 161.457031 C 111.769531 161.808594 111.738281 162.15625 111.667969 162.5 C 111.601562 162.84375 111.5 163.175781 111.363281 163.5 C 111.230469 163.824219 111.066406 164.132812 110.871094 164.421875 C 110.675781 164.714844 110.453125 164.984375 110.207031 165.230469 C 109.957031 165.480469 109.6875 165.699219 109.398438 165.894531 C 109.105469 166.089844 108.796875 166.253906 108.472656 166.390625 C 108.152344 166.523438 107.816406 166.625 107.472656 166.691406 C 107.128906 166.761719 106.78125 166.796875 106.429688 166.796875 L 60.148438 166.796875 C 59.800781 166.796875 59.453125 166.761719 59.109375 166.691406 C 58.765625 166.625 58.429688 166.523438 58.105469 166.390625 C 57.78125 166.253906 57.476562 166.089844 57.183594 165.894531 C 56.890625 165.699219 56.621094 165.480469 56.375 165.230469 C 56.125 164.984375 55.90625 164.714844 55.710938 164.421875 C 55.515625 164.132812 55.351562 163.824219 55.214844 163.5 C 55.082031 163.175781 54.980469 162.84375 54.914062 162.5 C 54.84375 162.15625 54.808594 161.808594 54.808594 161.457031 L 54.808594 161.265625 C 54.808594 160.914062 54.84375 160.566406 54.914062 160.222656 C 54.980469 159.878906 55.082031 159.546875 55.214844 159.222656 C 55.351562 158.898438 55.515625 158.589844 55.710938 158.300781 C 55.90625 158.007812 56.125 157.738281 56.375 157.492188 C 56.621094 157.242188 56.890625 157.023438 57.183594 156.828125 C 57.476562 156.632812 57.78125 156.46875 58.105469 156.332031 C 58.429688 156.199219 58.765625 156.097656 59.109375 156.03125 C 59.453125 155.960938 59.800781 155.925781 60.148438 155.925781 Z M 60.148438 155.925781 " fill-opacity="0.9" fill-rule="nonzero"/><path fill="#2ecf9a" d="M 129.570312 174.039062 C 129.570312 174.753906 129.535156 175.460938 129.46875 176.171875 C 129.398438 176.878906 129.296875 177.582031 129.160156 178.28125 C 129.023438 178.980469 128.855469 179.667969 128.652344 180.351562 C 128.449219 181.03125 128.210938 181.699219 127.945312 182.359375 C 127.675781 183.015625 127.378906 183.660156 127.046875 184.285156 C 126.71875 184.914062 126.359375 185.523438 125.96875 186.117188 C 125.582031 186.707031 125.164062 187.277344 124.722656 187.828125 C 124.277344 188.378906 123.808594 188.90625 123.3125 189.410156 C 122.820312 189.914062 122.300781 190.390625 121.761719 190.84375 C 121.21875 191.292969 120.660156 191.71875 120.078125 192.113281 C 119.496094 192.507812 118.894531 192.875 118.28125 193.210938 C 117.664062 193.542969 117.03125 193.847656 116.382812 194.121094 C 115.738281 194.394531 115.082031 194.632812 114.410156 194.839844 C 113.742188 195.046875 113.0625 195.21875 112.378906 195.359375 C 111.691406 195.496094 111 195.601562 110.304688 195.671875 C 109.609375 195.742188 108.910156 195.777344 108.210938 195.777344 C 107.511719 195.777344 106.8125 195.742188 106.117188 195.671875 C 105.421875 195.601562 104.730469 195.496094 104.042969 195.359375 C 103.355469 195.21875 102.679688 195.046875 102.011719 194.839844 C 101.339844 194.632812 100.683594 194.394531 100.035156 194.121094 C 99.390625 193.847656 98.757812 193.542969 98.140625 193.210938 C 97.523438 192.875 96.925781 192.507812 96.34375 192.113281 C 95.761719 191.71875 95.199219 191.292969 94.660156 190.84375 C 94.117188 190.390625 93.601562 189.914062 93.105469 189.410156 C 92.613281 188.90625 92.144531 188.378906 91.699219 187.828125 C 91.253906 187.277344 90.839844 186.707031 90.449219 186.117188 C 90.0625 185.523438 89.703125 184.914062 89.371094 184.285156 C 89.042969 183.660156 88.746094 183.015625 88.476562 182.359375 C 88.207031 181.699219 87.972656 181.03125 87.769531 180.351562 C 87.566406 179.667969 87.398438 178.980469 87.261719 178.28125 C 87.125 177.582031 87.023438 176.878906 86.953125 176.171875 C 86.886719 175.460938 86.851562 174.753906 86.851562 174.039062 C 86.851562 173.328125 86.886719 172.617188 86.953125 171.910156 C 87.023438 171.203125 87.125 170.5 87.261719 169.800781 C 87.398438 169.101562 87.566406 168.410156 87.769531 167.730469 C 87.972656 167.050781 88.207031 166.378906 88.476562 165.722656 C 88.746094 165.066406 89.042969 164.421875 89.371094 163.792969 C 89.703125 163.167969 90.0625 162.558594 90.449219 161.964844 C 90.839844 161.371094 91.253906 160.800781 91.699219 160.25 C 92.144531 159.703125 92.613281 159.175781 93.105469 158.671875 C 93.601562 158.167969 94.117188 157.691406 94.660156 157.238281 C 95.199219 156.785156 95.761719 156.363281 96.34375 155.96875 C 96.925781 155.574219 97.523438 155.207031 98.140625 154.871094 C 98.757812 154.535156 99.390625 154.230469 100.035156 153.960938 C 100.683594 153.6875 101.339844 153.449219 102.011719 153.242188 C 102.679688 153.035156 103.355469 152.863281 104.042969 152.722656 C 104.730469 152.582031 105.421875 152.480469 106.117188 152.410156 C 106.8125 152.339844 107.511719 152.304688 108.210938 152.304688 C 108.910156 152.304688 109.609375 152.339844 110.304688 152.410156 C 111 152.480469 111.691406 152.582031 112.378906 152.722656 C 113.0625 152.863281 113.742188 153.035156 114.410156 153.242188 C 115.082031 153.449219 115.738281 153.6875 116.382812 153.960938 C 117.03125 154.230469 117.664062 154.535156 118.28125 154.871094 C 118.894531 155.207031 119.496094 155.574219 120.078125 155.96875 C 120.660156 156.363281 121.21875 156.785156 121.761719 157.238281 C 122.300781 157.691406 122.820312 158.167969 123.3125 158.671875 C 123.808594 159.175781 124.277344 159.703125 124.722656 160.25 C 125.164062 160.800781 125.582031 161.371094 125.96875 161.964844 C 126.359375 162.558594 126.71875 163.167969 127.046875 163.792969 C 127.378906 164.421875 127.675781 165.066406 127.945312 165.722656 C 128.210938 166.378906 128.449219 167.050781 128.652344 167.730469 C 128.855469 168.410156 129.023438 169.101562 129.160156 169.800781 C 129.296875 170.5 129.398438 171.203125 129.46875 171.910156 C 129.535156 172.617188 129.570312 173.328125 129.570312 174.039062 Z M 129.570312 174.039062 " fill-opacity="1" fill-rule="nonzero"/><g clip-path="url(#046a5b1979)"><path stroke-linecap="butt" transform="matrix(0.683891, 0, 0, 0.683613, 11.105575, 55.404836)" fill="none" stroke-linejoin="miter" d="M 173.221776 173.540089 C 173.221776 174.585774 173.17037 175.620031 173.073269 176.660002 C 172.970456 177.694259 172.821949 178.722801 172.622036 179.74563 C 172.422123 180.768459 172.176515 181.774145 171.879501 182.774117 C 171.582488 183.768375 171.234067 184.745491 170.845665 185.711178 C 170.45155 186.671151 170.017453 187.613982 169.531949 188.528242 C 169.052158 189.448217 168.526672 190.33962 167.955491 191.208168 C 167.390022 192.071001 166.778859 192.905263 166.133425 193.710955 C 165.482279 194.516647 164.796862 195.288054 164.071463 196.025176 C 163.351776 196.762299 162.592105 197.459422 161.803876 198.122261 C 161.009935 198.779385 160.193147 199.402225 159.342088 199.979352 C 158.491029 200.556479 157.611411 201.093606 156.714657 201.585021 C 155.812192 202.070722 154.88688 202.516424 153.93872 202.916413 C 152.996272 203.316402 152.036688 203.664963 151.054258 203.967812 C 150.077539 204.270661 149.083685 204.522082 148.084119 204.727791 C 147.078841 204.927785 146.067851 205.082067 145.05115 205.184921 C 144.034449 205.287775 143.012035 205.339202 141.989622 205.339202 C 140.967209 205.339202 139.944796 205.287775 138.928094 205.184921 C 137.911393 205.082067 136.900403 204.927785 135.895126 204.727791 C 134.889848 204.522082 133.901705 204.270661 132.924987 203.967812 C 131.942556 203.664963 130.982973 203.316402 130.034813 202.916413 C 129.092365 202.516424 128.167052 202.070722 127.264587 201.585021 C 126.362122 201.093606 125.488216 200.556479 124.637156 199.979352 C 123.786097 199.402225 122.963597 198.779385 122.175368 198.122261 C 121.381427 197.459422 120.627469 196.762299 119.90207 196.025176 C 119.182382 195.288054 118.496965 194.516647 117.845819 193.710955 C 117.194674 192.905263 116.589222 192.071001 116.018042 191.208168 C 115.452573 190.33962 114.927087 189.448217 114.441583 188.528242 C 113.961792 187.613982 113.527694 186.671151 113.13358 185.711178 C 112.739465 184.745491 112.396757 183.768375 112.099743 182.774117 C 111.802729 181.774145 111.557121 180.768459 111.357208 179.74563 C 111.157295 178.722801 111.008788 177.694259 110.905976 176.660002 C 110.808875 175.620031 110.757469 174.585774 110.757469 173.540089 C 110.757469 172.500118 110.808875 171.460147 110.905976 170.42589 C 111.008788 169.391633 111.157295 168.36309 111.357208 167.340262 C 111.557121 166.317433 111.802729 165.306033 112.099743 164.311775 C 112.396757 163.317517 112.739465 162.334687 113.13358 161.374714 C 113.527694 160.41474 113.961792 159.471909 114.441583 158.551935 C 114.927087 157.637675 115.452573 156.746271 116.018042 155.877724 C 116.589222 155.009177 117.194674 154.174914 117.845819 153.369222 C 118.496965 152.569245 119.182382 151.797838 119.90207 151.060715 C 120.627469 150.323593 121.381427 149.62647 122.175368 148.963631 C 122.963597 148.300792 123.786097 147.683667 124.637156 147.10654 C 125.488216 146.529413 126.362122 145.992285 127.264587 145.50087 C 128.167052 145.009455 129.092365 144.563754 130.034813 144.169479 C 130.982973 143.76949 131.942556 143.420928 132.924987 143.11808 C 133.901705 142.815231 134.889848 142.563809 135.895126 142.358101 C 136.900403 142.152392 137.911393 142.003825 138.928094 141.900971 C 139.944796 141.798116 140.967209 141.746689 141.989622 141.746689 C 143.012035 141.746689 144.034449 141.798116 145.05115 141.900971 C 146.067851 142.003825 147.078841 142.152392 148.084119 142.358101 C 149.083685 142.563809 150.077539 142.815231 151.054258 143.11808 C 152.036688 143.420928 152.996272 143.76949 153.93872 144.169479 C 154.88688 144.563754 155.812192 145.009455 156.714657 145.50087 C 157.611411 145.992285 158.491029 146.529413 159.342088 147.10654 C 160.193147 147.683667 161.009935 148.300792 161.803876 148.963631 C 162.592105 149.62647 163.351776 150.323593 164.071463 151.060715 C 164.796862 151.797838 165.482279 152.569245 166.133425 153.369222 C 166.778859 154.174914 167.390022 155.009177 167.955491 155.877724 C 168.526672 156.746271 169.052158 157.637675 169.531949 158.551935 C 170.017453 159.471909 170.45155 160.41474 170.845665 161.374714 C 171.234067 162.334687 171.582488 163.317517 171.879501 164.311775 C 172.176515 165.306033 172.422123 166.317433 172.622036 167.340262 C 172.821949 168.36309 172.970456 169.391633 173.073269 170.42589 C 173.17037 171.460147 173.221776 172.500118 173.221776 173.540089 Z M 173.221776 173.540089 " stroke="#ffffff" stroke-width="7.878" stroke-opacity="1" stroke-miterlimit="4"/></g><path stroke-linecap="round" transform="matrix(0.683891, 0, 0, 0.683613, 11.105575, 55.404836)" fill="none" stroke-linejoin="round" d="M 128.978129 173.540089 L 139.385039 184.139793 L 157.605699 162.946098 " stroke="#ffffff" stroke-width="7.878" stroke-opacity="1" stroke-miterlimit="4"/></svg>