<svg xmlns="http://www.w3.org/2000/svg" xmlns:xlink="http://www.w3.org/1999/xlink" width="1000" zoomAndPan="magnify" viewBox="0 0 750 281.25" height="375" preserveAspectRatio="xMidYMid meet" version="1.0"><defs><clipPath id="2b21e40ebf"><path d="M 351.988281 91.082031 L 542.828125 91.082031 L 542.828125 98.316406 L 351.988281 98.316406 Z M 351.988281 91.082031 " clip-rule="nonzero"/></clipPath><clipPath id="19fa4ad8d3"><path d="M 11.105469 55.273438 L 154.722656 55.273438 L 154.722656 225.070312 L 11.105469 225.070312 Z M 11.105469 55.273438 " clip-rule="nonzero"/></clipPath><clipPath id="1950b1f072"><path d="M 56 121 L 154.722656 121 L 154.722656 225.070312 L 56 225.070312 Z M 56 121 " clip-rule="nonzero"/></clipPath></defs><path fill="#ffffff" d="M 198.511719 96.550781 L 198.511719 105.394531 C 196.234375 104.378906 194 103.621094 191.816406 103.105469 C 189.648438 102.570312 187.605469 102.304688 185.675781 102.304688 C 183.109375 102.304688 181.207031 102.664062 179.984375 103.386719 C 178.757812 104.085938 178.140625 105.179688 178.140625 106.644531 C 178.140625 107.769531 178.546875 108.644531 179.386719 109.257812 C 180.203125 109.882812 181.707031 110.40625 183.875 110.867188 L 188.441406 111.789062 C 193.070312 112.730469 196.351562 114.148438 198.3125 116.046875 C 200.257812 117.925781 201.238281 120.617188 201.238281 124.132812 C 201.238281 128.738281 199.875 132.167969 197.148438 134.414062 C 194.441406 136.648438 190.289062 137.753906 184.679688 137.753906 C 182.054688 137.753906 179.40625 137.488281 176.738281 136.988281 C 174.085938 136.507812 171.421875 135.773438 168.753906 134.78125 L 168.753906 125.695312 C 171.421875 127.121094 173.988281 128.1875 176.453125 128.910156 C 178.9375 129.609375 181.347656 129.953125 183.675781 129.953125 C 186 129.953125 187.777344 129.578125 189.007812 128.785156 C 190.261719 128.019531 190.894531 126.90625 190.894531 125.457031 C 190.894531 124.148438 190.460938 123.140625 189.605469 122.441406 C 188.777344 121.714844 187.089844 121.074219 184.554688 120.507812 L 180.425781 119.625 C 176.253906 118.71875 173.207031 117.285156 171.289062 115.328125 C 169.359375 113.371094 168.398438 110.742188 168.398438 107.445312 C 168.398438 103.296875 169.734375 100.117188 172.410156 97.882812 C 175.074219 95.625 178.921875 94.503906 183.957031 94.503906 C 186.25 94.503906 188.609375 94.6875 191.011719 95.027344 C 193.4375 95.378906 195.945312 95.894531 198.511719 96.550781 Z M 198.511719 96.550781 " fill-opacity="1" fill-rule="nonzero"/><path fill="#ffffff" d="M 241.378906 121.234375 L 241.378906 124.089844 L 218.042969 124.089844 C 218.285156 126.421875 219.132812 128.179688 220.570312 129.351562 C 222.015625 130.535156 224.042969 131.117188 226.667969 131.117188 C 228.753906 131.117188 230.886719 130.820312 233.082031 130.195312 C 235.300781 129.550781 237.574219 128.613281 239.902344 127.347656 L 239.902344 135.058594 C 237.542969 135.949219 235.175781 136.613281 232.796875 137.074219 C 230.449219 137.523438 228.085938 137.753906 225.746094 137.753906 C 220.105469 137.753906 215.699219 136.324219 212.550781 133.449219 C 209.421875 130.558594 207.859375 126.53125 207.859375 121.359375 C 207.859375 116.238281 209.394531 112.222656 212.46875 109.300781 C 215.542969 106.386719 219.78125 104.910156 225.179688 104.910156 C 230.097656 104.910156 234.027344 106.402344 236.96875 109.375 C 239.910156 112.332031 241.378906 116.277344 241.378906 121.234375 Z M 231.121094 117.894531 C 231.121094 115.996094 230.554688 114.472656 229.433594 113.3125 C 228.328125 112.140625 226.90625 111.550781 225.148438 111.550781 C 223.1875 111.550781 221.617188 112.097656 220.410156 113.199219 C 219.207031 114.296875 218.460938 115.871094 218.167969 117.894531 Z M 231.121094 117.894531 " fill-opacity="1" fill-rule="nonzero"/><path fill="#ffffff" d="M 274.164062 106.644531 L 274.164062 114.804688 C 272.792969 113.871094 271.429688 113.179688 270.066406 112.757812 C 268.703125 112.296875 267.285156 112.074219 265.820312 112.074219 C 263.03125 112.074219 260.871094 112.898438 259.324219 114.523438 C 257.773438 116.164062 257 118.445312 257 121.359375 C 257 124.28125 257.773438 126.5625 259.324219 128.1875 C 260.871094 129.792969 263.03125 130.601562 265.820312 130.601562 C 267.359375 130.601562 268.835938 130.378906 270.234375 129.917969 C 271.644531 129.460938 272.957031 128.769531 274.164062 127.828125 L 274.164062 136.023438 C 272.574219 136.613281 270.988281 137.039062 269.386719 137.3125 C 267.78125 137.605469 266.179688 137.753906 264.574219 137.753906 C 258.933594 137.753906 254.523438 136.304688 251.339844 133.417969 C 248.152344 130.519531 246.574219 126.496094 246.574219 121.359375 C 246.574219 116.1875 248.152344 112.148438 251.339844 109.257812 C 254.523438 106.359375 258.933594 104.910156 264.574219 104.910156 C 266.195312 104.910156 267.808594 105.070312 269.386719 105.363281 C 270.988281 105.660156 272.574219 106.078125 274.164062 106.644531 Z M 274.164062 106.644531 " fill-opacity="1" fill-rule="nonzero"/><path fill="#ffffff" d="M 282.414062 124.773438 L 282.414062 105.679688 L 292.472656 105.679688 L 292.472656 108.816406 C 292.472656 110.5 292.457031 112.632812 292.429688 115.203125 C 292.40625 117.761719 292.398438 119.453125 292.398438 120.308594 C 292.398438 122.832031 292.457031 124.640625 292.597656 125.738281 C 292.722656 126.839844 292.953125 127.644531 293.277344 128.144531 C 293.675781 128.785156 294.199219 129.304688 294.839844 129.675781 C 295.503906 130.027344 296.261719 130.195312 297.125 130.195312 C 299.210938 130.195312 300.839844 129.394531 302.019531 127.789062 C 303.222656 126.179688 303.820312 123.957031 303.820312 121.117188 L 303.820312 105.679688 L 313.808594 105.679688 L 313.808594 136.949219 L 303.820312 136.949219 L 303.820312 132.410156 C 302.316406 134.257812 300.738281 135.613281 299.054688 136.464844 C 297.367188 137.320312 295.503906 137.753906 293.476562 137.753906 C 289.863281 137.753906 287.113281 136.65625 285.21875 134.457031 C 283.34375 132.234375 282.414062 129.011719 282.414062 124.773438 Z M 282.414062 124.773438 " fill-opacity="1" fill-rule="nonzero"/><path fill="#ffffff" d="M 346.582031 114.195312 C 345.699219 113.78125 344.828125 113.464844 343.972656 113.273438 C 343.117188 113.097656 342.253906 112.996094 341.371094 112.996094 C 338.804688 112.996094 336.820312 113.832031 335.433594 115.488281 C 334.070312 117.128906 333.390625 119.46875 333.390625 122.515625 L 333.390625 136.949219 L 323.402344 136.949219 L 323.402344 105.679688 L 333.390625 105.679688 L 333.390625 110.824219 C 334.644531 108.765625 336.097656 107.269531 337.757812 106.320312 C 339.445312 105.386719 341.449219 104.910156 343.773438 104.910156 C 344.097656 104.910156 344.453125 104.9375 344.855469 104.953125 C 345.261719 104.988281 345.816406 105.054688 346.539062 105.152344 Z M 346.582031 114.195312 " fill-opacity="1" fill-rule="nonzero"/><path fill="#ffffff" d="M 382.710938 121.234375 L 382.710938 124.089844 L 359.375 124.089844 C 359.617188 126.421875 360.457031 128.179688 361.902344 129.351562 C 363.339844 130.535156 365.367188 131.117188 367.992188 131.117188 C 370.074219 131.117188 372.210938 130.820312 374.414062 130.195312 C 376.621094 129.550781 378.898438 128.613281 381.226562 127.347656 L 381.226562 135.058594 C 378.875 135.949219 376.507812 136.613281 374.128906 137.074219 C 371.769531 137.523438 369.417969 137.753906 367.070312 137.753906 C 361.425781 137.753906 357.023438 136.324219 353.875 133.449219 C 350.753906 130.558594 349.191406 126.53125 349.191406 121.359375 C 349.191406 116.238281 350.71875 112.222656 353.800781 109.300781 C 356.867188 106.386719 361.105469 104.910156 366.511719 104.910156 C 371.421875 104.910156 375.351562 106.402344 378.300781 109.375 C 381.234375 112.332031 382.710938 116.277344 382.710938 121.234375 Z M 372.445312 117.894531 C 372.445312 115.996094 371.886719 114.472656 370.757812 113.3125 C 369.660156 112.140625 368.230469 111.550781 366.46875 111.550781 C 364.519531 111.550781 362.941406 112.097656 361.734375 113.199219 C 360.539062 114.296875 359.78125 115.871094 359.492188 117.894531 Z M 372.445312 117.894531 " fill-opacity="1" fill-rule="nonzero"/><path fill="#ffffff" d="M 385.734375 95.269531 L 396.519531 95.269531 L 407.542969 126.011719 L 418.578125 95.269531 L 429.359375 95.269531 L 413.964844 136.949219 L 401.128906 136.949219 Z M 385.734375 95.269531 " fill-opacity="1" fill-rule="nonzero"/><path fill="#ffffff" d="M 445.3125 122.882812 C 443.226562 122.882812 441.640625 123.242188 440.574219 123.964844 C 439.539062 124.671875 439.015625 125.695312 439.015625 127.0625 C 439.015625 128.328125 439.429688 129.3125 440.261719 130.035156 C 441.109375 130.761719 442.304688 131.117188 443.824219 131.117188 C 445.691406 131.117188 447.273438 130.460938 448.558594 129.113281 C 449.839844 127.746094 450.488281 126.046875 450.488281 124.007812 L 450.488281 122.882812 Z M 460.546875 119.101562 L 460.546875 136.949219 L 450.488281 136.949219 L 450.488281 132.324219 C 449.140625 134.234375 447.636719 135.613281 445.949219 136.464844 C 444.289062 137.320312 442.261719 137.753906 439.851562 137.753906 C 436.621094 137.753906 433.980469 136.824219 431.960938 134.941406 C 429.949219 133.042969 428.953125 130.585938 428.953125 127.585938 C 428.953125 123.914062 430.199219 121.226562 432.714844 119.5 C 435.257812 117.792969 439.214844 116.9375 444.589844 116.9375 L 450.488281 116.9375 L 450.488281 116.128906 C 450.488281 114.554688 449.855469 113.398438 448.601562 112.671875 C 447.363281 111.933594 445.425781 111.550781 442.785156 111.550781 C 440.640625 111.550781 438.65625 111.765625 436.8125 112.191406 C 434.96875 112.625 433.25 113.265625 431.679688 114.121094 L 431.679688 106.519531 C 433.8125 105.996094 435.964844 105.585938 438.132812 105.320312 C 440.300781 105.054688 442.445312 104.910156 444.589844 104.910156 C 450.222656 104.910156 454.292969 106.027344 456.777344 108.25 C 459.285156 110.484375 460.546875 114.097656 460.546875 119.101562 Z M 460.546875 119.101562 " fill-opacity="1" fill-rule="nonzero"/><path fill="#ffffff" d="M 469.46875 124.773438 L 469.46875 105.679688 L 479.539062 105.679688 L 479.539062 108.816406 C 479.539062 110.5 479.515625 112.632812 479.496094 115.203125 C 479.464844 117.761719 479.457031 119.453125 479.457031 120.308594 C 479.457031 122.832031 479.515625 124.640625 479.65625 125.738281 C 479.789062 126.839844 480.011719 127.644531 480.335938 128.144531 C 480.734375 128.785156 481.257812 129.304688 481.898438 129.675781 C 482.5625 130.027344 483.328125 130.195312 484.183594 130.195312 C 486.269531 130.195312 487.898438 129.394531 489.078125 127.789062 C 490.28125 126.179688 490.886719 123.957031 490.886719 121.117188 L 490.886719 105.679688 L 500.867188 105.679688 L 500.867188 136.949219 L 490.886719 136.949219 L 490.886719 132.410156 C 489.382812 134.257812 487.796875 135.613281 486.109375 136.464844 C 484.425781 137.320312 482.5625 137.753906 480.535156 137.753906 C 476.929688 137.753906 474.171875 136.65625 472.277344 134.457031 C 470.402344 132.234375 469.46875 129.011719 469.46875 124.773438 Z M 469.46875 124.773438 " fill-opacity="1" fill-rule="nonzero"/><path fill="#ffffff" d="M 510.46875 93.503906 L 520.445312 93.503906 L 520.445312 136.949219 L 510.46875 136.949219 Z M 510.46875 93.503906 " fill-opacity="1" fill-rule="nonzero"/><path fill="#ffffff" d="M 540.902344 96.792969 L 540.902344 105.679688 L 551.203125 105.679688 L 551.203125 112.832031 L 540.902344 112.832031 L 540.902344 126.097656 C 540.902344 127.546875 541.191406 128.527344 541.78125 129.027344 C 542.363281 129.542969 543.515625 129.792969 545.230469 129.792969 L 550.320312 129.792969 L 550.320312 136.949219 L 541.78125 136.949219 C 537.851562 136.949219 535.050781 136.140625 533.398438 134.5 C 531.761719 132.84375 530.957031 130.035156 530.957031 126.097656 L 530.957031 112.832031 L 525.980469 112.832031 L 525.980469 105.679688 L 530.957031 105.679688 L 530.957031 96.792969 Z M 540.902344 96.792969 " fill-opacity="1" fill-rule="nonzero"/><path fill="#ffffff" d="M 588.328125 103.386719 L 588.328125 128.828125 L 592.183594 128.828125 C 596.5625 128.828125 599.917969 127.746094 602.246094 125.570312 C 604.570312 123.382812 605.734375 120.210938 605.734375 116.046875 C 605.734375 111.933594 604.570312 108.792969 602.246094 106.644531 C 599.945312 104.46875 596.59375 103.386719 592.183594 103.386719 Z M 577.628906 95.269531 L 588.9375 95.269531 C 595.242188 95.269531 599.945312 95.734375 603.050781 96.632812 C 606.148438 97.515625 608.800781 99.050781 611.027344 101.214844 C 612.96875 103.097656 614.414062 105.269531 615.363281 107.726562 C 616.316406 110.167969 616.800781 112.949219 616.800781 116.046875 C 616.800781 119.210938 616.316406 122.023438 615.363281 124.488281 C 614.414062 126.964844 612.96875 129.128906 611.027344 131 C 608.78125 133.175781 606.101562 134.714844 602.96875 135.625 C 599.859375 136.507812 595.191406 136.949219 588.9375 136.949219 L 577.628906 136.949219 Z M 577.628906 95.269531 " fill-opacity="1" fill-rule="nonzero"/><path fill="#ffffff" d="M 639.398438 112.074219 C 637.171875 112.074219 635.492188 112.871094 634.347656 114.480469 C 633.191406 116.070312 632.625 118.359375 632.625 121.359375 C 632.625 124.332031 633.191406 126.621094 634.347656 128.230469 C 635.492188 129.820312 637.171875 130.601562 639.398438 130.601562 C 641.582031 130.601562 643.261719 129.820312 644.414062 128.230469 C 645.554688 126.621094 646.136719 124.332031 646.136719 121.359375 C 646.136719 118.359375 645.554688 116.070312 644.414062 114.480469 C 643.261719 112.871094 641.582031 112.074219 639.398438 112.074219 Z M 639.398438 104.910156 C 644.773438 104.910156 648.96875 106.386719 651.992188 109.300781 C 655.007812 112.191406 656.519531 116.210938 656.519531 121.359375 C 656.519531 126.480469 655.007812 130.503906 651.992188 133.417969 C 648.96875 136.304688 644.773438 137.753906 639.398438 137.753906 C 634.03125 137.753906 629.820312 136.304688 626.769531 133.417969 C 623.71875 130.503906 622.199219 126.480469 622.199219 121.359375 C 622.199219 116.210938 623.71875 112.191406 626.769531 109.300781 C 629.820312 106.386719 634.03125 104.910156 639.398438 104.910156 Z M 639.398438 104.910156 " fill-opacity="1" fill-rule="nonzero"/><path fill="#ffffff" d="M 688.996094 106.644531 L 688.996094 114.804688 C 687.632812 113.871094 686.269531 113.179688 684.90625 112.757812 C 683.542969 112.296875 682.125 112.074219 680.652344 112.074219 C 677.871094 112.074219 675.703125 112.898438 674.164062 114.523438 C 672.613281 116.164062 671.839844 118.445312 671.839844 121.359375 C 671.839844 124.28125 672.613281 126.5625 674.164062 128.1875 C 675.703125 129.792969 677.871094 130.601562 680.652344 130.601562 C 682.199219 130.601562 683.679688 130.378906 685.066406 129.917969 C 686.484375 129.460938 687.796875 128.769531 688.996094 127.828125 L 688.996094 136.023438 C 687.417969 136.613281 685.828125 137.039062 684.226562 137.3125 C 682.621094 137.605469 681.019531 137.753906 679.414062 137.753906 C 673.773438 137.753906 669.363281 136.304688 666.179688 133.417969 C 662.992188 130.519531 661.414062 126.496094 661.414062 121.359375 C 661.414062 116.1875 662.992188 112.148438 666.179688 109.257812 C 669.363281 106.359375 673.773438 104.910156 679.414062 104.910156 C 681.035156 104.910156 682.640625 105.070312 684.226562 105.363281 C 685.828125 105.660156 687.417969 106.078125 688.996094 106.644531 Z M 688.996094 106.644531 " fill-opacity="1" fill-rule="nonzero"/><path fill="#ffffff" d="M 721.992188 106.644531 L 721.992188 114.238281 C 719.839844 113.355469 717.78125 112.691406 715.769531 112.230469 C 713.792969 111.78125 711.925781 111.550781 710.164062 111.550781 C 708.253906 111.550781 706.839844 111.789062 705.910156 112.273438 C 704.996094 112.757812 704.546875 113.496094 704.546875 114.480469 C 704.546875 115.289062 704.886719 115.914062 705.59375 116.328125 C 706.308594 116.761719 707.5625 117.070312 709.355469 117.253906 L 711.125 117.496094 C 716.226562 118.167969 719.667969 119.25 721.429688 120.75 C 723.191406 122.234375 724.078125 124.554688 724.078125 127.746094 C 724.078125 131.066406 722.839844 133.574219 720.390625 135.265625 C 717.949219 136.929688 714.292969 137.753906 709.398438 137.753906 C 707.328125 137.753906 705.195312 137.589844 702.984375 137.273438 C 700.792969 136.949219 698.539062 136.464844 696.246094 135.824219 L 696.246094 128.230469 C 698.226562 129.195312 700.261719 129.917969 702.34375 130.402344 C 704.429688 130.875 706.550781 131.117188 708.71875 131.117188 C 710.660156 131.117188 712.132812 130.859375 713.128906 130.320312 C 714.109375 129.753906 714.617188 128.953125 714.617188 127.902344 C 714.617188 127.019531 714.257812 126.371094 713.570312 125.9375 C 712.894531 125.480469 711.542969 125.132812 709.523438 124.890625 L 707.753906 124.648438 C 703.316406 124.089844 700.195312 123.066406 698.414062 121.558594 C 696.644531 120.058594 695.765625 117.769531 695.765625 114.679688 C 695.765625 111.390625 696.886719 108.933594 699.128906 107.328125 C 701.398438 105.71875 704.886719 104.910156 709.597656 104.910156 C 711.417969 104.910156 713.335938 105.070312 715.371094 105.363281 C 717.398438 105.628906 719.601562 106.0625 721.992188 106.644531 Z M 721.992188 106.644531 " fill-opacity="1" fill-rule="nonzero"/><path fill="#24a7b8" d="M 274.15625 166.011719 L 274.15625 168.425781 C 273.375 167.699219 272.550781 167.167969 271.664062 166.816406 C 270.804688 166.476562 269.902344 166.292969 268.9375 166.292969 C 266.984375 166.292969 265.496094 166.882812 264.484375 168.058594 C 263.460938 169.25 262.964844 170.957031 262.964844 173.203125 C 262.964844 175.4375 263.460938 177.136719 264.484375 178.308594 C 265.496094 179.5 266.984375 180.082031 268.9375 180.082031 C 269.902344 180.082031 270.804688 179.910156 271.664062 179.558594 C 272.550781 179.21875 273.375 178.675781 274.15625 177.953125 L 274.15625 180.359375 C 273.347656 180.898438 272.484375 181.308594 271.585938 181.566406 C 270.707031 181.824219 269.757812 181.964844 268.78125 181.964844 C 266.230469 181.964844 264.21875 181.191406 262.722656 179.632812 C 261.253906 178.058594 260.519531 175.917969 260.519531 173.203125 C 260.519531 170.472656 261.253906 168.332031 262.722656 166.777344 C 264.21875 165.195312 266.230469 164.402344 268.78125 164.402344 C 269.792969 164.402344 270.738281 164.542969 271.628906 164.800781 C 272.527344 165.078125 273.375 165.476562 274.15625 166.011719 Z M 274.15625 166.011719 " fill-opacity="1" fill-rule="nonzero"/><path fill="#24a7b8" d="M 283.34375 175.253906 C 281.664062 175.253906 280.5 175.453125 279.863281 175.863281 C 279.214844 176.246094 278.898438 176.894531 278.898438 177.828125 C 278.898438 178.550781 279.140625 179.140625 279.621094 179.601562 C 280.09375 180.023438 280.75 180.242188 281.582031 180.242188 C 282.753906 180.242188 283.683594 179.824219 284.390625 178.992188 C 285.078125 178.167969 285.429688 177.085938 285.429688 175.738281 L 285.429688 175.253906 Z M 287.511719 174.414062 L 287.511719 181.648438 L 285.429688 181.648438 L 285.429688 179.71875 C 284.953125 180.5 284.347656 181.074219 283.625 181.449219 C 282.925781 181.789062 282.070312 181.964844 281.058594 181.964844 C 279.746094 181.964844 278.707031 181.605469 277.933594 180.882812 C 277.179688 180.160156 276.8125 179.183594 276.8125 177.953125 C 276.8125 176.535156 277.269531 175.453125 278.21875 174.738281 C 279.171875 173.988281 280.601562 173.605469 282.503906 173.605469 L 285.429688 173.605469 L 285.429688 173.40625 C 285.429688 172.472656 285.113281 171.738281 284.472656 171.199219 C 283.851562 170.664062 282.96875 170.390625 281.824219 170.390625 C 281.101562 170.390625 280.386719 170.488281 279.695312 170.671875 C 279.023438 170.832031 278.375 171.097656 277.734375 171.441406 L 277.734375 169.507812 C 278.472656 169.214844 279.214844 169.007812 279.9375 168.867188 C 280.660156 168.707031 281.347656 168.625 282.023438 168.625 C 283.867188 168.625 285.238281 169.109375 286.152344 170.074219 C 287.054688 171.015625 287.511719 172.464844 287.511719 174.414062 Z M 287.511719 174.414062 " fill-opacity="1" fill-rule="nonzero"/><path fill="#24a7b8" d="M 293.8125 179.757812 L 293.8125 186.46875 L 291.683594 186.46875 L 291.683594 168.949219 L 293.8125 168.949219 L 293.8125 170.875 C 294.234375 170.132812 294.78125 169.566406 295.457031 169.183594 C 296.113281 168.816406 296.917969 168.625 297.855469 168.625 C 299.386719 168.625 300.621094 169.25 301.585938 170.472656 C 302.550781 171.707031 303.03125 173.3125 303.03125 175.296875 C 303.03125 177.300781 302.550781 178.933594 301.585938 180.160156 C 300.621094 181.367188 299.386719 181.964844 297.855469 181.964844 C 296.917969 181.964844 296.113281 181.789062 295.457031 181.449219 C 294.78125 181.074219 294.234375 180.507812 293.8125 179.757812 Z M 300.863281 175.296875 C 300.863281 173.769531 300.546875 172.582031 299.910156 171.722656 C 299.285156 170.832031 298.429688 170.390625 297.339844 170.390625 C 296.238281 170.390625 295.371094 170.832031 294.734375 171.722656 C 294.109375 172.582031 293.8125 173.769531 293.8125 175.296875 C 293.8125 176.851562 294.109375 178.066406 294.734375 178.949219 C 295.371094 179.816406 296.238281 180.242188 297.339844 180.242188 C 298.429688 180.242188 299.285156 179.816406 299.910156 178.949219 C 300.546875 178.066406 300.863281 176.851562 300.863281 175.296875 Z M 300.863281 175.296875 " fill-opacity="1" fill-rule="nonzero"/><path fill="#24a7b8" d="M 308.546875 165.328125 L 308.546875 168.949219 L 312.84375 168.949219 L 312.84375 170.558594 L 308.546875 170.558594 L 308.546875 177.46875 C 308.546875 178.507812 308.679688 179.183594 308.957031 179.476562 C 309.246094 179.773438 309.8125 179.917969 310.675781 179.917969 L 312.84375 179.917969 L 312.84375 181.648438 L 310.675781 181.648438 C 309.070312 181.648438 307.957031 181.359375 307.351562 180.765625 C 306.753906 180.148438 306.464844 179.050781 306.464844 177.46875 L 306.464844 170.558594 L 304.941406 170.558594 L 304.941406 168.949219 L 306.464844 168.949219 L 306.464844 165.328125 Z M 308.546875 165.328125 " fill-opacity="1" fill-rule="nonzero"/><path fill="#24a7b8" d="M 315.34375 176.621094 L 315.34375 168.949219 L 317.429688 168.949219 L 317.429688 176.542969 C 317.429688 177.75 317.652344 178.660156 318.109375 179.277344 C 318.59375 179.867188 319.300781 180.160156 320.238281 180.160156 C 321.359375 180.160156 322.25 179.800781 322.886719 179.074219 C 323.542969 178.351562 323.894531 177.378906 323.894531 176.136719 L 323.894531 168.949219 L 325.976562 168.949219 L 325.976562 181.648438 L 323.894531 181.648438 L 323.894531 179.675781 C 323.378906 180.457031 322.789062 181.03125 322.125 181.40625 C 321.449219 181.773438 320.679688 181.964844 319.796875 181.964844 C 318.351562 181.964844 317.238281 181.515625 316.472656 180.601562 C 315.71875 179.699219 315.34375 178.367188 315.34375 176.621094 Z M 315.34375 176.621094 " fill-opacity="1" fill-rule="nonzero"/><path fill="#24a7b8" d="M 337.609375 170.875 C 337.367188 170.75 337.09375 170.65625 336.804688 170.589844 C 336.539062 170.539062 336.246094 170.515625 335.921875 170.515625 C 334.742188 170.515625 333.835938 170.90625 333.199219 171.679688 C 332.574219 172.429688 332.277344 173.519531 332.277344 174.9375 L 332.277344 181.648438 L 330.148438 181.648438 L 330.148438 168.949219 L 332.277344 168.949219 L 332.277344 170.914062 C 332.691406 170.140625 333.257812 169.566406 333.953125 169.183594 C 334.675781 168.816406 335.53125 168.625 336.519531 168.625 C 336.652344 168.625 336.804688 168.640625 336.960938 168.667969 C 337.144531 168.691406 337.34375 168.726562 337.566406 168.742188 Z M 337.609375 170.875 " fill-opacity="1" fill-rule="nonzero"/><path fill="#24a7b8" d="M 350.105469 174.769531 L 350.105469 175.777344 L 340.523438 175.777344 C 340.601562 177.226562 341.023438 178.335938 341.804688 179.074219 C 342.578125 179.824219 343.664062 180.199219 345.054688 180.199219 C 345.859375 180.199219 346.632812 180.109375 347.378906 179.917969 C 348.117188 179.707031 348.875 179.417969 349.621094 179.035156 L 349.621094 181.007812 C 348.875 181.324219 348.101562 181.566406 347.304688 181.722656 C 346.515625 181.890625 345.734375 181.964844 344.9375 181.964844 C 342.902344 181.964844 341.296875 181.382812 340.125 180.199219 C 338.9375 179.027344 338.355469 177.425781 338.355469 175.421875 C 338.355469 173.328125 338.921875 171.679688 340.042969 170.472656 C 341.164062 169.25 342.667969 168.625 344.570312 168.625 C 346.273438 168.625 347.628906 169.175781 348.625 170.273438 C 349.605469 171.382812 350.105469 172.871094 350.105469 174.769531 Z M 348.019531 174.171875 C 347.992188 173.023438 347.671875 172.113281 347.0625 171.441406 C 346.441406 170.75 345.617188 170.390625 344.570312 170.390625 C 343.425781 170.390625 342.503906 170.730469 341.804688 171.398438 C 341.105469 172.039062 340.707031 172.964844 340.601562 174.171875 Z M 348.019531 174.171875 " fill-opacity="1" fill-rule="nonzero"/><path fill="#24a7b8" d="M 367.832031 166.25 C 366.164062 166.25 364.84375 166.882812 363.863281 168.140625 C 362.898438 169.375 362.417969 171.066406 362.417969 173.203125 C 362.417969 175.328125 362.898438 177.011719 363.863281 178.269531 C 364.84375 179.507812 366.164062 180.117188 367.832031 180.117188 C 369.484375 180.117188 370.796875 179.507812 371.761719 178.269531 C 372.71875 177.011719 373.199219 175.328125 373.199219 173.203125 C 373.199219 171.066406 372.71875 169.375 371.761719 168.140625 C 370.796875 166.882812 369.484375 166.25 367.832031 166.25 Z M 367.832031 164.402344 C 370.175781 164.402344 372.0625 165.210938 373.480469 166.816406 C 374.894531 168.398438 375.609375 170.53125 375.609375 173.203125 C 375.609375 175.863281 374.894531 177.992188 373.480469 179.601562 C 372.0625 181.183594 370.175781 181.964844 367.832031 181.964844 C 365.441406 181.964844 363.539062 181.183594 362.09375 179.601562 C 360.671875 178.019531 359.972656 175.886719 359.972656 173.203125 C 359.972656 170.53125 360.671875 168.398438 362.09375 166.816406 C 363.539062 165.210938 365.441406 164.402344 367.832031 164.402344 Z M 367.832031 164.402344 " fill-opacity="1" fill-rule="nonzero"/><path fill="#24a7b8" d="M 389.632812 173.972656 L 389.632812 181.648438 L 387.546875 181.648438 L 387.546875 174.046875 C 387.546875 172.847656 387.304688 171.949219 386.824219 171.355469 C 386.359375 170.75 385.667969 170.433594 384.738281 170.433594 C 383.617188 170.433594 382.730469 170.796875 382.089844 171.515625 C 381.449219 172.238281 381.125 173.230469 381.125 174.453125 L 381.125 181.648438 L 379.007812 181.648438 L 379.007812 168.949219 L 381.125 168.949219 L 381.125 170.914062 C 381.605469 170.171875 382.179688 169.609375 382.851562 169.222656 C 383.542969 168.824219 384.332031 168.625 385.222656 168.625 C 386.660156 168.625 387.753906 169.082031 388.503906 169.992188 C 389.25 170.90625 389.632812 172.230469 389.632812 173.972656 Z M 389.632812 173.972656 " fill-opacity="1" fill-rule="nonzero"/><path fill="#24a7b8" d="M 402.910156 169.425781 L 402.910156 171.398438 C 402.308594 171.054688 401.71875 170.796875 401.140625 170.632812 C 400.550781 170.472656 399.949219 170.390625 399.335938 170.390625 C 397.988281 170.390625 396.953125 170.824219 396.210938 171.679688 C 395.457031 172.539062 395.082031 173.746094 395.082031 175.296875 C 395.082031 176.851562 395.457031 178.058594 396.210938 178.917969 C 396.953125 179.773438 397.988281 180.199219 399.335938 180.199219 C 399.949219 180.199219 400.550781 180.117188 401.140625 179.957031 C 401.71875 179.800781 402.308594 179.558594 402.910156 179.234375 L 402.910156 181.164062 C 402.308594 181.433594 401.710938 181.640625 401.097656 181.765625 C 400.484375 181.898438 399.816406 181.964844 399.09375 181.964844 C 397.191406 181.964844 395.6875 181.367188 394.566406 180.160156 C 393.445312 178.949219 392.878906 177.335938 392.878906 175.296875 C 392.878906 173.238281 393.445312 171.613281 394.566406 170.433594 C 395.707031 169.222656 397.265625 168.625 399.253906 168.625 C 399.902344 168.625 400.507812 168.691406 401.097656 168.824219 C 401.710938 168.964844 402.308594 169.167969 402.910156 169.425781 Z M 402.910156 169.425781 " fill-opacity="1" fill-rule="nonzero"/><path fill="#24a7b8" d="M 417.363281 174.769531 L 417.363281 175.777344 L 407.777344 175.777344 C 407.859375 177.226562 408.285156 178.335938 409.0625 179.074219 C 409.835938 179.824219 410.917969 180.199219 412.3125 180.199219 C 413.109375 180.199219 413.882812 180.109375 414.640625 179.917969 C 415.378906 179.707031 416.132812 179.417969 416.882812 179.035156 L 416.882812 181.007812 C 416.132812 181.324219 415.363281 181.566406 414.554688 181.722656 C 413.773438 181.890625 412.992188 181.964844 412.1875 181.964844 C 410.152344 181.964844 408.550781 181.382812 407.378906 180.199219 C 406.199219 179.027344 405.617188 177.425781 405.617188 175.421875 C 405.617188 173.328125 406.171875 171.679688 407.292969 170.472656 C 408.425781 169.25 409.929688 168.625 411.832031 168.625 C 413.535156 168.625 414.886719 169.175781 415.875 170.273438 C 416.867188 171.382812 417.363281 172.871094 417.363281 174.769531 Z M 415.277344 174.171875 C 415.246094 173.023438 414.929688 172.113281 414.316406 171.441406 C 413.691406 170.75 412.871094 170.390625 411.832031 170.390625 C 410.675781 170.390625 409.753906 170.730469 409.0625 171.398438 C 408.359375 172.039062 407.960938 172.964844 407.859375 174.171875 Z M 415.277344 174.171875 " fill-opacity="1" fill-rule="nonzero"/><path fill="#24a7b8" d="M 421.308594 178.75 L 423.667969 178.75 L 423.667969 180.726562 L 421.824219 184.339844 L 420.386719 184.339844 L 421.308594 180.726562 Z M 421.308594 178.75 " fill-opacity="1" fill-rule="nonzero"/><path fill="#24a7b8" d="M 442.445312 166.25 C 440.785156 166.25 439.460938 166.882812 438.480469 168.140625 C 437.519531 169.375 437.035156 171.066406 437.035156 173.203125 C 437.035156 175.328125 437.519531 177.011719 438.480469 178.269531 C 439.460938 179.507812 440.785156 180.117188 442.445312 180.117188 C 444.097656 180.117188 445.417969 179.507812 446.375 178.269531 C 447.339844 177.011719 447.820312 175.328125 447.820312 173.203125 C 447.820312 171.066406 447.339844 169.375 446.375 168.140625 C 445.417969 166.882812 444.097656 166.25 442.445312 166.25 Z M 442.445312 164.402344 C 444.796875 164.402344 446.683594 165.210938 448.101562 166.816406 C 449.515625 168.398438 450.230469 170.53125 450.230469 173.203125 C 450.230469 175.863281 449.515625 177.992188 448.101562 179.601562 C 446.683594 181.183594 444.796875 181.964844 442.445312 181.964844 C 440.0625 181.964844 438.15625 181.183594 436.710938 179.601562 C 435.292969 178.019531 434.585938 175.886719 434.585938 173.203125 C 434.585938 170.53125 435.292969 168.398438 436.710938 166.816406 C 438.15625 165.210938 440.0625 164.402344 442.445312 164.402344 Z M 442.445312 164.402344 " fill-opacity="1" fill-rule="nonzero"/><path fill="#24a7b8" d="M 461.078125 170.875 C 460.839844 170.75 460.5625 170.65625 460.273438 170.589844 C 460.007812 170.539062 459.71875 170.515625 459.394531 170.515625 C 458.214844 170.515625 457.308594 170.90625 456.667969 171.679688 C 456.042969 172.429688 455.746094 173.519531 455.746094 174.9375 L 455.746094 181.648438 L 453.617188 181.648438 L 453.617188 168.949219 L 455.746094 168.949219 L 455.746094 170.914062 C 456.167969 170.140625 456.726562 169.566406 457.433594 169.183594 C 458.15625 168.816406 459.003906 168.625 460 168.625 C 460.125 168.625 460.273438 168.640625 460.441406 168.667969 C 460.621094 168.691406 460.820312 168.726562 461.039062 168.742188 Z M 461.078125 170.875 " fill-opacity="1" fill-rule="nonzero"/><path fill="#24a7b8" d="M 471.15625 175.136719 C 471.15625 173.636719 470.847656 172.472656 470.234375 171.640625 C 469.613281 170.816406 468.746094 170.390625 467.625 170.390625 C 466.503906 170.390625 465.632812 170.816406 465.027344 171.640625 C 464.402344 172.472656 464.101562 173.636719 464.101562 175.136719 C 464.101562 176.644531 464.402344 177.816406 465.027344 178.675781 C 465.632812 179.507812 466.503906 179.917969 467.625 179.917969 C 468.746094 179.917969 469.613281 179.507812 470.234375 178.675781 C 470.847656 177.816406 471.15625 176.644531 471.15625 175.136719 Z M 473.242188 180.082031 C 473.242188 182.222656 472.761719 183.8125 471.796875 184.863281 C 470.859375 185.929688 469.402344 186.46875 467.425781 186.46875 C 466.679688 186.46875 465.980469 186.414062 465.339844 186.3125 C 464.703125 186.195312 464.070312 186.039062 463.457031 185.828125 L 463.457031 183.78125 C 464.070312 184.097656 464.667969 184.339844 465.257812 184.496094 C 465.839844 184.664062 466.460938 184.738281 467.109375 184.738281 C 468.472656 184.738281 469.476562 184.378906 470.152344 183.65625 C 470.816406 182.957031 471.15625 181.890625 471.15625 180.441406 L 471.15625 179.390625 C 470.726562 180.148438 470.175781 180.714844 469.511719 181.082031 C 468.839844 181.464844 468.042969 181.648438 467.109375 181.648438 C 465.550781 181.648438 464.300781 181.066406 463.339844 179.875 C 462.390625 178.675781 461.933594 177.09375 461.933594 175.136719 C 461.933594 173.1875 462.390625 171.613281 463.339844 170.433594 C 464.300781 169.222656 465.550781 168.625 467.109375 168.625 C 468.042969 168.625 468.839844 168.816406 469.511719 169.183594 C 470.175781 169.566406 470.726562 170.132812 471.15625 170.875 L 471.15625 168.949219 L 473.242188 168.949219 Z M 473.242188 180.082031 " fill-opacity="1" fill-rule="nonzero"/><path fill="#24a7b8" d="M 483.292969 175.253906 C 481.609375 175.253906 480.445312 175.453125 479.804688 175.863281 C 479.164062 176.246094 478.839844 176.894531 478.839844 177.828125 C 478.839844 178.550781 479.082031 179.140625 479.5625 179.601562 C 480.046875 180.023438 480.695312 180.242188 481.523438 180.242188 C 482.703125 180.242188 483.636719 179.824219 484.332031 178.992188 C 485.03125 178.167969 485.378906 177.085938 485.378906 175.738281 L 485.378906 175.253906 Z M 487.464844 174.414062 L 487.464844 181.648438 L 485.378906 181.648438 L 485.378906 179.71875 C 484.898438 180.5 484.292969 181.074219 483.578125 181.449219 C 482.871094 181.789062 482.023438 181.964844 481.007812 181.964844 C 479.695312 181.964844 478.648438 181.605469 477.878906 180.882812 C 477.128906 180.160156 476.757812 179.183594 476.757812 177.953125 C 476.757812 176.535156 477.222656 175.453125 478.160156 174.738281 C 479.125 173.988281 480.542969 173.605469 482.445312 173.605469 L 485.378906 173.605469 L 485.378906 173.40625 C 485.378906 172.472656 485.054688 171.738281 484.414062 171.199219 C 483.792969 170.664062 482.914062 170.390625 481.765625 170.390625 C 481.042969 170.390625 480.335938 170.488281 479.648438 170.671875 C 478.972656 170.832031 478.316406 171.097656 477.679688 171.441406 L 477.679688 169.507812 C 478.417969 169.214844 479.164062 169.007812 479.878906 168.867188 C 480.601562 168.707031 481.300781 168.625 481.964844 168.625 C 483.808594 168.625 485.1875 169.109375 486.101562 170.074219 C 487 171.015625 487.464844 172.464844 487.464844 174.414062 Z M 487.464844 174.414062 " fill-opacity="1" fill-rule="nonzero"/><path fill="#24a7b8" d="M 502.261719 173.972656 L 502.261719 181.648438 L 500.175781 181.648438 L 500.175781 174.046875 C 500.175781 172.847656 499.933594 171.949219 499.453125 171.355469 C 498.988281 170.75 498.296875 170.433594 497.367188 170.433594 C 496.246094 170.433594 495.355469 170.796875 494.71875 171.515625 C 494.078125 172.238281 493.753906 173.230469 493.753906 174.453125 L 493.753906 181.648438 L 491.628906 181.648438 L 491.628906 168.949219 L 493.753906 168.949219 L 493.753906 170.914062 C 494.234375 170.171875 494.808594 169.609375 495.480469 169.222656 C 496.171875 168.824219 496.960938 168.625 497.847656 168.625 C 499.285156 168.625 500.382812 169.082031 501.132812 169.992188 C 501.878906 170.90625 502.261719 172.230469 502.261719 173.972656 Z M 502.261719 173.972656 " fill-opacity="1" fill-rule="nonzero"/><path fill="#24a7b8" d="M 506.390625 168.949219 L 508.476562 168.949219 L 508.476562 181.648438 L 506.390625 181.648438 Z M 506.390625 164.003906 L 508.476562 164.003906 L 508.476562 166.652344 L 506.390625 166.652344 Z M 506.390625 164.003906 " fill-opacity="1" fill-rule="nonzero"/><path fill="#24a7b8" d="M 511.941406 168.949219 L 521.851562 168.949219 L 521.851562 170.832031 L 513.992188 180 L 521.851562 180 L 521.851562 181.648438 L 511.664062 181.648438 L 511.664062 179.757812 L 519.484375 170.589844 L 511.941406 170.589844 Z M 511.941406 168.949219 " fill-opacity="1" fill-rule="nonzero"/><path fill="#24a7b8" d="M 535.847656 174.769531 L 535.847656 175.777344 L 526.261719 175.777344 C 526.34375 177.226562 526.769531 178.335938 527.550781 179.074219 C 528.324219 179.824219 529.402344 180.199219 530.796875 180.199219 C 531.59375 180.199219 532.367188 180.109375 533.125 179.917969 C 533.863281 179.707031 534.621094 179.417969 535.367188 179.035156 L 535.367188 181.007812 C 534.621094 181.324219 533.847656 181.566406 533.042969 181.722656 C 532.261719 181.890625 531.480469 181.964844 530.671875 181.964844 C 528.636719 181.964844 527.035156 181.382812 525.863281 180.199219 C 524.683594 179.027344 524.101562 177.425781 524.101562 175.421875 C 524.101562 173.328125 524.660156 171.679688 525.789062 170.472656 C 526.910156 169.25 528.414062 168.625 530.316406 168.625 C 532.019531 168.625 533.375 169.175781 534.363281 170.273438 C 535.351562 171.382812 535.847656 172.871094 535.847656 174.769531 Z M 533.765625 174.171875 C 533.730469 173.023438 533.414062 172.113281 532.800781 171.441406 C 532.175781 170.75 531.355469 170.390625 530.316406 170.390625 C 529.160156 170.390625 528.238281 170.730469 527.550781 171.398438 C 526.84375 172.039062 526.445312 172.964844 526.34375 174.171875 Z M 533.765625 174.171875 " fill-opacity="1" fill-rule="nonzero"/><path fill="#24a7b8" d="M 546.714844 164.726562 L 556.417969 164.726562 L 556.417969 166.652344 L 549 166.652344 L 549 171.640625 L 555.695312 171.640625 L 555.695312 173.570312 L 549 173.570312 L 549 181.648438 L 546.714844 181.648438 Z M 546.714844 164.726562 " fill-opacity="1" fill-rule="nonzero"/><path fill="#24a7b8" d="M 564.019531 170.390625 C 562.898438 170.390625 562.019531 170.832031 561.378906 171.722656 C 560.730469 172.605469 560.414062 173.796875 560.414062 175.296875 C 560.414062 176.828125 560.730469 178.027344 561.378906 178.917969 C 562.019531 179.773438 562.898438 180.199219 564.019531 180.199219 C 565.117188 180.199219 565.988281 179.773438 566.628906 178.917969 C 567.292969 178.027344 567.636719 176.828125 567.636719 175.296875 C 567.636719 173.796875 567.292969 172.605469 566.628906 171.722656 C 565.988281 170.832031 565.117188 170.390625 564.019531 170.390625 Z M 564.019531 168.625 C 565.839844 168.625 567.253906 169.214844 568.273438 170.390625 C 569.3125 171.582031 569.835938 173.203125 569.835938 175.296875 C 569.835938 177.386719 569.3125 179.027344 568.273438 180.199219 C 567.253906 181.382812 565.839844 181.964844 564.019531 181.964844 C 562.203125 181.964844 560.773438 181.382812 559.734375 180.199219 C 558.710938 179.027344 558.207031 177.386719 558.207031 175.296875 C 558.207031 173.203125 558.710938 171.582031 559.734375 170.390625 C 560.773438 169.214844 562.203125 168.625 564.019531 168.625 Z M 564.019531 168.625 " fill-opacity="1" fill-rule="nonzero"/><path fill="#24a7b8" d="M 580.636719 170.875 C 580.394531 170.75 580.128906 170.65625 579.839844 170.589844 C 579.566406 170.539062 579.273438 170.515625 578.957031 170.515625 C 577.769531 170.515625 576.871094 170.90625 576.226562 171.679688 C 575.609375 172.429688 575.304688 173.519531 575.304688 174.9375 L 575.304688 181.648438 L 573.183594 181.648438 L 573.183594 168.949219 L 575.304688 168.949219 L 575.304688 170.914062 C 575.726562 170.140625 576.292969 169.566406 576.988281 169.183594 C 577.710938 168.816406 578.566406 168.625 579.554688 168.625 C 579.6875 168.625 579.839844 168.640625 579.996094 168.667969 C 580.179688 168.691406 580.378906 168.726562 580.59375 168.742188 Z M 580.636719 170.875 " fill-opacity="1" fill-rule="nonzero"/><path fill="#24a7b8" d="M 593.140625 174.769531 L 593.140625 175.777344 L 583.5625 175.777344 C 583.636719 177.226562 584.058594 178.335938 584.839844 179.074219 C 585.613281 179.824219 586.691406 180.199219 588.089844 180.199219 C 588.886719 180.199219 589.660156 180.109375 590.414062 179.917969 C 591.152344 179.707031 591.910156 179.417969 592.65625 179.035156 L 592.65625 181.007812 C 591.910156 181.324219 591.136719 181.566406 590.332031 181.722656 C 589.550781 181.890625 588.769531 181.964844 587.964844 181.964844 C 585.9375 181.964844 584.324219 181.382812 583.152344 180.199219 C 581.972656 179.027344 581.390625 177.425781 581.390625 175.421875 C 581.390625 173.328125 581.949219 171.679688 583.078125 170.472656 C 584.199219 169.25 585.703125 168.625 587.605469 168.625 C 589.308594 168.625 590.664062 169.175781 591.660156 170.273438 C 592.640625 171.382812 593.140625 172.871094 593.140625 174.769531 Z M 591.054688 174.171875 C 591.03125 173.023438 590.707031 172.113281 590.089844 171.441406 C 589.46875 170.75 588.652344 170.390625 587.605469 170.390625 C 586.453125 170.390625 585.53125 170.730469 584.839844 171.398438 C 584.140625 172.039062 583.734375 172.964844 583.636719 174.171875 Z M 591.054688 174.171875 " fill-opacity="1" fill-rule="nonzero"/><path fill="#24a7b8" d="M 595.042969 168.949219 L 597.242188 168.949219 L 601.214844 179.601562 L 605.1875 168.949219 L 607.386719 168.949219 L 602.617188 181.648438 L 599.8125 181.648438 Z M 595.042969 168.949219 " fill-opacity="1" fill-rule="nonzero"/><path fill="#24a7b8" d="M 621.09375 174.769531 L 621.09375 175.777344 L 611.515625 175.777344 C 611.589844 177.226562 612.015625 178.335938 612.796875 179.074219 C 613.570312 179.824219 614.648438 180.199219 616.042969 180.199219 C 616.851562 180.199219 617.613281 180.109375 618.371094 179.917969 C 619.109375 179.707031 619.867188 179.417969 620.613281 179.035156 L 620.613281 181.007812 C 619.867188 181.324219 619.09375 181.566406 618.289062 181.722656 C 617.507812 181.890625 616.726562 181.964844 615.929688 181.964844 C 613.890625 181.964844 612.289062 181.382812 611.109375 180.199219 C 609.929688 179.027344 609.347656 177.425781 609.347656 175.421875 C 609.347656 173.328125 609.914062 171.679688 611.035156 170.472656 C 612.15625 169.25 613.660156 168.625 615.5625 168.625 C 617.265625 168.625 618.621094 169.175781 619.617188 170.273438 C 620.597656 171.382812 621.09375 172.871094 621.09375 174.769531 Z M 619.011719 174.171875 C 618.984375 173.023438 618.660156 172.113281 618.046875 171.441406 C 617.429688 170.75 616.609375 170.390625 615.5625 170.390625 C 614.40625 170.390625 613.484375 170.730469 612.796875 171.398438 C 612.097656 172.039062 611.691406 172.964844 611.589844 174.171875 Z M 619.011719 174.171875 " fill-opacity="1" fill-rule="nonzero"/><path fill="#24a7b8" d="M 631.855469 170.875 C 631.621094 170.75 631.347656 170.65625 631.054688 170.589844 C 630.78125 170.539062 630.492188 170.515625 630.175781 170.515625 C 628.988281 170.515625 628.089844 170.90625 627.449219 171.679688 C 626.828125 172.429688 626.527344 173.519531 626.527344 174.9375 L 626.527344 181.648438 L 624.402344 181.648438 L 624.402344 168.949219 L 626.527344 168.949219 L 626.527344 170.914062 C 626.945312 170.140625 627.507812 169.566406 628.207031 169.183594 C 628.929688 168.816406 629.785156 168.625 630.773438 168.625 C 630.90625 168.625 631.054688 168.640625 631.214844 168.667969 C 631.398438 168.691406 631.597656 168.726562 631.820312 168.742188 Z M 631.855469 170.875 " fill-opacity="1" fill-rule="nonzero"/><g clip-path="url(#2b21e40ebf)"><path stroke-linecap="butt" transform="matrix(0.908754, 0, 0, 0.911033, 351.987309, -127.801397)" fill="none" stroke-linejoin="miter" d="M 199.243719 11.796175 C 172.941385 33.479142 143.724689 45.862059 105.739116 52.062092 C 67.744946 45.862059 38.528251 33.479142 12.225917 11.796175 L 12.225917 114.006689 C 12.225917 158.911911 44.36987 205.364999 105.739116 234.791576 C 167.099765 205.364999 199.243719 158.911911 199.243719 114.006689 Z M 199.243719 11.796175 " stroke="#24a7b8" stroke-width="9.025" stroke-opacity="1" stroke-miterlimit="4"/></g><g clip-path="url(#19fa4ad8d3)"><path stroke-linecap="butt" transform="matrix(0.683891, 0, 0, 0.683613, 11.105575, 55.404836)" fill="none" stroke-linejoin="miter" d="M 199.239051 11.796026 C 172.941897 33.475421 143.720299 45.863647 105.736791 52.057761 C 67.747572 45.863647 38.525974 33.475421 12.22882 11.796026 L 12.22882 114.004605 C 12.22882 158.911925 44.369151 205.367773 105.736791 234.795524 C 167.09872 205.367773 199.239051 158.911925 199.239051 114.004605 Z M 199.239051 11.796026 " stroke="#24a7b8" stroke-width="9.025" stroke-opacity="1" stroke-miterlimit="4"/></g><path fill="#0f2336" d="M 47.691406 80.203125 L 118.890625 80.203125 C 119.824219 80.203125 120.75 80.300781 121.667969 80.492188 C 122.585938 80.683594 123.476562 80.964844 124.339844 81.339844 C 125.203125 81.714844 126.023438 82.171875 126.800781 82.714844 C 127.578125 83.257812 128.300781 83.878906 128.960938 84.570312 C 129.621094 85.261719 130.210938 86.011719 130.730469 86.828125 C 131.25 87.640625 131.6875 88.5 132.046875 89.402344 C 132.40625 90.304688 132.675781 91.238281 132.855469 92.199219 C 133.039062 93.15625 133.128906 94.125 133.128906 95.105469 L 133.128906 184.5 C 133.128906 185.476562 133.039062 186.445312 132.855469 187.40625 C 132.675781 188.363281 132.40625 189.296875 132.046875 190.199219 C 131.6875 191.105469 131.25 191.964844 130.730469 192.777344 C 130.210938 193.589844 129.621094 194.34375 128.960938 195.035156 C 128.300781 195.726562 127.578125 196.34375 126.800781 196.886719 C 126.023438 197.429688 125.203125 197.890625 124.339844 198.265625 C 123.476562 198.636719 122.585938 198.921875 121.667969 199.113281 C 120.75 199.304688 119.824219 199.398438 118.890625 199.398438 L 47.691406 199.398438 C 46.753906 199.398438 45.828125 199.304688 44.914062 199.113281 C 43.996094 198.921875 43.105469 198.636719 42.242188 198.265625 C 41.378906 197.890625 40.554688 197.429688 39.777344 196.886719 C 39 196.34375 38.28125 195.726562 37.621094 195.035156 C 36.960938 194.34375 36.371094 193.589844 35.851562 192.777344 C 35.332031 191.964844 34.890625 191.105469 34.535156 190.199219 C 34.175781 189.296875 33.90625 188.363281 33.722656 187.40625 C 33.542969 186.445312 33.449219 185.476562 33.449219 184.5 L 33.449219 95.105469 C 33.449219 94.125 33.542969 93.15625 33.722656 92.199219 C 33.90625 91.238281 34.175781 90.304688 34.535156 89.402344 C 34.890625 88.5 35.332031 87.640625 35.851562 86.828125 C 36.371094 86.011719 36.960938 85.261719 37.621094 84.570312 C 38.28125 83.878906 39 83.257812 39.777344 82.714844 C 40.554688 82.171875 41.378906 81.714844 42.242188 81.339844 C 43.105469 80.964844 43.996094 80.683594 44.914062 80.492188 C 45.828125 80.300781 46.753906 80.203125 47.691406 80.203125 Z M 47.691406 80.203125 " fill-opacity="1" fill-rule="nonzero"/><path fill="#24a7b8" d="M 108.210938 80.707031 L 133.128906 106.066406 L 108.210938 106.066406 Z M 108.210938 80.707031 " fill-opacity="1" fill-rule="nonzero"/><path fill="#ffffff" d="M 60.148438 112.457031 L 106.429688 112.457031 C 106.78125 112.457031 107.128906 112.492188 107.472656 112.558594 C 107.816406 112.628906 108.152344 112.730469 108.472656 112.863281 C 108.796875 112.996094 109.105469 113.160156 109.398438 113.355469 C 109.6875 113.550781 109.957031 113.773438 110.207031 114.019531 C 110.453125 114.269531 110.675781 114.539062 110.871094 114.828125 C 111.066406 115.121094 111.230469 115.425781 111.363281 115.75 C 111.5 116.074219 111.601562 116.410156 111.667969 116.753906 C 111.738281 117.097656 111.769531 117.445312 111.769531 117.792969 L 111.769531 117.988281 C 111.769531 118.335938 111.738281 118.683594 111.667969 119.027344 C 111.601562 119.371094 111.5 119.707031 111.363281 120.03125 C 111.230469 120.351562 111.066406 120.660156 110.871094 120.953125 C 110.675781 121.242188 110.453125 121.511719 110.207031 121.761719 C 109.957031 122.007812 109.6875 122.230469 109.398438 122.425781 C 109.105469 122.621094 108.796875 122.785156 108.472656 122.917969 C 108.152344 123.050781 107.816406 123.152344 107.472656 123.222656 C 107.128906 123.289062 106.78125 123.324219 106.429688 123.324219 L 60.148438 123.324219 C 59.800781 123.324219 59.453125 123.289062 59.109375 123.222656 C 58.765625 123.152344 58.429688 123.050781 58.105469 122.917969 C 57.78125 122.785156 57.476562 122.621094 57.183594 122.425781 C 56.890625 122.230469 56.621094 122.007812 56.375 121.761719 C 56.125 121.511719 55.90625 121.242188 55.710938 120.953125 C 55.515625 120.660156 55.351562 120.351562 55.214844 120.03125 C 55.082031 119.707031 54.980469 119.371094 54.914062 119.027344 C 54.84375 118.683594 54.808594 118.335938 54.808594 117.988281 L 54.808594 117.792969 C 54.808594 117.445312 54.84375 117.097656 54.914062 116.753906 C 54.980469 116.410156 55.082031 116.074219 55.214844 115.75 C 55.351562 115.425781 55.515625 115.121094 55.710938 114.828125 C 55.90625 114.539062 56.125 114.269531 56.375 114.019531 C 56.621094 113.773438 56.890625 113.550781 57.183594 113.355469 C 57.476562 113.160156 57.78125 112.996094 58.105469 112.863281 C 58.429688 112.730469 58.765625 112.628906 59.109375 112.558594 C 59.453125 112.492188 59.800781 112.457031 60.148438 112.457031 Z M 60.148438 112.457031 " fill-opacity="0.9" fill-rule="nonzero"/><path fill="#ffffff" d="M 60.148438 134.191406 L 106.429688 134.191406 C 106.78125 134.191406 107.128906 134.226562 107.472656 134.292969 C 107.816406 134.363281 108.152344 134.464844 108.472656 134.597656 C 108.796875 134.730469 109.105469 134.898438 109.398438 135.089844 C 109.6875 135.285156 109.957031 135.507812 110.207031 135.753906 C 110.453125 136.003906 110.675781 136.273438 110.871094 136.5625 C 111.066406 136.855469 111.230469 137.164062 111.363281 137.488281 C 111.5 137.8125 111.601562 138.144531 111.667969 138.488281 C 111.738281 138.832031 111.769531 139.179688 111.769531 139.53125 L 111.769531 139.722656 C 111.769531 140.074219 111.738281 140.417969 111.667969 140.761719 C 111.601562 141.105469 111.5 141.441406 111.363281 141.765625 C 111.230469 142.089844 111.066406 142.394531 110.871094 142.6875 C 110.675781 142.980469 110.453125 143.25 110.207031 143.496094 C 109.957031 143.746094 109.6875 143.964844 109.398438 144.160156 C 109.105469 144.355469 108.796875 144.519531 108.472656 144.652344 C 108.152344 144.789062 107.816406 144.890625 107.472656 144.957031 C 107.128906 145.027344 106.78125 145.058594 106.429688 145.058594 L 60.148438 145.058594 C 59.800781 145.058594 59.453125 145.027344 59.109375 144.957031 C 58.765625 144.890625 58.429688 144.789062 58.105469 144.652344 C 57.78125 144.519531 57.476562 144.355469 57.183594 144.160156 C 56.890625 143.964844 56.621094 143.746094 56.375 143.496094 C 56.125 143.25 55.90625 142.980469 55.710938 142.6875 C 55.515625 142.394531 55.351562 142.089844 55.214844 141.765625 C 55.082031 141.441406 54.980469 141.105469 54.914062 140.761719 C 54.84375 140.417969 54.808594 140.074219 54.808594 139.722656 L 54.808594 139.53125 C 54.808594 139.179688 54.84375 138.832031 54.914062 138.488281 C 54.980469 138.144531 55.082031 137.8125 55.214844 137.488281 C 55.351562 137.164062 55.515625 136.855469 55.710938 136.5625 C 55.90625 136.273438 56.125 136.003906 56.375 135.753906 C 56.621094 135.507812 56.890625 135.285156 57.183594 135.089844 C 57.476562 134.898438 57.78125 134.730469 58.105469 134.597656 C 58.429688 134.464844 58.765625 134.363281 59.109375 134.292969 C 59.453125 134.226562 59.800781 134.191406 60.148438 134.191406 Z M 60.148438 134.191406 " fill-opacity="0.9" fill-rule="nonzero"/><path fill="#ffffff" d="M 60.148438 155.925781 L 106.429688 155.925781 C 106.78125 155.925781 107.128906 155.960938 107.472656 156.03125 C 107.816406 156.097656 108.152344 156.199219 108.472656 156.332031 C 108.796875 156.46875 109.105469 156.632812 109.398438 156.828125 C 109.6875 157.023438 109.957031 157.242188 110.207031 157.492188 C 110.453125 157.738281 110.675781 158.007812 110.871094 158.300781 C 111.066406 158.589844 111.230469 158.898438 111.363281 159.222656 C 111.5 159.546875 111.601562 159.878906 111.667969 160.222656 C 111.738281 160.566406 111.769531 160.914062 111.769531 161.265625 L 111.769531 161.457031 C 111.769531 161.808594 111.738281 162.15625 111.667969 162.5 C 111.601562 162.84375 111.5 163.175781 111.363281 163.5 C 111.230469 163.824219 111.066406 164.132812 110.871094 164.421875 C 110.675781 164.714844 110.453125 164.984375 110.207031 165.230469 C 109.957031 165.480469 109.6875 165.699219 109.398438 165.894531 C 109.105469 166.089844 108.796875 166.253906 108.472656 166.390625 C 108.152344 166.523438 107.816406 166.625 107.472656 166.691406 C 107.128906 166.761719 106.78125 166.796875 106.429688 166.796875 L 60.148438 166.796875 C 59.800781 166.796875 59.453125 166.761719 59.109375 166.691406 C 58.765625 166.625 58.429688 166.523438 58.105469 166.390625 C 57.78125 166.253906 57.476562 166.089844 57.183594 165.894531 C 56.890625 165.699219 56.621094 165.480469 56.375 165.230469 C 56.125 164.984375 55.90625 164.714844 55.710938 164.421875 C 55.515625 164.132812 55.351562 163.824219 55.214844 163.5 C 55.082031 163.175781 54.980469 162.84375 54.914062 162.5 C 54.84375 162.15625 54.808594 161.808594 54.808594 161.457031 L 54.808594 161.265625 C 54.808594 160.914062 54.84375 160.566406 54.914062 160.222656 C 54.980469 159.878906 55.082031 159.546875 55.214844 159.222656 C 55.351562 158.898438 55.515625 158.589844 55.710938 158.300781 C 55.90625 158.007812 56.125 157.738281 56.375 157.492188 C 56.621094 157.242188 56.890625 157.023438 57.183594 156.828125 C 57.476562 156.632812 57.78125 156.46875 58.105469 156.332031 C 58.429688 156.199219 58.765625 156.097656 59.109375 156.03125 C 59.453125 155.960938 59.800781 155.925781 60.148438 155.925781 Z M 60.148438 155.925781 " fill-opacity="0.9" fill-rule="nonzero"/><path fill="#2ecf9a" d="M 129.570312 174.039062 C 129.570312 174.753906 129.535156 175.460938 129.46875 176.171875 C 129.398438 176.878906 129.296875 177.582031 129.160156 178.28125 C 129.023438 178.980469 128.855469 179.667969 128.652344 180.351562 C 128.449219 181.03125 128.210938 181.699219 127.945312 182.359375 C 127.675781 183.015625 127.378906 183.660156 127.046875 184.285156 C 126.71875 184.914062 126.359375 185.523438 125.96875 186.117188 C 125.582031 186.707031 125.164062 187.277344 124.722656 187.828125 C 124.277344 188.378906 123.808594 188.90625 123.3125 189.410156 C 122.820312 189.914062 122.300781 190.390625 121.761719 190.84375 C 121.21875 191.292969 120.660156 191.71875 120.078125 192.113281 C 119.496094 192.507812 118.894531 192.875 118.28125 193.210938 C 117.664062 193.542969 117.03125 193.847656 116.382812 194.121094 C 115.738281 194.394531 115.082031 194.632812 114.410156 194.839844 C 113.742188 195.046875 113.0625 195.21875 112.378906 195.359375 C 111.691406 195.496094 111 195.601562 110.304688 195.671875 C 109.609375 195.742188 108.910156 195.777344 108.210938 195.777344 C 107.511719 195.777344 106.8125 195.742188 106.117188 195.671875 C 105.421875 195.601562 104.730469 195.496094 104.042969 195.359375 C 103.355469 195.21875 102.679688 195.046875 102.011719 194.839844 C 101.339844 194.632812 100.683594 194.394531 100.035156 194.121094 C 99.390625 193.847656 98.757812 193.542969 98.140625 193.210938 C 97.523438 192.875 96.925781 192.507812 96.34375 192.113281 C 95.761719 191.71875 95.199219 191.292969 94.660156 190.84375 C 94.117188 190.390625 93.601562 189.914062 93.105469 189.410156 C 92.613281 188.90625 92.144531 188.378906 91.699219 187.828125 C 91.253906 187.277344 90.839844 186.707031 90.449219 186.117188 C 90.0625 185.523438 89.703125 184.914062 89.371094 184.285156 C 89.042969 183.660156 88.746094 183.015625 88.476562 182.359375 C 88.207031 181.699219 87.972656 181.03125 87.769531 180.351562 C 87.566406 179.667969 87.398438 178.980469 87.261719 178.28125 C 87.125 177.582031 87.023438 176.878906 86.953125 176.171875 C 86.886719 175.460938 86.851562 174.753906 86.851562 174.039062 C 86.851562 173.328125 86.886719 172.617188 86.953125 171.910156 C 87.023438 171.203125 87.125 170.5 87.261719 169.800781 C 87.398438 169.101562 87.566406 168.410156 87.769531 167.730469 C 87.972656 167.050781 88.207031 166.378906 88.476562 165.722656 C 88.746094 165.066406 89.042969 164.421875 89.371094 163.792969 C 89.703125 163.167969 90.0625 162.558594 90.449219 161.964844 C 90.839844 161.371094 91.253906 160.800781 91.699219 160.25 C 92.144531 159.703125 92.613281 159.175781 93.105469 158.671875 C 93.601562 158.167969 94.117188 157.691406 94.660156 157.238281 C 95.199219 156.785156 95.761719 156.363281 96.34375 155.96875 C 96.925781 155.574219 97.523438 155.207031 98.140625 154.871094 C 98.757812 154.535156 99.390625 154.230469 100.035156 153.960938 C 100.683594 153.6875 101.339844 153.449219 102.011719 153.242188 C 102.679688 153.035156 103.355469 152.863281 104.042969 152.722656 C 104.730469 152.582031 105.421875 152.480469 106.117188 152.410156 C 106.8125 152.339844 107.511719 152.304688 108.210938 152.304688 C 108.910156 152.304688 109.609375 152.339844 110.304688 152.410156 C 111 152.480469 111.691406 152.582031 112.378906 152.722656 C 113.0625 152.863281 113.742188 153.035156 114.410156 153.242188 C 115.082031 153.449219 115.738281 153.6875 116.382812 153.960938 C 117.03125 154.230469 117.664062 154.535156 118.28125 154.871094 C 118.894531 155.207031 119.496094 155.574219 120.078125 155.96875 C 120.660156 156.363281 121.21875 156.785156 121.761719 157.238281 C 122.300781 157.691406 122.820312 158.167969 123.3125 158.671875 C 123.808594 159.175781 124.277344 159.703125 124.722656 160.25 C 125.164062 160.800781 125.582031 161.371094 125.96875 161.964844 C 126.359375 162.558594 126.71875 163.167969 127.046875 163.792969 C 127.378906 164.421875 127.675781 165.066406 127.945312 165.722656 C 128.210938 166.378906 128.449219 167.050781 128.652344 167.730469 C 128.855469 168.410156 129.023438 169.101562 129.160156 169.800781 C 129.296875 170.5 129.398438 171.203125 129.46875 171.910156 C 129.535156 172.617188 129.570312 173.328125 129.570312 174.039062 Z M 129.570312 174.039062 " fill-opacity="1" fill-rule="nonzero"/><g clip-path="url(#1950b1f072)"><path stroke-linecap="butt" transform="matrix(0.683891, 0, 0, 0.683613, 11.105575, 55.404836)" fill="none" stroke-linejoin="miter" d="M 173.221776 173.540089 C 173.221776 174.585774 173.17037 175.620031 173.073269 176.660002 C 172.970456 177.694259 172.821949 178.722801 172.622036 179.74563 C 172.422123 180.768459 172.176515 181.774145 171.879501 182.774117 C 171.582488 183.768375 171.234067 184.745491 170.845665 185.711178 C 170.45155 186.671151 170.017453 187.613982 169.531949 188.528242 C 169.052158 189.448217 168.526672 190.33962 167.955491 191.208168 C 167.390022 192.071001 166.778859 192.905263 166.133425 193.710955 C 165.482279 194.516647 164.796862 195.288054 164.071463 196.025176 C 163.351776 196.762299 162.592105 197.459422 161.803876 198.122261 C 161.009935 198.779385 160.193147 199.402225 159.342088 199.979352 C 158.491029 200.556479 157.611411 201.093606 156.714657 201.585021 C 155.812192 202.070722 154.88688 202.516424 153.93872 202.916413 C 152.996272 203.316402 152.036688 203.664963 151.054258 203.967812 C 150.077539 204.270661 149.083685 204.522082 148.084119 204.727791 C 147.078841 204.927785 146.067851 205.082067 145.05115 205.184921 C 144.034449 205.287775 143.012035 205.339202 141.989622 205.339202 C 140.967209 205.339202 139.944796 205.287775 138.928094 205.184921 C 137.911393 205.082067 136.900403 204.927785 135.895126 204.727791 C 134.889848 204.522082 133.901705 204.270661 132.924987 203.967812 C 131.942556 203.664963 130.982973 203.316402 130.034813 202.916413 C 129.092365 202.516424 128.167052 202.070722 127.264587 201.585021 C 126.362122 201.093606 125.488216 200.556479 124.637156 199.979352 C 123.786097 199.402225 122.963597 198.779385 122.175368 198.122261 C 121.381427 197.459422 120.627469 196.762299 119.90207 196.025176 C 119.182382 195.288054 118.496965 194.516647 117.845819 193.710955 C 117.194674 192.905263 116.589222 192.071001 116.018042 191.208168 C 115.452573 190.33962 114.927087 189.448217 114.441583 188.528242 C 113.961792 187.613982 113.527694 186.671151 113.13358 185.711178 C 112.739465 184.745491 112.396757 183.768375 112.099743 182.774117 C 111.802729 181.774145 111.557121 180.768459 111.357208 179.74563 C 111.157295 178.722801 111.008788 177.694259 110.905976 176.660002 C 110.808875 175.620031 110.757469 174.585774 110.757469 173.540089 C 110.757469 172.500118 110.808875 171.460147 110.905976 170.42589 C 111.008788 169.391633 111.157295 168.36309 111.357208 167.340262 C 111.557121 166.317433 111.802729 165.306033 112.099743 164.311775 C 112.396757 163.317517 112.739465 162.334687 113.13358 161.374714 C 113.527694 160.41474 113.961792 159.471909 114.441583 158.551935 C 114.927087 157.637675 115.452573 156.746271 116.018042 155.877724 C 116.589222 155.009177 117.194674 154.174914 117.845819 153.369222 C 118.496965 152.569245 119.182382 151.797838 119.90207 151.060715 C 120.627469 150.323593 121.381427 149.62647 122.175368 148.963631 C 122.963597 148.300792 123.786097 147.683667 124.637156 147.10654 C 125.488216 146.529413 126.362122 145.992285 127.264587 145.50087 C 128.167052 145.009455 129.092365 144.563754 130.034813 144.169479 C 130.982973 143.76949 131.942556 143.420928 132.924987 143.11808 C 133.901705 142.815231 134.889848 142.563809 135.895126 142.358101 C 136.900403 142.152392 137.911393 142.003825 138.928094 141.900971 C 139.944796 141.798116 140.967209 141.746689 141.989622 141.746689 C 143.012035 141.746689 144.034449 141.798116 145.05115 141.900971 C 146.067851 142.003825 147.078841 142.152392 148.084119 142.358101 C 149.083685 142.563809 150.077539 142.815231 151.054258 143.11808 C 152.036688 143.420928 152.996272 143.76949 153.93872 144.169479 C 154.88688 144.563754 155.812192 145.009455 156.714657 145.50087 C 157.611411 145.992285 158.491029 146.529413 159.342088 147.10654 C 160.193147 147.683667 161.009935 148.300792 161.803876 148.963631 C 162.592105 149.62647 163.351776 150.323593 164.071463 151.060715 C 164.796862 151.797838 165.482279 152.569245 166.133425 153.369222 C 166.778859 154.174914 167.390022 155.009177 167.955491 155.877724 C 168.526672 156.746271 169.052158 157.637675 169.531949 158.551935 C 170.017453 159.471909 170.45155 160.41474 170.845665 161.374714 C 171.234067 162.334687 171.582488 163.317517 171.879501 164.311775 C 172.176515 165.306033 172.422123 166.317433 172.622036 167.340262 C 172.821949 168.36309 172.970456 169.391633 173.073269 170.42589 C 173.17037 171.460147 173.221776 172.500118 173.221776 173.540089 Z M 173.221776 173.540089 " stroke="#ffffff" stroke-width="7.878" stroke-opacity="1" stroke-miterlimit="4"/></g><path stroke-linecap="round" transform="matrix(0.683891, 0, 0, 0.683613, 11.105575, 55.404836)" fill="none" stroke-linejoin="round" d="M 128.978129 173.540089 L 139.385039 184.139793 L 157.605699 162.946098 " stroke="#ffffff" stroke-width="7.878" stroke-opacity="1" stroke-miterlimit="4"/></svg>